<?xml version="1.0" encoding="utf-8" standalone="no"?>
<!DOCTYPE svg PUBLIC "-//W3C//DTD SVG 1.1//EN"
  "http://www.w3.org/Graphics/SVG/1.1/DTD/svg11.dtd">
<!-- Created with matplotlib (http://matplotlib.org/) -->
<svg height="438pt" version="1.1" viewBox="0 0 543 438" width="543pt" xmlns="http://www.w3.org/2000/svg" xmlns:xlink="http://www.w3.org/1999/xlink">
 <defs>
  <style type="text/css">
*{stroke-linecap:butt;stroke-linejoin:round;stroke-miterlimit:100000;}
  </style>
 </defs>
 <g id="figure_1">
  <g id="patch_1">
   <path d="M 0 438.40625 
L 543.76875 438.40625 
L 543.76875 0 
L 0 0 
z
" style="fill:#ffffff;"/>
  </g>
  <g id="axes_1">
   <g id="patch_2">
    <path d="M 90.16875 372.052344 
L 536.56875 372.052344 
L 536.56875 37.252344 
L 90.16875 37.252344 
z
" style="fill:#ffffff;"/>
   </g>
   <g id="matplotlib.axis_1">
    <g id="xtick_1">
     <g id="line2d_1">
      <defs>
       <path d="M 0 0 
L 0 6 
" id="m899f352879" style="stroke:#262626;"/>
      </defs>
      <g>
       <use style="fill:#262626;stroke:#262626;" x="98.0297245919" xlink:href="#m899f352879" y="372.05234375"/>
      </g>
     </g>
     <g id="line2d_2">
      <defs>
       <path d="M 0 0 
L 0 -6 
" id="mc0f4631733" style="stroke:#262626;"/>
      </defs>
      <g>
       <use style="fill:#262626;stroke:#262626;" x="98.0297245919" xlink:href="#mc0f4631733" y="37.25234375"/>
      </g>
     </g>
     <g id="text_1">
      <!-- −0.5 -->
      <defs>
       <path d="M 4.15625 35.296875 
Q 4.15625 48 6.765625 55.734375 
Q 9.375 63.484375 14.515625 67.671875 
Q 19.671875 71.875 27.484375 71.875 
Q 33.25 71.875 37.59375 69.546875 
Q 41.9375 67.234375 44.765625 62.859375 
Q 47.609375 58.5 49.21875 52.21875 
Q 50.828125 45.953125 50.828125 35.296875 
Q 50.828125 22.703125 48.234375 14.96875 
Q 45.65625 7.234375 40.5 3 
Q 35.359375 -1.21875 27.484375 -1.21875 
Q 17.140625 -1.21875 11.234375 6.203125 
Q 4.15625 15.140625 4.15625 35.296875 
M 13.1875 35.296875 
Q 13.1875 17.671875 17.3125 11.828125 
Q 21.4375 6 27.484375 6 
Q 33.546875 6 37.671875 11.859375 
Q 41.796875 17.71875 41.796875 35.296875 
Q 41.796875 52.984375 37.671875 58.78125 
Q 33.546875 64.59375 27.390625 64.59375 
Q 21.34375 64.59375 17.71875 59.46875 
Q 13.1875 52.9375 13.1875 35.296875 
" id="ArialMT-30"/>
       <path d="M 52.828125 31.203125 
L 5.5625 31.203125 
L 5.5625 39.40625 
L 52.828125 39.40625 
z
" id="ArialMT-2212"/>
       <path d="M 9.078125 0 
L 9.078125 10.015625 
L 19.09375 10.015625 
L 19.09375 0 
z
" id="ArialMT-2e"/>
       <path d="M 4.15625 18.75 
L 13.375 19.53125 
Q 14.40625 12.796875 18.140625 9.390625 
Q 21.875 6 27.15625 6 
Q 33.5 6 37.890625 10.78125 
Q 42.28125 15.578125 42.28125 23.484375 
Q 42.28125 31 38.0625 35.34375 
Q 33.84375 39.703125 27 39.703125 
Q 22.75 39.703125 19.328125 37.765625 
Q 15.921875 35.84375 13.96875 32.765625 
L 5.71875 33.84375 
L 12.640625 70.609375 
L 48.25 70.609375 
L 48.25 62.203125 
L 19.671875 62.203125 
L 15.828125 42.96875 
Q 22.265625 47.46875 29.34375 47.46875 
Q 38.71875 47.46875 45.15625 40.96875 
Q 51.609375 34.46875 51.609375 24.265625 
Q 51.609375 14.546875 45.953125 7.46875 
Q 39.0625 -1.21875 27.15625 -1.21875 
Q 17.390625 -1.21875 11.203125 4.25 
Q 5.03125 9.71875 4.15625 18.75 
" id="ArialMT-35"/>
      </defs>
      <g style="fill:#262626;" transform="translate(83.2242558419 395.7890625)scale(0.15 -0.15)">
       <use xlink:href="#ArialMT-2212"/>
       <use x="58.3984375" xlink:href="#ArialMT-30"/>
       <use x="114.013671875" xlink:href="#ArialMT-2e"/>
       <use x="141.796875" xlink:href="#ArialMT-35"/>
      </g>
     </g>
    </g>
    <g id="xtick_2">
     <g id="line2d_3">
      <g>
       <use style="fill:#262626;stroke:#262626;" x="162.836494048" xlink:href="#m899f352879" y="372.05234375"/>
      </g>
     </g>
     <g id="line2d_4">
      <g>
       <use style="fill:#262626;stroke:#262626;" x="162.836494048" xlink:href="#mc0f4631733" y="37.25234375"/>
      </g>
     </g>
     <g id="text_2">
      <!-- 0.0 -->
      <g style="fill:#262626;" transform="translate(152.411494048 395.7890625)scale(0.15 -0.15)">
       <use xlink:href="#ArialMT-30"/>
       <use x="55.615234375" xlink:href="#ArialMT-2e"/>
       <use x="83.3984375" xlink:href="#ArialMT-30"/>
      </g>
     </g>
    </g>
    <g id="xtick_3">
     <g id="line2d_5">
      <g>
       <use style="fill:#262626;stroke:#262626;" x="227.643263504" xlink:href="#m899f352879" y="372.05234375"/>
      </g>
     </g>
     <g id="line2d_6">
      <g>
       <use style="fill:#262626;stroke:#262626;" x="227.643263504" xlink:href="#mc0f4631733" y="37.25234375"/>
      </g>
     </g>
     <g id="text_3">
      <!-- 0.5 -->
      <g style="fill:#262626;" transform="translate(217.218263504 395.7890625)scale(0.15 -0.15)">
       <use xlink:href="#ArialMT-30"/>
       <use x="55.615234375" xlink:href="#ArialMT-2e"/>
       <use x="83.3984375" xlink:href="#ArialMT-35"/>
      </g>
     </g>
    </g>
    <g id="xtick_4">
     <g id="line2d_7">
      <g>
       <use style="fill:#262626;stroke:#262626;" x="292.45003296" xlink:href="#m899f352879" y="372.05234375"/>
      </g>
     </g>
     <g id="line2d_8">
      <g>
       <use style="fill:#262626;stroke:#262626;" x="292.45003296" xlink:href="#mc0f4631733" y="37.25234375"/>
      </g>
     </g>
     <g id="text_4">
      <!-- 1.0 -->
      <defs>
       <path d="M 37.25 0 
L 28.46875 0 
L 28.46875 56 
Q 25.296875 52.984375 20.140625 49.953125 
Q 14.984375 46.921875 10.890625 45.40625 
L 10.890625 53.90625 
Q 18.265625 57.375 23.78125 62.296875 
Q 29.296875 67.234375 31.59375 71.875 
L 37.25 71.875 
z
" id="ArialMT-31"/>
      </defs>
      <g style="fill:#262626;" transform="translate(282.02503296 395.7890625)scale(0.15 -0.15)">
       <use xlink:href="#ArialMT-31"/>
       <use x="55.615234375" xlink:href="#ArialMT-2e"/>
       <use x="83.3984375" xlink:href="#ArialMT-30"/>
      </g>
     </g>
    </g>
    <g id="xtick_5">
     <g id="line2d_9">
      <g>
       <use style="fill:#262626;stroke:#262626;" x="357.256802416" xlink:href="#m899f352879" y="372.05234375"/>
      </g>
     </g>
     <g id="line2d_10">
      <g>
       <use style="fill:#262626;stroke:#262626;" x="357.256802416" xlink:href="#mc0f4631733" y="37.25234375"/>
      </g>
     </g>
     <g id="text_5">
      <!-- 1.5 -->
      <g style="fill:#262626;" transform="translate(346.831802416 395.7890625)scale(0.15 -0.15)">
       <use xlink:href="#ArialMT-31"/>
       <use x="55.615234375" xlink:href="#ArialMT-2e"/>
       <use x="83.3984375" xlink:href="#ArialMT-35"/>
      </g>
     </g>
    </g>
    <g id="xtick_6">
     <g id="line2d_11">
      <g>
       <use style="fill:#262626;stroke:#262626;" x="422.063571871" xlink:href="#m899f352879" y="372.05234375"/>
      </g>
     </g>
     <g id="line2d_12">
      <g>
       <use style="fill:#262626;stroke:#262626;" x="422.063571871" xlink:href="#mc0f4631733" y="37.25234375"/>
      </g>
     </g>
     <g id="text_6">
      <!-- 2.0 -->
      <defs>
       <path d="M 50.34375 8.453125 
L 50.34375 0 
L 3.03125 0 
Q 2.9375 3.171875 4.046875 6.109375 
Q 5.859375 10.9375 9.828125 15.625 
Q 13.8125 20.3125 21.34375 26.46875 
Q 33.015625 36.03125 37.109375 41.625 
Q 41.21875 47.21875 41.21875 52.203125 
Q 41.21875 57.421875 37.46875 61 
Q 33.734375 64.59375 27.734375 64.59375 
Q 21.390625 64.59375 17.578125 60.78125 
Q 13.765625 56.984375 13.71875 50.25 
L 4.6875 51.171875 
Q 5.609375 61.28125 11.65625 66.578125 
Q 17.71875 71.875 27.9375 71.875 
Q 38.234375 71.875 44.234375 66.15625 
Q 50.25 60.453125 50.25 52 
Q 50.25 47.703125 48.484375 43.546875 
Q 46.734375 39.40625 42.65625 34.8125 
Q 38.578125 30.21875 29.109375 22.21875 
Q 21.1875 15.578125 18.9375 13.203125 
Q 16.703125 10.84375 15.234375 8.453125 
z
" id="ArialMT-32"/>
      </defs>
      <g style="fill:#262626;" transform="translate(411.638571871 395.7890625)scale(0.15 -0.15)">
       <use xlink:href="#ArialMT-32"/>
       <use x="55.615234375" xlink:href="#ArialMT-2e"/>
       <use x="83.3984375" xlink:href="#ArialMT-30"/>
      </g>
     </g>
    </g>
    <g id="xtick_7">
     <g id="line2d_13">
      <g>
       <use style="fill:#262626;stroke:#262626;" x="486.870341327" xlink:href="#m899f352879" y="372.05234375"/>
      </g>
     </g>
     <g id="line2d_14">
      <g>
       <use style="fill:#262626;stroke:#262626;" x="486.870341327" xlink:href="#mc0f4631733" y="37.25234375"/>
      </g>
     </g>
     <g id="text_7">
      <!-- 2.5 -->
      <g style="fill:#262626;" transform="translate(476.445341327 395.7890625)scale(0.15 -0.15)">
       <use xlink:href="#ArialMT-32"/>
       <use x="55.615234375" xlink:href="#ArialMT-2e"/>
       <use x="83.3984375" xlink:href="#ArialMT-35"/>
      </g>
     </g>
    </g>
    <g id="text_8">
     <!-- Asset 2 -->
     <defs>
      <path d="M -0.140625 0 
L 27.34375 71.578125 
L 37.546875 71.578125 
L 66.84375 0 
L 56.0625 0 
L 47.703125 21.6875 
L 17.78125 21.6875 
L 9.90625 0 
z
M 20.515625 29.390625 
L 44.78125 29.390625 
L 37.3125 49.21875 
Q 33.890625 58.25 32.234375 64.0625 
Q 30.859375 57.171875 28.375 50.390625 
z
" id="ArialMT-41"/>
      <path d="M 25.78125 7.859375 
L 27.046875 0.09375 
Q 23.34375 -0.6875 20.40625 -0.6875 
Q 15.625 -0.6875 12.984375 0.828125 
Q 10.359375 2.34375 9.28125 4.8125 
Q 8.203125 7.28125 8.203125 15.1875 
L 8.203125 45.015625 
L 1.765625 45.015625 
L 1.765625 51.859375 
L 8.203125 51.859375 
L 8.203125 64.703125 
L 16.9375 69.96875 
L 16.9375 51.859375 
L 25.78125 51.859375 
L 25.78125 45.015625 
L 16.9375 45.015625 
L 16.9375 14.703125 
Q 16.9375 10.9375 17.40625 9.859375 
Q 17.875 8.796875 18.921875 8.15625 
Q 19.96875 7.515625 21.921875 7.515625 
Q 23.390625 7.515625 25.78125 7.859375 
" id="ArialMT-74"/>
      <path id="ArialMT-20"/>
      <path d="M 42.09375 16.703125 
L 51.171875 15.578125 
Q 49.03125 7.625 43.21875 3.21875 
Q 37.40625 -1.171875 28.375 -1.171875 
Q 17 -1.171875 10.328125 5.828125 
Q 3.65625 12.84375 3.65625 25.484375 
Q 3.65625 38.578125 10.390625 45.796875 
Q 17.140625 53.03125 27.875 53.03125 
Q 38.28125 53.03125 44.875 45.953125 
Q 51.46875 38.875 51.46875 26.03125 
Q 51.46875 25.25 51.421875 23.6875 
L 12.75 23.6875 
Q 13.234375 15.140625 17.578125 10.59375 
Q 21.921875 6.0625 28.421875 6.0625 
Q 33.25 6.0625 36.671875 8.59375 
Q 40.09375 11.140625 42.09375 16.703125 
M 13.234375 30.90625 
L 42.1875 30.90625 
Q 41.609375 37.453125 38.875 40.71875 
Q 34.671875 45.796875 27.984375 45.796875 
Q 21.921875 45.796875 17.796875 41.75 
Q 13.671875 37.703125 13.234375 30.90625 
" id="ArialMT-65"/>
      <path d="M 3.078125 15.484375 
L 11.765625 16.84375 
Q 12.5 11.625 15.84375 8.84375 
Q 19.1875 6.0625 25.203125 6.0625 
Q 31.25 6.0625 34.171875 8.515625 
Q 37.109375 10.984375 37.109375 14.3125 
Q 37.109375 17.28125 34.515625 19 
Q 32.71875 20.171875 25.53125 21.96875 
Q 15.875 24.421875 12.140625 26.203125 
Q 8.40625 27.984375 6.46875 31.125 
Q 4.546875 34.28125 4.546875 38.09375 
Q 4.546875 41.546875 6.125 44.5 
Q 7.71875 47.46875 10.453125 49.421875 
Q 12.5 50.921875 16.03125 51.96875 
Q 19.578125 53.03125 23.640625 53.03125 
Q 29.734375 53.03125 34.34375 51.265625 
Q 38.96875 49.515625 41.15625 46.5 
Q 43.359375 43.5 44.1875 38.484375 
L 35.59375 37.3125 
Q 35.015625 41.3125 32.203125 43.546875 
Q 29.390625 45.796875 24.265625 45.796875 
Q 18.21875 45.796875 15.625 43.796875 
Q 13.03125 41.796875 13.03125 39.109375 
Q 13.03125 37.40625 14.109375 36.03125 
Q 15.1875 34.625 17.484375 33.6875 
Q 18.796875 33.203125 25.25 31.453125 
Q 34.578125 28.953125 38.25 27.359375 
Q 41.9375 25.78125 44.03125 22.75 
Q 46.140625 19.734375 46.140625 15.234375 
Q 46.140625 10.84375 43.578125 6.953125 
Q 41.015625 3.078125 36.171875 0.953125 
Q 31.34375 -1.171875 25.25 -1.171875 
Q 15.140625 -1.171875 9.84375 3.03125 
Q 4.546875 7.234375 3.078125 15.484375 
" id="ArialMT-73"/>
     </defs>
     <g style="fill:#262626;" transform="translate(263.34609375 425.24375)scale(0.3 -0.3)">
      <use xlink:href="#ArialMT-41"/>
      <use x="66.69921875" xlink:href="#ArialMT-73"/>
      <use x="116.69921875" xlink:href="#ArialMT-73"/>
      <use x="166.69921875" xlink:href="#ArialMT-65"/>
      <use x="222.314453125" xlink:href="#ArialMT-74"/>
      <use x="250.09765625" xlink:href="#ArialMT-20"/>
      <use x="277.880859375" xlink:href="#ArialMT-32"/>
     </g>
    </g>
   </g>
   <g id="matplotlib.axis_2">
    <g id="ytick_1">
     <g id="line2d_15">
      <defs>
       <path d="M 0 0 
L -6 0 
" id="m1ecab302f9" style="stroke:#262626;"/>
      </defs>
      <g>
       <use style="fill:#262626;stroke:#262626;" x="90.16875" xlink:href="#m1ecab302f9" y="372.05234375"/>
      </g>
     </g>
     <g id="line2d_16">
      <defs>
       <path d="M 0 0 
L 6 0 
" id="me721810eee" style="stroke:#262626;"/>
      </defs>
      <g>
       <use style="fill:#262626;stroke:#262626;" x="536.56875" xlink:href="#me721810eee" y="372.05234375"/>
      </g>
     </g>
     <g id="text_9">
      <!-- 20.00 -->
      <g style="fill:#262626;" transform="translate(39.6359375 375.930078125)scale(0.15 -0.15)">
       <use xlink:href="#ArialMT-32"/>
       <use x="55.615234375" xlink:href="#ArialMT-30"/>
       <use x="111.23046875" xlink:href="#ArialMT-2e"/>
       <use x="139.013671875" xlink:href="#ArialMT-30"/>
       <use x="194.62890625" xlink:href="#ArialMT-30"/>
      </g>
     </g>
    </g>
    <g id="ytick_2">
     <g id="line2d_17">
      <g>
       <use style="fill:#262626;stroke:#262626;" x="90.16875" xlink:href="#m1ecab302f9" y="305.09234375"/>
      </g>
     </g>
     <g id="line2d_18">
      <g>
       <use style="fill:#262626;stroke:#262626;" x="536.56875" xlink:href="#me721810eee" y="305.09234375"/>
      </g>
     </g>
     <g id="text_10">
      <!-- 20.05 -->
      <g style="fill:#262626;" transform="translate(39.6359375 308.970078125)scale(0.15 -0.15)">
       <use xlink:href="#ArialMT-32"/>
       <use x="55.615234375" xlink:href="#ArialMT-30"/>
       <use x="111.23046875" xlink:href="#ArialMT-2e"/>
       <use x="139.013671875" xlink:href="#ArialMT-30"/>
       <use x="194.62890625" xlink:href="#ArialMT-35"/>
      </g>
     </g>
    </g>
    <g id="ytick_3">
     <g id="line2d_19">
      <g>
       <use style="fill:#262626;stroke:#262626;" x="90.16875" xlink:href="#m1ecab302f9" y="238.13234375"/>
      </g>
     </g>
     <g id="line2d_20">
      <g>
       <use style="fill:#262626;stroke:#262626;" x="536.56875" xlink:href="#me721810eee" y="238.13234375"/>
      </g>
     </g>
     <g id="text_11">
      <!-- 20.10 -->
      <g style="fill:#262626;" transform="translate(39.6359375 242.010078125)scale(0.15 -0.15)">
       <use xlink:href="#ArialMT-32"/>
       <use x="55.615234375" xlink:href="#ArialMT-30"/>
       <use x="111.23046875" xlink:href="#ArialMT-2e"/>
       <use x="139.013671875" xlink:href="#ArialMT-31"/>
       <use x="194.62890625" xlink:href="#ArialMT-30"/>
      </g>
     </g>
    </g>
    <g id="ytick_4">
     <g id="line2d_21">
      <g>
       <use style="fill:#262626;stroke:#262626;" x="90.16875" xlink:href="#m1ecab302f9" y="171.17234375"/>
      </g>
     </g>
     <g id="line2d_22">
      <g>
       <use style="fill:#262626;stroke:#262626;" x="536.56875" xlink:href="#me721810eee" y="171.17234375"/>
      </g>
     </g>
     <g id="text_12">
      <!-- 20.15 -->
      <g style="fill:#262626;" transform="translate(39.6359375 175.050078125)scale(0.15 -0.15)">
       <use xlink:href="#ArialMT-32"/>
       <use x="55.615234375" xlink:href="#ArialMT-30"/>
       <use x="111.23046875" xlink:href="#ArialMT-2e"/>
       <use x="139.013671875" xlink:href="#ArialMT-31"/>
       <use x="194.62890625" xlink:href="#ArialMT-35"/>
      </g>
     </g>
    </g>
    <g id="ytick_5">
     <g id="line2d_23">
      <g>
       <use style="fill:#262626;stroke:#262626;" x="90.16875" xlink:href="#m1ecab302f9" y="104.21234375"/>
      </g>
     </g>
     <g id="line2d_24">
      <g>
       <use style="fill:#262626;stroke:#262626;" x="536.56875" xlink:href="#me721810eee" y="104.21234375"/>
      </g>
     </g>
     <g id="text_13">
      <!-- 20.20 -->
      <g style="fill:#262626;" transform="translate(39.6359375 108.090078125)scale(0.15 -0.15)">
       <use xlink:href="#ArialMT-32"/>
       <use x="55.615234375" xlink:href="#ArialMT-30"/>
       <use x="111.23046875" xlink:href="#ArialMT-2e"/>
       <use x="139.013671875" xlink:href="#ArialMT-32"/>
       <use x="194.62890625" xlink:href="#ArialMT-30"/>
      </g>
     </g>
    </g>
    <g id="ytick_6">
     <g id="text_14">
      <!-- 20.25 -->
      <g style="fill:#262626;" transform="translate(39.6359375 41.130078125)scale(0.15 -0.15)">
       <use xlink:href="#ArialMT-32"/>
       <use x="55.615234375" xlink:href="#ArialMT-30"/>
       <use x="111.23046875" xlink:href="#ArialMT-2e"/>
       <use x="139.013671875" xlink:href="#ArialMT-32"/>
       <use x="194.62890625" xlink:href="#ArialMT-35"/>
      </g>
     </g>
    </g>
    <g id="text_15">
     <!-- Asset 1 -->
     <g style="fill:#262626;" transform="translate(28.6734375 254.675)rotate(-90.0)scale(0.3 -0.3)">
      <use xlink:href="#ArialMT-41"/>
      <use x="66.69921875" xlink:href="#ArialMT-73"/>
      <use x="116.69921875" xlink:href="#ArialMT-73"/>
      <use x="166.69921875" xlink:href="#ArialMT-65"/>
      <use x="222.314453125" xlink:href="#ArialMT-74"/>
      <use x="250.09765625" xlink:href="#ArialMT-20"/>
      <use x="277.880859375" xlink:href="#ArialMT-31"/>
     </g>
    </g>
   </g>
   <g id="PathCollection_1">
    <defs>
     <path d="M 0 5 
C 1.326016 5 2.597899 4.473168 3.535534 3.535534 
C 4.473168 2.597899 5 1.326016 5 0 
C 5 -1.326016 4.473168 -2.597899 3.535534 -3.535534 
C 2.597899 -4.473168 1.326016 -5 0 -5 
C -1.326016 -5 -2.597899 -4.473168 -3.535534 -3.535534 
C -4.473168 -2.597899 -5 -1.326016 -5 0 
C -5 1.326016 -4.473168 2.597899 -3.535534 3.535534 
C -2.597899 4.473168 -1.326016 5 0 5 
z
" id="ma4721199cd" style="stroke:#000000;stroke-width:0.3;"/>
    </defs>
    <g clip-path="url(#p1b5a8c0086)">
     <use style="fill:#0000ff;stroke:#000000;stroke-width:0.3;" x="219.782288912" xlink:href="#ma4721199cd" y="313.214502332"/>
     <use style="fill:#0000ff;stroke:#000000;stroke-width:0.3;" x="369.438675624" xlink:href="#ma4721199cd" y="158.585722987"/>
     <use style="fill:#0000ff;stroke:#000000;stroke-width:0.3;" x="281.963335203" xlink:href="#ma4721199cd" y="248.967466187"/>
     <use style="fill:#0000ff;stroke:#000000;stroke-width:0.3;" x="262.815922647" xlink:href="#ma4721199cd" y="268.751059097"/>
     <use style="fill:#0000ff;stroke:#000000;stroke-width:0.3;" x="229.502439055" xlink:href="#ma4721199cd" y="303.171396356"/>
     <use style="fill:#0000ff;stroke:#000000;stroke-width:0.3;" x="325.723902909" xlink:href="#ma4721199cd" y="203.752936313"/>
     <use style="fill:#0000ff;stroke:#000000;stroke-width:0.3;" x="252.558902959" xlink:href="#ma4721199cd" y="279.348872321"/>
     <use style="fill:#0000ff;stroke:#000000;stroke-width:0.3;" x="327.168325271" xlink:href="#ma4721199cd" y="202.260522447"/>
     <use style="fill:#0000ff;stroke:#000000;stroke-width:0.3;" x="297.661548144" xlink:href="#ma4721199cd" y="232.747673913"/>
     <use style="fill:#0000ff;stroke:#000000;stroke-width:0.3;" x="310.797043926" xlink:href="#ma4721199cd" y="219.175746089"/>
     <use style="fill:#0000ff;stroke:#000000;stroke-width:0.3;" x="250.751317893" xlink:href="#ma4721199cd" y="281.216515115"/>
     <use style="fill:#0000ff;stroke:#000000;stroke-width:0.3;" x="334.161576699" xlink:href="#ma4721199cd" y="195.034917474"/>
     <use style="fill:#0000ff;stroke:#000000;stroke-width:0.3;" x="286.758379202" xlink:href="#ma4721199cd" y="244.013104955"/>
     <use style="fill:#0000ff;stroke:#000000;stroke-width:0.3;" x="328.89259091" xlink:href="#ma4721199cd" y="200.4789674"/>
     <use style="fill:#0000ff;stroke:#000000;stroke-width:0.3;" x="286.135343937" xlink:href="#ma4721199cd" y="244.656840813"/>
     <use style="fill:#0000ff;stroke:#000000;stroke-width:0.3;" x="285.624248292" xlink:href="#ma4721199cd" y="245.184917813"/>
     <use style="fill:#0000ff;stroke:#000000;stroke-width:0.3;" x="287.043729506" xlink:href="#ma4721199cd" y="243.718273774"/>
     <use style="fill:#0000ff;stroke:#000000;stroke-width:0.3;" x="250.964413611" xlink:href="#ma4721199cd" y="280.996339208"/>
     <use style="fill:#0000ff;stroke:#000000;stroke-width:0.3;" x="406.955211088" xlink:href="#ma4721199cd" y="119.822685795"/>
     <use style="fill:#0000ff;stroke:#000000;stroke-width:0.3;" x="263.7338721" xlink:href="#ma4721199cd" y="267.802610411"/>
     <use style="fill:#0000ff;stroke:#000000;stroke-width:0.3;" x="310.247837586" xlink:href="#ma4721199cd" y="219.743200027"/>
     <use style="fill:#0000ff;stroke:#000000;stroke-width:0.3;" x="365.967956666" xlink:href="#ma4721199cd" y="162.171757954"/>
     <use style="fill:#0000ff;stroke:#000000;stroke-width:0.3;" x="328.596133121" xlink:href="#ma4721199cd" y="200.785275117"/>
     <use style="fill:#0000ff;stroke:#000000;stroke-width:0.3;" x="220.232919756" xlink:href="#ma4721199cd" y="312.748899099"/>
     <use style="fill:#0000ff;stroke:#000000;stroke-width:0.3;" x="259.288513649" xlink:href="#ma4721199cd" y="272.395667654"/>
     <use style="fill:#0000ff;stroke:#000000;stroke-width:0.3;" x="265.087743918" xlink:href="#ma4721199cd" y="266.403755666"/>
     <use style="fill:#0000ff;stroke:#000000;stroke-width:0.3;" x="233.943205583" xlink:href="#ma4721199cd" y="298.583083603"/>
     <use style="fill:#0000ff;stroke:#000000;stroke-width:0.3;" x="297.217934032" xlink:href="#ma4721199cd" y="233.206027279"/>
     <use style="fill:#0000ff;stroke:#000000;stroke-width:0.3;" x="284.573807086" xlink:href="#ma4721199cd" y="246.270260343"/>
     <use style="fill:#0000ff;stroke:#000000;stroke-width:0.3;" x="326.272996862" xlink:href="#ma4721199cd" y="203.185598496"/>
     <use style="fill:#0000ff;stroke:#000000;stroke-width:0.3;" x="272.675706597" xlink:href="#ma4721199cd" y="258.563679926"/>
     <use style="fill:#0000ff;stroke:#000000;stroke-width:0.3;" x="369.086027216" xlink:href="#ma4721199cd" y="158.950088277"/>
     <use style="fill:#0000ff;stroke:#000000;stroke-width:0.3;" x="291.55989062" xlink:href="#ma4721199cd" y="239.052061421"/>
     <use style="fill:#0000ff;stroke:#000000;stroke-width:0.3;" x="265.836191184" xlink:href="#ma4721199cd" y="265.630440943"/>
     <use style="fill:#0000ff;stroke:#000000;stroke-width:0.3;" x="310.66330571" xlink:href="#ma4721199cd" y="219.313927809"/>
     <use style="fill:#0000ff;stroke:#000000;stroke-width:0.3;" x="254.211232196" xlink:href="#ma4721199cd" y="277.641643791"/>
     <use style="fill:#0000ff;stroke:#000000;stroke-width:0.3;" x="290.124632411" xlink:href="#ma4721199cd" y="240.535006651"/>
     <use style="fill:#0000ff;stroke:#000000;stroke-width:0.3;" x="231.502177322" xlink:href="#ma4721199cd" y="301.105215995"/>
     <use style="fill:#0000ff;stroke:#000000;stroke-width:0.3;" x="259.253415796" xlink:href="#ma4721199cd" y="272.431931647"/>
     <use style="fill:#0000ff;stroke:#000000;stroke-width:0.3;" x="280.684739152" xlink:href="#ma4721199cd" y="250.288544098"/>
     <use style="fill:#0000ff;stroke:#000000;stroke-width:0.3;" x="317.167753596" xlink:href="#ma4721199cd" y="212.59336707"/>
     <use style="fill:#0000ff;stroke:#000000;stroke-width:0.3;" x="300.562804791" xlink:href="#ma4721199cd" y="229.750021866"/>
     <use style="fill:#0000ff;stroke:#000000;stroke-width:0.3;" x="317.154810641" xlink:href="#ma4721199cd" y="212.60674006"/>
    </g>
   </g>
   <g id="patch_3">
    <path d="M 90.16875 37.252344 
L 536.56875 37.252344 
" style="fill:none;stroke:#262626;stroke-linecap:square;stroke-linejoin:miter;stroke-width:1.25;"/>
   </g>
   <g id="patch_4">
    <path d="M 536.56875 372.052344 
L 536.56875 37.252344 
" style="fill:none;stroke:#262626;stroke-linecap:square;stroke-linejoin:miter;stroke-width:1.25;"/>
   </g>
   <g id="patch_5">
    <path d="M 90.16875 372.052344 
L 536.56875 372.052344 
" style="fill:none;stroke:#262626;stroke-linecap:square;stroke-linejoin:miter;stroke-width:1.25;"/>
   </g>
   <g id="patch_6">
    <path d="M 90.16875 372.052344 
L 90.16875 37.252344 
" style="fill:none;stroke:#262626;stroke-linecap:square;stroke-linejoin:miter;stroke-width:1.25;"/>
   </g>
   <g id="text_16">
    <!-- Asset Values -->
    <defs>
     <path d="M 6.390625 0 
L 6.390625 71.578125 
L 15.1875 71.578125 
L 15.1875 0 
z
" id="ArialMT-6c"/>
     <path d="M 40.578125 0 
L 40.578125 7.625 
Q 34.515625 -1.171875 24.125 -1.171875 
Q 19.53125 -1.171875 15.546875 0.578125 
Q 11.578125 2.34375 9.640625 5 
Q 7.71875 7.671875 6.9375 11.53125 
Q 6.390625 14.109375 6.390625 19.734375 
L 6.390625 51.859375 
L 15.1875 51.859375 
L 15.1875 23.09375 
Q 15.1875 16.21875 15.71875 13.8125 
Q 16.546875 10.359375 19.234375 8.375 
Q 21.921875 6.390625 25.875 6.390625 
Q 29.828125 6.390625 33.296875 8.421875 
Q 36.765625 10.453125 38.203125 13.9375 
Q 39.65625 17.4375 39.65625 24.078125 
L 39.65625 51.859375 
L 48.4375 51.859375 
L 48.4375 0 
z
" id="ArialMT-75"/>
     <path d="M 40.4375 6.390625 
Q 35.546875 2.25 31.03125 0.53125 
Q 26.515625 -1.171875 21.34375 -1.171875 
Q 12.796875 -1.171875 8.203125 3 
Q 3.609375 7.171875 3.609375 13.671875 
Q 3.609375 17.484375 5.34375 20.625 
Q 7.078125 23.78125 9.890625 25.6875 
Q 12.703125 27.59375 16.21875 28.5625 
Q 18.796875 29.25 24.03125 29.890625 
Q 34.671875 31.15625 39.703125 32.90625 
Q 39.75 34.71875 39.75 35.203125 
Q 39.75 40.578125 37.25 42.78125 
Q 33.890625 45.75 27.25 45.75 
Q 21.046875 45.75 18.09375 43.578125 
Q 15.140625 41.40625 13.71875 35.890625 
L 5.125 37.0625 
Q 6.296875 42.578125 8.984375 45.96875 
Q 11.671875 49.359375 16.75 51.1875 
Q 21.828125 53.03125 28.515625 53.03125 
Q 35.15625 53.03125 39.296875 51.46875 
Q 43.453125 49.90625 45.40625 47.53125 
Q 47.359375 45.171875 48.140625 41.546875 
Q 48.578125 39.3125 48.578125 33.453125 
L 48.578125 21.734375 
Q 48.578125 9.46875 49.140625 6.21875 
Q 49.703125 2.984375 51.375 0 
L 42.1875 0 
Q 40.828125 2.734375 40.4375 6.390625 
M 39.703125 26.03125 
Q 34.90625 24.078125 25.34375 22.703125 
Q 19.921875 21.921875 17.671875 20.9375 
Q 15.4375 19.96875 14.203125 18.09375 
Q 12.984375 16.21875 12.984375 13.921875 
Q 12.984375 10.40625 15.640625 8.0625 
Q 18.3125 5.71875 23.4375 5.71875 
Q 28.515625 5.71875 32.46875 7.9375 
Q 36.421875 10.15625 38.28125 14.015625 
Q 39.703125 17 39.703125 22.796875 
z
" id="ArialMT-61"/>
     <path d="M 28.171875 0 
L 0.4375 71.578125 
L 10.6875 71.578125 
L 29.296875 19.578125 
Q 31.546875 13.328125 33.0625 7.859375 
Q 34.71875 13.71875 36.921875 19.578125 
L 56.25 71.578125 
L 65.921875 71.578125 
L 37.890625 0 
z
" id="ArialMT-56"/>
    </defs>
    <g style="fill:#262626;" transform="translate(211.253515625 32.25234375)scale(0.35 -0.35)">
     <use xlink:href="#ArialMT-41"/>
     <use x="66.69921875" xlink:href="#ArialMT-73"/>
     <use x="116.69921875" xlink:href="#ArialMT-73"/>
     <use x="166.69921875" xlink:href="#ArialMT-65"/>
     <use x="222.314453125" xlink:href="#ArialMT-74"/>
     <use x="250.09765625" xlink:href="#ArialMT-20"/>
     <use x="277.880859375" xlink:href="#ArialMT-56"/>
     <use x="344.470703125" xlink:href="#ArialMT-61"/>
     <use x="400.0859375" xlink:href="#ArialMT-6c"/>
     <use x="422.302734375" xlink:href="#ArialMT-75"/>
     <use x="477.91796875" xlink:href="#ArialMT-65"/>
     <use x="533.533203125" xlink:href="#ArialMT-73"/>
    </g>
   </g>
  </g>
 </g>
 <defs>
  <clipPath id="p1b5a8c0086">
   <rect height="334.8" width="446.4" x="90.16875" y="37.25234375"/>
  </clipPath>
 </defs>
</svg>
