<?xml version="1.0" encoding="utf-8" standalone="no"?>
<!DOCTYPE svg PUBLIC "-//W3C//DTD SVG 1.1//EN"
  "http://www.w3.org/Graphics/SVG/1.1/DTD/svg11.dtd">
<!-- Created with matplotlib (http://matplotlib.org/) -->
<svg height="438pt" version="1.1" viewBox="0 0 535 438" width="535pt" xmlns="http://www.w3.org/2000/svg" xmlns:xlink="http://www.w3.org/1999/xlink">
 <defs>
  <style type="text/css">
*{stroke-linecap:butt;stroke-linejoin:round;stroke-miterlimit:100000;}
  </style>
 </defs>
 <g id="figure_1">
  <g id="patch_1">
   <path d="M 0 438.40625 
L 535.427344 438.40625 
L 535.427344 0 
L 0 0 
z
" style="fill:#ffffff;"/>
  </g>
  <g id="axes_1">
   <g id="patch_2">
    <path d="M 81.827344 372.052344 
L 528.227344 372.052344 
L 528.227344 37.252344 
L 81.827344 37.252344 
z
" style="fill:#ffffff;"/>
   </g>
   <g id="matplotlib.axis_1">
    <g id="xtick_1">
     <g id="line2d_1">
      <defs>
       <path d="M 0 0 
L 0 6 
" id="m8928195c32" style="stroke:#262626;"/>
      </defs>
      <g>
       <use style="fill:#262626;stroke:#262626;" x="96.4182210613" xlink:href="#m8928195c32" y="372.05234375"/>
      </g>
     </g>
     <g id="line2d_2">
      <defs>
       <path d="M 0 0 
L 0 -6 
" id="m3181e4346f" style="stroke:#262626;"/>
      </defs>
      <g>
       <use style="fill:#262626;stroke:#262626;" x="96.4182210613" xlink:href="#m3181e4346f" y="37.25234375"/>
      </g>
     </g>
     <g id="text_1">
      <!-- −1.0 -->
      <defs>
       <path d="M 4.15625 35.296875 
Q 4.15625 48 6.765625 55.734375 
Q 9.375 63.484375 14.515625 67.671875 
Q 19.671875 71.875 27.484375 71.875 
Q 33.25 71.875 37.59375 69.546875 
Q 41.9375 67.234375 44.765625 62.859375 
Q 47.609375 58.5 49.21875 52.21875 
Q 50.828125 45.953125 50.828125 35.296875 
Q 50.828125 22.703125 48.234375 14.96875 
Q 45.65625 7.234375 40.5 3 
Q 35.359375 -1.21875 27.484375 -1.21875 
Q 17.140625 -1.21875 11.234375 6.203125 
Q 4.15625 15.140625 4.15625 35.296875 
M 13.1875 35.296875 
Q 13.1875 17.671875 17.3125 11.828125 
Q 21.4375 6 27.484375 6 
Q 33.546875 6 37.671875 11.859375 
Q 41.796875 17.71875 41.796875 35.296875 
Q 41.796875 52.984375 37.671875 58.78125 
Q 33.546875 64.59375 27.390625 64.59375 
Q 21.34375 64.59375 17.71875 59.46875 
Q 13.1875 52.9375 13.1875 35.296875 
" id="ArialMT-30"/>
       <path d="M 37.25 0 
L 28.46875 0 
L 28.46875 56 
Q 25.296875 52.984375 20.140625 49.953125 
Q 14.984375 46.921875 10.890625 45.40625 
L 10.890625 53.90625 
Q 18.265625 57.375 23.78125 62.296875 
Q 29.296875 67.234375 31.59375 71.875 
L 37.25 71.875 
z
" id="ArialMT-31"/>
       <path d="M 52.828125 31.203125 
L 5.5625 31.203125 
L 5.5625 39.40625 
L 52.828125 39.40625 
z
" id="ArialMT-2212"/>
       <path d="M 9.078125 0 
L 9.078125 10.015625 
L 19.09375 10.015625 
L 19.09375 0 
z
" id="ArialMT-2e"/>
      </defs>
      <g style="fill:#262626;" transform="translate(81.6127523113 395.7890625)scale(0.15 -0.15)">
       <use xlink:href="#ArialMT-2212"/>
       <use x="58.3984375" xlink:href="#ArialMT-31"/>
       <use x="114.013671875" xlink:href="#ArialMT-2e"/>
       <use x="141.796875" xlink:href="#ArialMT-30"/>
      </g>
     </g>
    </g>
    <g id="xtick_2">
     <g id="line2d_3">
      <g>
       <use style="fill:#262626;stroke:#262626;" x="186.073081162" xlink:href="#m8928195c32" y="372.05234375"/>
      </g>
     </g>
     <g id="line2d_4">
      <g>
       <use style="fill:#262626;stroke:#262626;" x="186.073081162" xlink:href="#m3181e4346f" y="37.25234375"/>
      </g>
     </g>
     <g id="text_2">
      <!-- −0.5 -->
      <defs>
       <path d="M 4.15625 18.75 
L 13.375 19.53125 
Q 14.40625 12.796875 18.140625 9.390625 
Q 21.875 6 27.15625 6 
Q 33.5 6 37.890625 10.78125 
Q 42.28125 15.578125 42.28125 23.484375 
Q 42.28125 31 38.0625 35.34375 
Q 33.84375 39.703125 27 39.703125 
Q 22.75 39.703125 19.328125 37.765625 
Q 15.921875 35.84375 13.96875 32.765625 
L 5.71875 33.84375 
L 12.640625 70.609375 
L 48.25 70.609375 
L 48.25 62.203125 
L 19.671875 62.203125 
L 15.828125 42.96875 
Q 22.265625 47.46875 29.34375 47.46875 
Q 38.71875 47.46875 45.15625 40.96875 
Q 51.609375 34.46875 51.609375 24.265625 
Q 51.609375 14.546875 45.953125 7.46875 
Q 39.0625 -1.21875 27.15625 -1.21875 
Q 17.390625 -1.21875 11.203125 4.25 
Q 5.03125 9.71875 4.15625 18.75 
" id="ArialMT-35"/>
      </defs>
      <g style="fill:#262626;" transform="translate(171.267612412 395.7890625)scale(0.15 -0.15)">
       <use xlink:href="#ArialMT-2212"/>
       <use x="58.3984375" xlink:href="#ArialMT-30"/>
       <use x="114.013671875" xlink:href="#ArialMT-2e"/>
       <use x="141.796875" xlink:href="#ArialMT-35"/>
      </g>
     </g>
    </g>
    <g id="xtick_3">
     <g id="line2d_5">
      <g>
       <use style="fill:#262626;stroke:#262626;" x="275.727941264" xlink:href="#m8928195c32" y="372.05234375"/>
      </g>
     </g>
     <g id="line2d_6">
      <g>
       <use style="fill:#262626;stroke:#262626;" x="275.727941264" xlink:href="#m3181e4346f" y="37.25234375"/>
      </g>
     </g>
     <g id="text_3">
      <!-- 0.0 -->
      <g style="fill:#262626;" transform="translate(265.302941264 395.7890625)scale(0.15 -0.15)">
       <use xlink:href="#ArialMT-30"/>
       <use x="55.615234375" xlink:href="#ArialMT-2e"/>
       <use x="83.3984375" xlink:href="#ArialMT-30"/>
      </g>
     </g>
    </g>
    <g id="xtick_4">
     <g id="line2d_7">
      <g>
       <use style="fill:#262626;stroke:#262626;" x="365.382801365" xlink:href="#m8928195c32" y="372.05234375"/>
      </g>
     </g>
     <g id="line2d_8">
      <g>
       <use style="fill:#262626;stroke:#262626;" x="365.382801365" xlink:href="#m3181e4346f" y="37.25234375"/>
      </g>
     </g>
     <g id="text_4">
      <!-- 0.5 -->
      <g style="fill:#262626;" transform="translate(354.957801365 395.7890625)scale(0.15 -0.15)">
       <use xlink:href="#ArialMT-30"/>
       <use x="55.615234375" xlink:href="#ArialMT-2e"/>
       <use x="83.3984375" xlink:href="#ArialMT-35"/>
      </g>
     </g>
    </g>
    <g id="xtick_5">
     <g id="line2d_9">
      <g>
       <use style="fill:#262626;stroke:#262626;" x="455.037661466" xlink:href="#m8928195c32" y="372.05234375"/>
      </g>
     </g>
     <g id="line2d_10">
      <g>
       <use style="fill:#262626;stroke:#262626;" x="455.037661466" xlink:href="#m3181e4346f" y="37.25234375"/>
      </g>
     </g>
     <g id="text_5">
      <!-- 1.0 -->
      <g style="fill:#262626;" transform="translate(444.612661466 395.7890625)scale(0.15 -0.15)">
       <use xlink:href="#ArialMT-31"/>
       <use x="55.615234375" xlink:href="#ArialMT-2e"/>
       <use x="83.3984375" xlink:href="#ArialMT-30"/>
      </g>
     </g>
    </g>
    <g id="text_6">
     <!-- Asset 2 -->
     <defs>
      <path d="M 42.09375 16.703125 
L 51.171875 15.578125 
Q 49.03125 7.625 43.21875 3.21875 
Q 37.40625 -1.171875 28.375 -1.171875 
Q 17 -1.171875 10.328125 5.828125 
Q 3.65625 12.84375 3.65625 25.484375 
Q 3.65625 38.578125 10.390625 45.796875 
Q 17.140625 53.03125 27.875 53.03125 
Q 38.28125 53.03125 44.875 45.953125 
Q 51.46875 38.875 51.46875 26.03125 
Q 51.46875 25.25 51.421875 23.6875 
L 12.75 23.6875 
Q 13.234375 15.140625 17.578125 10.59375 
Q 21.921875 6.0625 28.421875 6.0625 
Q 33.25 6.0625 36.671875 8.59375 
Q 40.09375 11.140625 42.09375 16.703125 
M 13.234375 30.90625 
L 42.1875 30.90625 
Q 41.609375 37.453125 38.875 40.71875 
Q 34.671875 45.796875 27.984375 45.796875 
Q 21.921875 45.796875 17.796875 41.75 
Q 13.671875 37.703125 13.234375 30.90625 
" id="ArialMT-65"/>
      <path d="M -0.140625 0 
L 27.34375 71.578125 
L 37.546875 71.578125 
L 66.84375 0 
L 56.0625 0 
L 47.703125 21.6875 
L 17.78125 21.6875 
L 9.90625 0 
z
M 20.515625 29.390625 
L 44.78125 29.390625 
L 37.3125 49.21875 
Q 33.890625 58.25 32.234375 64.0625 
Q 30.859375 57.171875 28.375 50.390625 
z
" id="ArialMT-41"/>
      <path d="M 3.078125 15.484375 
L 11.765625 16.84375 
Q 12.5 11.625 15.84375 8.84375 
Q 19.1875 6.0625 25.203125 6.0625 
Q 31.25 6.0625 34.171875 8.515625 
Q 37.109375 10.984375 37.109375 14.3125 
Q 37.109375 17.28125 34.515625 19 
Q 32.71875 20.171875 25.53125 21.96875 
Q 15.875 24.421875 12.140625 26.203125 
Q 8.40625 27.984375 6.46875 31.125 
Q 4.546875 34.28125 4.546875 38.09375 
Q 4.546875 41.546875 6.125 44.5 
Q 7.71875 47.46875 10.453125 49.421875 
Q 12.5 50.921875 16.03125 51.96875 
Q 19.578125 53.03125 23.640625 53.03125 
Q 29.734375 53.03125 34.34375 51.265625 
Q 38.96875 49.515625 41.15625 46.5 
Q 43.359375 43.5 44.1875 38.484375 
L 35.59375 37.3125 
Q 35.015625 41.3125 32.203125 43.546875 
Q 29.390625 45.796875 24.265625 45.796875 
Q 18.21875 45.796875 15.625 43.796875 
Q 13.03125 41.796875 13.03125 39.109375 
Q 13.03125 37.40625 14.109375 36.03125 
Q 15.1875 34.625 17.484375 33.6875 
Q 18.796875 33.203125 25.25 31.453125 
Q 34.578125 28.953125 38.25 27.359375 
Q 41.9375 25.78125 44.03125 22.75 
Q 46.140625 19.734375 46.140625 15.234375 
Q 46.140625 10.84375 43.578125 6.953125 
Q 41.015625 3.078125 36.171875 0.953125 
Q 31.34375 -1.171875 25.25 -1.171875 
Q 15.140625 -1.171875 9.84375 3.03125 
Q 4.546875 7.234375 3.078125 15.484375 
" id="ArialMT-73"/>
      <path d="M 25.78125 7.859375 
L 27.046875 0.09375 
Q 23.34375 -0.6875 20.40625 -0.6875 
Q 15.625 -0.6875 12.984375 0.828125 
Q 10.359375 2.34375 9.28125 4.8125 
Q 8.203125 7.28125 8.203125 15.1875 
L 8.203125 45.015625 
L 1.765625 45.015625 
L 1.765625 51.859375 
L 8.203125 51.859375 
L 8.203125 64.703125 
L 16.9375 69.96875 
L 16.9375 51.859375 
L 25.78125 51.859375 
L 25.78125 45.015625 
L 16.9375 45.015625 
L 16.9375 14.703125 
Q 16.9375 10.9375 17.40625 9.859375 
Q 17.875 8.796875 18.921875 8.15625 
Q 19.96875 7.515625 21.921875 7.515625 
Q 23.390625 7.515625 25.78125 7.859375 
" id="ArialMT-74"/>
      <path d="M 50.34375 8.453125 
L 50.34375 0 
L 3.03125 0 
Q 2.9375 3.171875 4.046875 6.109375 
Q 5.859375 10.9375 9.828125 15.625 
Q 13.8125 20.3125 21.34375 26.46875 
Q 33.015625 36.03125 37.109375 41.625 
Q 41.21875 47.21875 41.21875 52.203125 
Q 41.21875 57.421875 37.46875 61 
Q 33.734375 64.59375 27.734375 64.59375 
Q 21.390625 64.59375 17.578125 60.78125 
Q 13.765625 56.984375 13.71875 50.25 
L 4.6875 51.171875 
Q 5.609375 61.28125 11.65625 66.578125 
Q 17.71875 71.875 27.9375 71.875 
Q 38.234375 71.875 44.234375 66.15625 
Q 50.25 60.453125 50.25 52 
Q 50.25 47.703125 48.484375 43.546875 
Q 46.734375 39.40625 42.65625 34.8125 
Q 38.578125 30.21875 29.109375 22.21875 
Q 21.1875 15.578125 18.9375 13.203125 
Q 16.703125 10.84375 15.234375 8.453125 
z
" id="ArialMT-32"/>
      <path id="ArialMT-20"/>
     </defs>
     <g style="fill:#262626;" transform="translate(255.0046875 425.24375)scale(0.3 -0.3)">
      <use xlink:href="#ArialMT-41"/>
      <use x="66.69921875" xlink:href="#ArialMT-73"/>
      <use x="116.69921875" xlink:href="#ArialMT-73"/>
      <use x="166.69921875" xlink:href="#ArialMT-65"/>
      <use x="222.314453125" xlink:href="#ArialMT-74"/>
      <use x="250.09765625" xlink:href="#ArialMT-20"/>
      <use x="277.880859375" xlink:href="#ArialMT-32"/>
     </g>
    </g>
   </g>
   <g id="matplotlib.axis_2">
    <g id="ytick_1">
     <g id="line2d_11">
      <defs>
       <path d="M 0 0 
L -6 0 
" id="mcc87748cdc" style="stroke:#262626;"/>
      </defs>
      <g>
       <use style="fill:#262626;stroke:#262626;" x="81.82734375" xlink:href="#mcc87748cdc" y="338.57234375"/>
      </g>
     </g>
     <g id="line2d_12">
      <defs>
       <path d="M 0 0 
L 6 0 
" id="me40a86ae8a" style="stroke:#262626;"/>
      </defs>
      <g>
       <use style="fill:#262626;stroke:#262626;" x="528.22734375" xlink:href="#me40a86ae8a" y="338.57234375"/>
      </g>
     </g>
     <g id="text_7">
      <!-- 0.03 -->
      <defs>
       <path d="M 4.203125 18.890625 
L 12.984375 20.0625 
Q 14.5 12.59375 18.140625 9.296875 
Q 21.78125 6 27 6 
Q 33.203125 6 37.46875 10.296875 
Q 41.75 14.59375 41.75 20.953125 
Q 41.75 27 37.796875 30.921875 
Q 33.84375 34.859375 27.734375 34.859375 
Q 25.25 34.859375 21.53125 33.890625 
L 22.515625 41.609375 
Q 23.390625 41.5 23.921875 41.5 
Q 29.546875 41.5 34.03125 44.421875 
Q 38.53125 47.359375 38.53125 53.46875 
Q 38.53125 58.296875 35.25 61.46875 
Q 31.984375 64.65625 26.8125 64.65625 
Q 21.6875 64.65625 18.265625 61.421875 
Q 14.84375 58.203125 13.875 51.765625 
L 5.078125 53.328125 
Q 6.6875 62.15625 12.390625 67.015625 
Q 18.109375 71.875 26.609375 71.875 
Q 32.46875 71.875 37.390625 69.359375 
Q 42.328125 66.84375 44.9375 62.5 
Q 47.5625 58.15625 47.5625 53.265625 
Q 47.5625 48.640625 45.0625 44.828125 
Q 42.578125 41.015625 37.703125 38.765625 
Q 44.046875 37.3125 47.5625 32.6875 
Q 51.078125 28.078125 51.078125 21.140625 
Q 51.078125 11.765625 44.234375 5.25 
Q 37.40625 -1.265625 26.953125 -1.265625 
Q 17.53125 -1.265625 11.296875 4.34375 
Q 5.078125 9.96875 4.203125 18.890625 
" id="ArialMT-33"/>
      </defs>
      <g style="fill:#262626;" transform="translate(39.6359375 342.450078125)scale(0.15 -0.15)">
       <use xlink:href="#ArialMT-30"/>
       <use x="55.615234375" xlink:href="#ArialMT-2e"/>
       <use x="83.3984375" xlink:href="#ArialMT-30"/>
       <use x="139.013671875" xlink:href="#ArialMT-33"/>
      </g>
     </g>
    </g>
    <g id="ytick_2">
     <g id="line2d_13">
      <g>
       <use style="fill:#262626;stroke:#262626;" x="81.82734375" xlink:href="#mcc87748cdc" y="271.61234375"/>
      </g>
     </g>
     <g id="line2d_14">
      <g>
       <use style="fill:#262626;stroke:#262626;" x="528.22734375" xlink:href="#me40a86ae8a" y="271.61234375"/>
      </g>
     </g>
     <g id="text_8">
      <!-- 0.05 -->
      <g style="fill:#262626;" transform="translate(39.6359375 275.490078125)scale(0.15 -0.15)">
       <use xlink:href="#ArialMT-30"/>
       <use x="55.615234375" xlink:href="#ArialMT-2e"/>
       <use x="83.3984375" xlink:href="#ArialMT-30"/>
       <use x="139.013671875" xlink:href="#ArialMT-35"/>
      </g>
     </g>
    </g>
    <g id="ytick_3">
     <g id="line2d_15">
      <g>
       <use style="fill:#262626;stroke:#262626;" x="81.82734375" xlink:href="#mcc87748cdc" y="204.65234375"/>
      </g>
     </g>
     <g id="line2d_16">
      <g>
       <use style="fill:#262626;stroke:#262626;" x="528.22734375" xlink:href="#me40a86ae8a" y="204.65234375"/>
      </g>
     </g>
     <g id="text_9">
      <!-- 0.07 -->
      <defs>
       <path d="M 4.734375 62.203125 
L 4.734375 70.65625 
L 51.078125 70.65625 
L 51.078125 63.8125 
Q 44.234375 56.546875 37.515625 44.484375 
Q 30.8125 32.421875 27.15625 19.671875 
Q 24.515625 10.6875 23.78125 0 
L 14.75 0 
Q 14.890625 8.453125 18.0625 20.40625 
Q 21.234375 32.375 27.171875 43.484375 
Q 33.109375 54.59375 39.796875 62.203125 
z
" id="ArialMT-37"/>
      </defs>
      <g style="fill:#262626;" transform="translate(39.6359375 208.530078125)scale(0.15 -0.15)">
       <use xlink:href="#ArialMT-30"/>
       <use x="55.615234375" xlink:href="#ArialMT-2e"/>
       <use x="83.3984375" xlink:href="#ArialMT-30"/>
       <use x="139.013671875" xlink:href="#ArialMT-37"/>
      </g>
     </g>
    </g>
    <g id="ytick_4">
     <g id="line2d_17">
      <g>
       <use style="fill:#262626;stroke:#262626;" x="81.82734375" xlink:href="#mcc87748cdc" y="137.69234375"/>
      </g>
     </g>
     <g id="line2d_18">
      <g>
       <use style="fill:#262626;stroke:#262626;" x="528.22734375" xlink:href="#me40a86ae8a" y="137.69234375"/>
      </g>
     </g>
     <g id="text_10">
      <!-- 0.09 -->
      <defs>
       <path d="M 5.46875 16.546875 
L 13.921875 17.328125 
Q 14.984375 11.375 18.015625 8.6875 
Q 21.046875 6 25.78125 6 
Q 29.828125 6 32.875 7.859375 
Q 35.9375 9.71875 37.890625 12.8125 
Q 39.84375 15.921875 41.15625 21.1875 
Q 42.484375 26.46875 42.484375 31.9375 
Q 42.484375 32.515625 42.4375 33.6875 
Q 39.796875 29.5 35.234375 26.875 
Q 30.671875 24.265625 25.34375 24.265625 
Q 16.453125 24.265625 10.296875 30.703125 
Q 4.15625 37.15625 4.15625 47.703125 
Q 4.15625 58.59375 10.578125 65.234375 
Q 17 71.875 26.65625 71.875 
Q 33.640625 71.875 39.421875 68.109375 
Q 45.21875 64.359375 48.21875 57.390625 
Q 51.21875 50.4375 51.21875 37.25 
Q 51.21875 23.53125 48.234375 15.40625 
Q 45.265625 7.28125 39.375 3.03125 
Q 33.5 -1.21875 25.59375 -1.21875 
Q 17.1875 -1.21875 11.859375 3.4375 
Q 6.546875 8.109375 5.46875 16.546875 
M 41.453125 48.140625 
Q 41.453125 55.71875 37.421875 60.15625 
Q 33.40625 64.59375 27.734375 64.59375 
Q 21.875 64.59375 17.53125 59.8125 
Q 13.1875 55.03125 13.1875 47.40625 
Q 13.1875 40.578125 17.3125 36.296875 
Q 21.4375 32.03125 27.484375 32.03125 
Q 33.59375 32.03125 37.515625 36.296875 
Q 41.453125 40.578125 41.453125 48.140625 
" id="ArialMT-39"/>
      </defs>
      <g style="fill:#262626;" transform="translate(39.6359375 141.570078125)scale(0.15 -0.15)">
       <use xlink:href="#ArialMT-30"/>
       <use x="55.615234375" xlink:href="#ArialMT-2e"/>
       <use x="83.3984375" xlink:href="#ArialMT-30"/>
       <use x="139.013671875" xlink:href="#ArialMT-39"/>
      </g>
     </g>
    </g>
    <g id="ytick_5">
     <g id="line2d_19">
      <g>
       <use style="fill:#262626;stroke:#262626;" x="81.82734375" xlink:href="#mcc87748cdc" y="70.73234375"/>
      </g>
     </g>
     <g id="line2d_20">
      <g>
       <use style="fill:#262626;stroke:#262626;" x="528.22734375" xlink:href="#me40a86ae8a" y="70.73234375"/>
      </g>
     </g>
     <g id="text_11">
      <!-- 0.11 -->
      <g style="fill:#262626;" transform="translate(39.65234375 74.610078125)scale(0.15 -0.15)">
       <use xlink:href="#ArialMT-30"/>
       <use x="55.615234375" xlink:href="#ArialMT-2e"/>
       <use x="83.3984375" xlink:href="#ArialMT-31"/>
       <use x="138.904296875" xlink:href="#ArialMT-31"/>
      </g>
     </g>
    </g>
    <g id="text_12">
     <!-- Asset 1 -->
     <g style="fill:#262626;" transform="translate(28.6734375 254.675)rotate(-90.0)scale(0.3 -0.3)">
      <use xlink:href="#ArialMT-41"/>
      <use x="66.69921875" xlink:href="#ArialMT-73"/>
      <use x="116.69921875" xlink:href="#ArialMT-73"/>
      <use x="166.69921875" xlink:href="#ArialMT-65"/>
      <use x="222.314453125" xlink:href="#ArialMT-74"/>
      <use x="250.09765625" xlink:href="#ArialMT-20"/>
      <use x="277.880859375" xlink:href="#ArialMT-31"/>
     </g>
    </g>
    <g id="text_13">
     <!-- +1.993e1 -->
     <defs>
      <path d="M 25.046875 11.578125 
L 25.046875 31.203125 
L 5.5625 31.203125 
L 5.5625 39.40625 
L 25.046875 39.40625 
L 25.046875 58.890625 
L 33.34375 58.890625 
L 33.34375 39.40625 
L 52.828125 39.40625 
L 52.828125 31.203125 
L 33.34375 31.203125 
L 33.34375 11.578125 
z
" id="ArialMT-2b"/>
     </defs>
     <g style="fill:#262626;" transform="translate(81.82734375 34.25234375)scale(0.1 -0.1)">
      <use xlink:href="#ArialMT-2b"/>
      <use x="58.3984375" xlink:href="#ArialMT-31"/>
      <use x="114.013671875" xlink:href="#ArialMT-2e"/>
      <use x="141.796875" xlink:href="#ArialMT-39"/>
      <use x="197.412109375" xlink:href="#ArialMT-39"/>
      <use x="253.02734375" xlink:href="#ArialMT-33"/>
      <use x="308.642578125" xlink:href="#ArialMT-65"/>
      <use x="364.2578125" xlink:href="#ArialMT-31"/>
     </g>
    </g>
   </g>
   <g id="PathCollection_1">
    <defs>
     <path d="M 0 5 
C 1.326016 5 2.597899 4.473168 3.535534 3.535534 
C 4.473168 2.597899 5 1.326016 5 0 
C 5 -1.326016 4.473168 -2.597899 3.535534 -3.535534 
C 2.597899 -4.473168 1.326016 -5 0 -5 
C -1.326016 -5 -2.597899 -4.473168 -3.535534 -3.535534 
C -4.473168 -2.597899 -5 -1.326016 -5 0 
C -5 1.326016 -4.473168 2.597899 -3.535534 3.535534 
C -2.597899 4.473168 -1.326016 5 0 5 
z
" id="m8296d5fd00" style="stroke:#000000;stroke-width:0.3;"/>
    </defs>
    <g clip-path="url(#pe8cb0d1827)">
     <use style="fill:#0000ff;stroke:#000000;stroke-width:0.3;" x="303.522507801" xlink:href="#m8296d5fd00" y="136.457999293"/>
     <use style="fill:#0000ff;stroke:#000000;stroke-width:0.3;" x="267.869307634" xlink:href="#m8296d5fd00" y="256.745223048"/>
     <use style="fill:#0000ff;stroke:#000000;stroke-width:0.3;" x="274.497203136" xlink:href="#m8296d5fd00" y="223.921391049"/>
     <use style="fill:#0000ff;stroke:#000000;stroke-width:0.3;" x="284.94293461" xlink:href="#m8296d5fd00" y="181.889711031"/>
     <use style="fill:#0000ff;stroke:#000000;stroke-width:0.3;" x="314.167187928" xlink:href="#m8296d5fd00" y="127.347566774"/>
     <use style="fill:#0000ff;stroke:#000000;stroke-width:0.3;" x="287.856630213" xlink:href="#m8296d5fd00" y="172.282524441"/>
     <use style="fill:#0000ff;stroke:#000000;stroke-width:0.3;" x="282.153328933" xlink:href="#m8296d5fd00" y="191.953017381"/>
     <use style="fill:#0000ff;stroke:#000000;stroke-width:0.3;" x="292.980921408" xlink:href="#m8296d5fd00" y="157.626543122"/>
     <use style="fill:#0000ff;stroke:#000000;stroke-width:0.3;" x="302.03812875" xlink:href="#m8296d5fd00" y="138.707598534"/>
     <use style="fill:#0000ff;stroke:#000000;stroke-width:0.3;" x="289.218341417" xlink:href="#m8296d5fd00" y="168.109247231"/>
     <use style="fill:#0000ff;stroke:#000000;stroke-width:0.3;" x="284.427002497" xlink:href="#m8296d5fd00" y="183.687102023"/>
     <use style="fill:#0000ff;stroke:#000000;stroke-width:0.3;" x="282.717000376" xlink:href="#m8296d5fd00" y="189.851374705"/>
     <use style="fill:#0000ff;stroke:#000000;stroke-width:0.3;" x="270.773078233" xlink:href="#m8296d5fd00" y="241.776530718"/>
     <use style="fill:#0000ff;stroke:#000000;stroke-width:0.3;" x="322.092471873" xlink:href="#m8296d5fd00" y="128.568650951"/>
     <use style="fill:#0000ff;stroke:#000000;stroke-width:0.3;" x="289.020845682" xlink:href="#m8296d5fd00" y="168.70201355"/>
     <use style="fill:#0000ff;stroke:#000000;stroke-width:0.3;" x="277.436423931" xlink:href="#m8296d5fd00" y="210.894584388"/>
     <use style="fill:#0000ff;stroke:#000000;stroke-width:0.3;" x="311.67747568" xlink:href="#m8296d5fd00" y="128.374207164"/>
     <use style="fill:#0000ff;stroke:#000000;stroke-width:0.3;" x="286.439941991" xlink:href="#m8296d5fd00" y="176.838360576"/>
     <use style="fill:#0000ff;stroke:#000000;stroke-width:0.3;" x="304.295883297" xlink:href="#m8296d5fd00" y="135.380899406"/>
     <use style="fill:#0000ff;stroke:#000000;stroke-width:0.3;" x="267.963451051" xlink:href="#m8296d5fd00" y="256.245536216"/>
     <use style="fill:#0000ff;stroke:#000000;stroke-width:0.3;" x="295.838270034" xlink:href="#m8296d5fd00" y="150.694582073"/>
     <use style="fill:#0000ff;stroke:#000000;stroke-width:0.3;" x="284.814970359" xlink:href="#m8296d5fd00" y="182.332809552"/>
     <use style="fill:#0000ff;stroke:#000000;stroke-width:0.3;" x="272.991853966" xlink:href="#m8296d5fd00" y="230.957065819"/>
     <use style="fill:#0000ff;stroke:#000000;stroke-width:0.3;" x="284.401920478" xlink:href="#m8296d5fd00" y="183.775220116"/>
     <use style="fill:#0000ff;stroke:#000000;stroke-width:0.3;" x="280.215364211" xlink:href="#m8296d5fd00" y="199.44236388"/>
     <use style="fill:#0000ff;stroke:#000000;stroke-width:0.3;" x="288.595792005" xlink:href="#m8296d5fd00" y="169.992166693"/>
     <use style="fill:#0000ff;stroke:#000000;stroke-width:0.3;" x="297.263591908" xlink:href="#m8296d5fd00" y="147.568715318"/>
     <use style="fill:#0000ff;stroke:#000000;stroke-width:0.3;" x="284.013089549" xlink:href="#m8296d5fd00" y="185.150012998"/>
     <use style="fill:#0000ff;stroke:#000000;stroke-width:0.3;" x="292.948708224" xlink:href="#m8296d5fd00" y="157.709755018"/>
     <use style="fill:#0000ff;stroke:#000000;stroke-width:0.3;" x="299.296223278" xlink:href="#m8296d5fd00" y="143.493224568"/>
     <use style="fill:#0000ff;stroke:#000000;stroke-width:0.3;" x="285.54774029" xlink:href="#m8296d5fd00" y="179.819568822"/>
     <use style="fill:#0000ff;stroke:#000000;stroke-width:0.3;" x="290.976557503" xlink:href="#m8296d5fd00" y="163.019123062"/>
     <use style="fill:#0000ff;stroke:#000000;stroke-width:0.3;" x="290.638911051" xlink:href="#m8296d5fd00" y="163.970540406"/>
     <use style="fill:#0000ff;stroke:#000000;stroke-width:0.3;" x="306.364542162" xlink:href="#m8296d5fd00" y="132.819569917"/>
     <use style="fill:#0000ff;stroke:#000000;stroke-width:0.3;" x="277.505823857" xlink:href="#m8296d5fd00" y="210.598355307"/>
     <use style="fill:#0000ff;stroke:#000000;stroke-width:0.3;" x="308.225468537" xlink:href="#m8296d5fd00" y="130.913151456"/>
     <use style="fill:#0000ff;stroke:#000000;stroke-width:0.3;" x="306.678555217" xlink:href="#m8296d5fd00" y="132.471462581"/>
     <use style="fill:#0000ff;stroke:#000000;stroke-width:0.3;" x="291.884847397" xlink:href="#m8296d5fd00" y="160.521298219"/>
     <use style="fill:#0000ff;stroke:#000000;stroke-width:0.3;" x="291.080120597" xlink:href="#m8296d5fd00" y="162.729788892"/>
     <use style="fill:#0000ff;stroke:#000000;stroke-width:0.3;" x="298.318060755" xlink:href="#m8296d5fd00" y="145.398375879"/>
     <use style="fill:#0000ff;stroke:#000000;stroke-width:0.3;" x="281.58965094" xlink:href="#m8296d5fd00" y="194.089244571"/>
     <use style="fill:#0000ff;stroke:#000000;stroke-width:0.3;" x="299.546231895" xlink:href="#m8296d5fd00" y="143.022986163"/>
     <use style="fill:#0000ff;stroke:#000000;stroke-width:0.3;" x="306.107400806" xlink:href="#m8296d5fd00" y="133.11261815"/>
     <use style="fill:#0000ff;stroke:#000000;stroke-width:0.3;" x="284.661028314" xlink:href="#m8296d5fd00" y="182.868220905"/>
     <use style="fill:#0000ff;stroke:#000000;stroke-width:0.3;" x="275.357317476" xlink:href="#m8296d5fd00" y="220.012055197"/>
     <use style="fill:#0000ff;stroke:#000000;stroke-width:0.3;" x="301.561129944" xlink:href="#m8296d5fd00" y="139.481379505"/>
     <use style="fill:#0000ff;stroke:#000000;stroke-width:0.3;" x="285.20880211" xlink:href="#m8296d5fd00" y="180.974793048"/>
     <use style="fill:#0000ff;stroke:#000000;stroke-width:0.3;" x="293.034896089" xlink:href="#m8296d5fd00" y="157.487370741"/>
     <use style="fill:#0000ff;stroke:#000000;stroke-width:0.3;" x="284.039351241" xlink:href="#m8296d5fd00" y="185.05664146"/>
     <use style="fill:#0000ff;stroke:#000000;stroke-width:0.3;" x="295.195229641" xlink:href="#m8296d5fd00" y="152.177166232"/>
     <use style="fill:#0000ff;stroke:#000000;stroke-width:0.3;" x="277.31082443" xlink:href="#m8296d5fd00" y="211.432029717"/>
     <use style="fill:#0000ff;stroke:#000000;stroke-width:0.3;" x="303.354399926" xlink:href="#m8296d5fd00" y="136.700735119"/>
     <use style="fill:#0000ff;stroke:#000000;stroke-width:0.3;" x="316.475201553" xlink:href="#m8296d5fd00" y="126.998075719"/>
     <use style="fill:#0000ff;stroke:#000000;stroke-width:0.3;" x="307.041227169" xlink:href="#m8296d5fd00" y="132.082760224"/>
     <use style="fill:#0000ff;stroke:#000000;stroke-width:0.3;" x="271.586396443" xlink:href="#m8296d5fd00" y="237.748361738"/>
     <use style="fill:#0000ff;stroke:#000000;stroke-width:0.3;" x="294.895188316" xlink:href="#m8296d5fd00" y="152.884326135"/>
     <use style="fill:#0000ff;stroke:#000000;stroke-width:0.3;" x="279.806568148" xlink:href="#m8296d5fd00" y="201.074348323"/>
     <use style="fill:#0000ff;stroke:#000000;stroke-width:0.3;" x="311.860097164" xlink:href="#m8296d5fd00" y="128.275988596"/>
     <use style="fill:#0000ff;stroke:#000000;stroke-width:0.3;" x="284.775158439" xlink:href="#m8296d5fd00" y="182.471028534"/>
     <use style="fill:#0000ff;stroke:#000000;stroke-width:0.3;" x="296.326301098" xlink:href="#m8296d5fd00" y="149.599405903"/>
     <use style="fill:#0000ff;stroke:#000000;stroke-width:0.3;" x="276.731071864" xlink:href="#m8296d5fd00" y="213.935054281"/>
     <use style="fill:#0000ff;stroke:#000000;stroke-width:0.3;" x="286.203466577" xlink:href="#m8296d5fd00" y="177.62008775"/>
     <use style="fill:#0000ff;stroke:#000000;stroke-width:0.3;" x="295.286651915" xlink:href="#m8296d5fd00" y="151.963641741"/>
     <use style="fill:#0000ff;stroke:#000000;stroke-width:0.3;" x="279.54929157" xlink:href="#m8296d5fd00" y="202.110760639"/>
     <use style="fill:#0000ff;stroke:#000000;stroke-width:0.3;" x="348.917623548" xlink:href="#m8296d5fd00" y="183.39935532"/>
     <use style="fill:#0000ff;stroke:#000000;stroke-width:0.3;" x="339.578582486" xlink:href="#m8296d5fd00" y="155.428936545"/>
     <use style="fill:#0000ff;stroke:#000000;stroke-width:0.3;" x="276.233684154" xlink:href="#m8296d5fd00" y="216.111614215"/>
     <use style="fill:#0000ff;stroke:#000000;stroke-width:0.3;" x="290.293857262" xlink:href="#m8296d5fd00" y="164.955641646"/>
     <use style="fill:#0000ff;stroke:#000000;stroke-width:0.3;" x="290.924996381" xlink:href="#m8296d5fd00" y="163.16360932"/>
     <use style="fill:#0000ff;stroke:#000000;stroke-width:0.3;" x="300.435897364" xlink:href="#m8296d5fd00" y="141.404767648"/>
     <use style="fill:#0000ff;stroke:#000000;stroke-width:0.3;" x="291.25424012" xlink:href="#m8296d5fd00" y="162.245963996"/>
     <use style="fill:#0000ff;stroke:#000000;stroke-width:0.3;" x="315.801980379" xlink:href="#m8296d5fd00" y="127.040162546"/>
     <use style="fill:#0000ff;stroke:#000000;stroke-width:0.3;" x="279.858026096" xlink:href="#m8296d5fd00" y="200.867919273"/>
     <use style="fill:#0000ff;stroke:#000000;stroke-width:0.3;" x="280.855092304" xlink:href="#m8296d5fd00" y="196.924939273"/>
     <use style="fill:#0000ff;stroke:#000000;stroke-width:0.3;" x="284.87626036" xlink:href="#m8296d5fd00" y="182.120359996"/>
     <use style="fill:#0000ff;stroke:#000000;stroke-width:0.3;" x="286.75867705" xlink:href="#m8296d5fd00" y="175.794328455"/>
     <use style="fill:#0000ff;stroke:#000000;stroke-width:0.3;" x="292.540796943" xlink:href="#m8296d5fd00" y="158.773220185"/>
     <use style="fill:#0000ff;stroke:#000000;stroke-width:0.3;" x="285.882431616" xlink:href="#m8296d5fd00" y="178.691081117"/>
     <use style="fill:#0000ff;stroke:#000000;stroke-width:0.3;" x="278.933773506" xlink:href="#m8296d5fd00" y="204.619529223"/>
     <use style="fill:#0000ff;stroke:#000000;stroke-width:0.3;" x="278.872686718" xlink:href="#m8296d5fd00" y="204.870758582"/>
     <use style="fill:#0000ff;stroke:#000000;stroke-width:0.3;" x="261.137063952" xlink:href="#m8296d5fd00" y="294.977484077"/>
     <use style="fill:#0000ff;stroke:#000000;stroke-width:0.3;" x="329.859926567" xlink:href="#m8296d5fd00" y="136.394641908"/>
     <use style="fill:#0000ff;stroke:#000000;stroke-width:0.3;" x="265.443548774" xlink:href="#m8296d5fd00" y="269.952912714"/>
     <use style="fill:#0000ff;stroke:#000000;stroke-width:0.3;" x="282.676531495" xlink:href="#m8296d5fd00" y="190.001110941"/>
     <use style="fill:#0000ff;stroke:#000000;stroke-width:0.3;" x="277.144209663" xlink:href="#m8296d5fd00" y="212.147628916"/>
     <use style="fill:#0000ff;stroke:#000000;stroke-width:0.3;" x="272.001745316" xlink:href="#m8296d5fd00" y="235.718993363"/>
     <use style="fill:#0000ff;stroke:#000000;stroke-width:0.3;" x="316.626005107" xlink:href="#m8296d5fd00" y="126.995406438"/>
    </g>
   </g>
   <g id="patch_3">
    <path d="M 81.827344 37.252344 
L 528.227344 37.252344 
" style="fill:none;stroke:#262626;stroke-linecap:square;stroke-linejoin:miter;stroke-width:1.25;"/>
   </g>
   <g id="patch_4">
    <path d="M 528.227344 372.052344 
L 528.227344 37.252344 
" style="fill:none;stroke:#262626;stroke-linecap:square;stroke-linejoin:miter;stroke-width:1.25;"/>
   </g>
   <g id="patch_5">
    <path d="M 81.827344 372.052344 
L 528.227344 372.052344 
" style="fill:none;stroke:#262626;stroke-linecap:square;stroke-linejoin:miter;stroke-width:1.25;"/>
   </g>
   <g id="patch_6">
    <path d="M 81.827344 372.052344 
L 81.827344 37.252344 
" style="fill:none;stroke:#262626;stroke-linecap:square;stroke-linejoin:miter;stroke-width:1.25;"/>
   </g>
   <g id="text_14">
    <!-- Asset Values -->
    <defs>
     <path d="M 6.390625 0 
L 6.390625 71.578125 
L 15.1875 71.578125 
L 15.1875 0 
z
" id="ArialMT-6c"/>
     <path d="M 40.578125 0 
L 40.578125 7.625 
Q 34.515625 -1.171875 24.125 -1.171875 
Q 19.53125 -1.171875 15.546875 0.578125 
Q 11.578125 2.34375 9.640625 5 
Q 7.71875 7.671875 6.9375 11.53125 
Q 6.390625 14.109375 6.390625 19.734375 
L 6.390625 51.859375 
L 15.1875 51.859375 
L 15.1875 23.09375 
Q 15.1875 16.21875 15.71875 13.8125 
Q 16.546875 10.359375 19.234375 8.375 
Q 21.921875 6.390625 25.875 6.390625 
Q 29.828125 6.390625 33.296875 8.421875 
Q 36.765625 10.453125 38.203125 13.9375 
Q 39.65625 17.4375 39.65625 24.078125 
L 39.65625 51.859375 
L 48.4375 51.859375 
L 48.4375 0 
z
" id="ArialMT-75"/>
     <path d="M 40.4375 6.390625 
Q 35.546875 2.25 31.03125 0.53125 
Q 26.515625 -1.171875 21.34375 -1.171875 
Q 12.796875 -1.171875 8.203125 3 
Q 3.609375 7.171875 3.609375 13.671875 
Q 3.609375 17.484375 5.34375 20.625 
Q 7.078125 23.78125 9.890625 25.6875 
Q 12.703125 27.59375 16.21875 28.5625 
Q 18.796875 29.25 24.03125 29.890625 
Q 34.671875 31.15625 39.703125 32.90625 
Q 39.75 34.71875 39.75 35.203125 
Q 39.75 40.578125 37.25 42.78125 
Q 33.890625 45.75 27.25 45.75 
Q 21.046875 45.75 18.09375 43.578125 
Q 15.140625 41.40625 13.71875 35.890625 
L 5.125 37.0625 
Q 6.296875 42.578125 8.984375 45.96875 
Q 11.671875 49.359375 16.75 51.1875 
Q 21.828125 53.03125 28.515625 53.03125 
Q 35.15625 53.03125 39.296875 51.46875 
Q 43.453125 49.90625 45.40625 47.53125 
Q 47.359375 45.171875 48.140625 41.546875 
Q 48.578125 39.3125 48.578125 33.453125 
L 48.578125 21.734375 
Q 48.578125 9.46875 49.140625 6.21875 
Q 49.703125 2.984375 51.375 0 
L 42.1875 0 
Q 40.828125 2.734375 40.4375 6.390625 
M 39.703125 26.03125 
Q 34.90625 24.078125 25.34375 22.703125 
Q 19.921875 21.921875 17.671875 20.9375 
Q 15.4375 19.96875 14.203125 18.09375 
Q 12.984375 16.21875 12.984375 13.921875 
Q 12.984375 10.40625 15.640625 8.0625 
Q 18.3125 5.71875 23.4375 5.71875 
Q 28.515625 5.71875 32.46875 7.9375 
Q 36.421875 10.15625 38.28125 14.015625 
Q 39.703125 17 39.703125 22.796875 
z
" id="ArialMT-61"/>
     <path d="M 28.171875 0 
L 0.4375 71.578125 
L 10.6875 71.578125 
L 29.296875 19.578125 
Q 31.546875 13.328125 33.0625 7.859375 
Q 34.71875 13.71875 36.921875 19.578125 
L 56.25 71.578125 
L 65.921875 71.578125 
L 37.890625 0 
z
" id="ArialMT-56"/>
    </defs>
    <g style="fill:#262626;" transform="translate(202.912109375 32.25234375)scale(0.35 -0.35)">
     <use xlink:href="#ArialMT-41"/>
     <use x="66.69921875" xlink:href="#ArialMT-73"/>
     <use x="116.69921875" xlink:href="#ArialMT-73"/>
     <use x="166.69921875" xlink:href="#ArialMT-65"/>
     <use x="222.314453125" xlink:href="#ArialMT-74"/>
     <use x="250.09765625" xlink:href="#ArialMT-20"/>
     <use x="277.880859375" xlink:href="#ArialMT-56"/>
     <use x="344.470703125" xlink:href="#ArialMT-61"/>
     <use x="400.0859375" xlink:href="#ArialMT-6c"/>
     <use x="422.302734375" xlink:href="#ArialMT-75"/>
     <use x="477.91796875" xlink:href="#ArialMT-65"/>
     <use x="533.533203125" xlink:href="#ArialMT-73"/>
    </g>
   </g>
  </g>
 </g>
 <defs>
  <clipPath id="pe8cb0d1827">
   <rect height="334.8" width="446.4" x="81.82734375" y="37.25234375"/>
  </clipPath>
 </defs>
</svg>
