<?xml version="1.0" encoding="utf-8" standalone="no"?>
<!DOCTYPE svg PUBLIC "-//W3C//DTD SVG 1.1//EN"
  "http://www.w3.org/Graphics/SVG/1.1/DTD/svg11.dtd">
<!-- Created with matplotlib (http://matplotlib.org/) -->
<svg height="438pt" version="1.1" viewBox="0 0 543 438" width="543pt" xmlns="http://www.w3.org/2000/svg" xmlns:xlink="http://www.w3.org/1999/xlink">
 <defs>
  <style type="text/css">
*{stroke-linecap:butt;stroke-linejoin:round;stroke-miterlimit:100000;}
  </style>
 </defs>
 <g id="figure_1">
  <g id="patch_1">
   <path d="M 0 438.40625 
L 543.76875 438.40625 
L 543.76875 0 
L 0 0 
z
" style="fill:#ffffff;"/>
  </g>
  <g id="axes_1">
   <g id="patch_2">
    <path d="M 90.16875 372.052344 
L 536.56875 372.052344 
L 536.56875 37.252344 
L 90.16875 37.252344 
z
" style="fill:#ffffff;"/>
   </g>
   <g id="matplotlib.axis_1">
    <g id="xtick_1">
     <g id="line2d_1">
      <defs>
       <path d="M 0 0 
L 0 6 
" id="mfdf0be0505" style="stroke:#262626;"/>
      </defs>
      <g>
       <use style="fill:#262626;stroke:#262626;" x="114.996517414" xlink:href="#mfdf0be0505" y="372.05234375"/>
      </g>
     </g>
     <g id="line2d_2">
      <defs>
       <path d="M 0 0 
L 0 -6 
" id="m0a5d5210cf" style="stroke:#262626;"/>
      </defs>
      <g>
       <use style="fill:#262626;stroke:#262626;" x="114.996517414" xlink:href="#m0a5d5210cf" y="37.25234375"/>
      </g>
     </g>
     <g id="text_1">
      <!-- −1 -->
      <defs>
       <path d="M 37.25 0 
L 28.46875 0 
L 28.46875 56 
Q 25.296875 52.984375 20.140625 49.953125 
Q 14.984375 46.921875 10.890625 45.40625 
L 10.890625 53.90625 
Q 18.265625 57.375 23.78125 62.296875 
Q 29.296875 67.234375 31.59375 71.875 
L 37.25 71.875 
z
" id="ArialMT-31"/>
       <path d="M 52.828125 31.203125 
L 5.5625 31.203125 
L 5.5625 39.40625 
L 52.828125 39.40625 
z
" id="ArialMT-2212"/>
      </defs>
      <g style="fill:#262626;" transform="translate(106.445345539 395.7890625)scale(0.15 -0.15)">
       <use xlink:href="#ArialMT-2212"/>
       <use x="58.3984375" xlink:href="#ArialMT-31"/>
      </g>
     </g>
    </g>
    <g id="xtick_2">
     <g id="line2d_3">
      <g>
       <use style="fill:#262626;stroke:#262626;" x="217.90265247" xlink:href="#mfdf0be0505" y="372.05234375"/>
      </g>
     </g>
     <g id="line2d_4">
      <g>
       <use style="fill:#262626;stroke:#262626;" x="217.90265247" xlink:href="#m0a5d5210cf" y="37.25234375"/>
      </g>
     </g>
     <g id="text_2">
      <!-- 0 -->
      <defs>
       <path d="M 4.15625 35.296875 
Q 4.15625 48 6.765625 55.734375 
Q 9.375 63.484375 14.515625 67.671875 
Q 19.671875 71.875 27.484375 71.875 
Q 33.25 71.875 37.59375 69.546875 
Q 41.9375 67.234375 44.765625 62.859375 
Q 47.609375 58.5 49.21875 52.21875 
Q 50.828125 45.953125 50.828125 35.296875 
Q 50.828125 22.703125 48.234375 14.96875 
Q 45.65625 7.234375 40.5 3 
Q 35.359375 -1.21875 27.484375 -1.21875 
Q 17.140625 -1.21875 11.234375 6.203125 
Q 4.15625 15.140625 4.15625 35.296875 
M 13.1875 35.296875 
Q 13.1875 17.671875 17.3125 11.828125 
Q 21.4375 6 27.484375 6 
Q 33.546875 6 37.671875 11.859375 
Q 41.796875 17.71875 41.796875 35.296875 
Q 41.796875 52.984375 37.671875 58.78125 
Q 33.546875 64.59375 27.390625 64.59375 
Q 21.34375 64.59375 17.71875 59.46875 
Q 13.1875 52.9375 13.1875 35.296875 
" id="ArialMT-30"/>
      </defs>
      <g style="fill:#262626;" transform="translate(213.731949345 395.7890625)scale(0.15 -0.15)">
       <use xlink:href="#ArialMT-30"/>
      </g>
     </g>
    </g>
    <g id="xtick_3">
     <g id="line2d_5">
      <g>
       <use style="fill:#262626;stroke:#262626;" x="320.808787525" xlink:href="#mfdf0be0505" y="372.05234375"/>
      </g>
     </g>
     <g id="line2d_6">
      <g>
       <use style="fill:#262626;stroke:#262626;" x="320.808787525" xlink:href="#m0a5d5210cf" y="37.25234375"/>
      </g>
     </g>
     <g id="text_3">
      <!-- 1 -->
      <g style="fill:#262626;" transform="translate(316.6380844 395.7890625)scale(0.15 -0.15)">
       <use xlink:href="#ArialMT-31"/>
      </g>
     </g>
    </g>
    <g id="xtick_4">
     <g id="line2d_7">
      <g>
       <use style="fill:#262626;stroke:#262626;" x="423.714922581" xlink:href="#mfdf0be0505" y="372.05234375"/>
      </g>
     </g>
     <g id="line2d_8">
      <g>
       <use style="fill:#262626;stroke:#262626;" x="423.714922581" xlink:href="#m0a5d5210cf" y="37.25234375"/>
      </g>
     </g>
     <g id="text_4">
      <!-- 2 -->
      <defs>
       <path d="M 50.34375 8.453125 
L 50.34375 0 
L 3.03125 0 
Q 2.9375 3.171875 4.046875 6.109375 
Q 5.859375 10.9375 9.828125 15.625 
Q 13.8125 20.3125 21.34375 26.46875 
Q 33.015625 36.03125 37.109375 41.625 
Q 41.21875 47.21875 41.21875 52.203125 
Q 41.21875 57.421875 37.46875 61 
Q 33.734375 64.59375 27.734375 64.59375 
Q 21.390625 64.59375 17.578125 60.78125 
Q 13.765625 56.984375 13.71875 50.25 
L 4.6875 51.171875 
Q 5.609375 61.28125 11.65625 66.578125 
Q 17.71875 71.875 27.9375 71.875 
Q 38.234375 71.875 44.234375 66.15625 
Q 50.25 60.453125 50.25 52 
Q 50.25 47.703125 48.484375 43.546875 
Q 46.734375 39.40625 42.65625 34.8125 
Q 38.578125 30.21875 29.109375 22.21875 
Q 21.1875 15.578125 18.9375 13.203125 
Q 16.703125 10.84375 15.234375 8.453125 
z
" id="ArialMT-32"/>
      </defs>
      <g style="fill:#262626;" transform="translate(419.544219456 395.7890625)scale(0.15 -0.15)">
       <use xlink:href="#ArialMT-32"/>
      </g>
     </g>
    </g>
    <g id="xtick_5">
     <g id="line2d_9">
      <g>
       <use style="fill:#262626;stroke:#262626;" x="526.621057637" xlink:href="#mfdf0be0505" y="372.05234375"/>
      </g>
     </g>
     <g id="line2d_10">
      <g>
       <use style="fill:#262626;stroke:#262626;" x="526.621057637" xlink:href="#m0a5d5210cf" y="37.25234375"/>
      </g>
     </g>
     <g id="text_5">
      <!-- 3 -->
      <defs>
       <path d="M 4.203125 18.890625 
L 12.984375 20.0625 
Q 14.5 12.59375 18.140625 9.296875 
Q 21.78125 6 27 6 
Q 33.203125 6 37.46875 10.296875 
Q 41.75 14.59375 41.75 20.953125 
Q 41.75 27 37.796875 30.921875 
Q 33.84375 34.859375 27.734375 34.859375 
Q 25.25 34.859375 21.53125 33.890625 
L 22.515625 41.609375 
Q 23.390625 41.5 23.921875 41.5 
Q 29.546875 41.5 34.03125 44.421875 
Q 38.53125 47.359375 38.53125 53.46875 
Q 38.53125 58.296875 35.25 61.46875 
Q 31.984375 64.65625 26.8125 64.65625 
Q 21.6875 64.65625 18.265625 61.421875 
Q 14.84375 58.203125 13.875 51.765625 
L 5.078125 53.328125 
Q 6.6875 62.15625 12.390625 67.015625 
Q 18.109375 71.875 26.609375 71.875 
Q 32.46875 71.875 37.390625 69.359375 
Q 42.328125 66.84375 44.9375 62.5 
Q 47.5625 58.15625 47.5625 53.265625 
Q 47.5625 48.640625 45.0625 44.828125 
Q 42.578125 41.015625 37.703125 38.765625 
Q 44.046875 37.3125 47.5625 32.6875 
Q 51.078125 28.078125 51.078125 21.140625 
Q 51.078125 11.765625 44.234375 5.25 
Q 37.40625 -1.265625 26.953125 -1.265625 
Q 17.53125 -1.265625 11.296875 4.34375 
Q 5.078125 9.96875 4.203125 18.890625 
" id="ArialMT-33"/>
      </defs>
      <g style="fill:#262626;" transform="translate(522.450354512 395.7890625)scale(0.15 -0.15)">
       <use xlink:href="#ArialMT-33"/>
      </g>
     </g>
    </g>
    <g id="text_6">
     <!-- Asset 2 -->
     <defs>
      <path d="M -0.140625 0 
L 27.34375 71.578125 
L 37.546875 71.578125 
L 66.84375 0 
L 56.0625 0 
L 47.703125 21.6875 
L 17.78125 21.6875 
L 9.90625 0 
z
M 20.515625 29.390625 
L 44.78125 29.390625 
L 37.3125 49.21875 
Q 33.890625 58.25 32.234375 64.0625 
Q 30.859375 57.171875 28.375 50.390625 
z
" id="ArialMT-41"/>
      <path d="M 25.78125 7.859375 
L 27.046875 0.09375 
Q 23.34375 -0.6875 20.40625 -0.6875 
Q 15.625 -0.6875 12.984375 0.828125 
Q 10.359375 2.34375 9.28125 4.8125 
Q 8.203125 7.28125 8.203125 15.1875 
L 8.203125 45.015625 
L 1.765625 45.015625 
L 1.765625 51.859375 
L 8.203125 51.859375 
L 8.203125 64.703125 
L 16.9375 69.96875 
L 16.9375 51.859375 
L 25.78125 51.859375 
L 25.78125 45.015625 
L 16.9375 45.015625 
L 16.9375 14.703125 
Q 16.9375 10.9375 17.40625 9.859375 
Q 17.875 8.796875 18.921875 8.15625 
Q 19.96875 7.515625 21.921875 7.515625 
Q 23.390625 7.515625 25.78125 7.859375 
" id="ArialMT-74"/>
      <path id="ArialMT-20"/>
      <path d="M 42.09375 16.703125 
L 51.171875 15.578125 
Q 49.03125 7.625 43.21875 3.21875 
Q 37.40625 -1.171875 28.375 -1.171875 
Q 17 -1.171875 10.328125 5.828125 
Q 3.65625 12.84375 3.65625 25.484375 
Q 3.65625 38.578125 10.390625 45.796875 
Q 17.140625 53.03125 27.875 53.03125 
Q 38.28125 53.03125 44.875 45.953125 
Q 51.46875 38.875 51.46875 26.03125 
Q 51.46875 25.25 51.421875 23.6875 
L 12.75 23.6875 
Q 13.234375 15.140625 17.578125 10.59375 
Q 21.921875 6.0625 28.421875 6.0625 
Q 33.25 6.0625 36.671875 8.59375 
Q 40.09375 11.140625 42.09375 16.703125 
M 13.234375 30.90625 
L 42.1875 30.90625 
Q 41.609375 37.453125 38.875 40.71875 
Q 34.671875 45.796875 27.984375 45.796875 
Q 21.921875 45.796875 17.796875 41.75 
Q 13.671875 37.703125 13.234375 30.90625 
" id="ArialMT-65"/>
      <path d="M 3.078125 15.484375 
L 11.765625 16.84375 
Q 12.5 11.625 15.84375 8.84375 
Q 19.1875 6.0625 25.203125 6.0625 
Q 31.25 6.0625 34.171875 8.515625 
Q 37.109375 10.984375 37.109375 14.3125 
Q 37.109375 17.28125 34.515625 19 
Q 32.71875 20.171875 25.53125 21.96875 
Q 15.875 24.421875 12.140625 26.203125 
Q 8.40625 27.984375 6.46875 31.125 
Q 4.546875 34.28125 4.546875 38.09375 
Q 4.546875 41.546875 6.125 44.5 
Q 7.71875 47.46875 10.453125 49.421875 
Q 12.5 50.921875 16.03125 51.96875 
Q 19.578125 53.03125 23.640625 53.03125 
Q 29.734375 53.03125 34.34375 51.265625 
Q 38.96875 49.515625 41.15625 46.5 
Q 43.359375 43.5 44.1875 38.484375 
L 35.59375 37.3125 
Q 35.015625 41.3125 32.203125 43.546875 
Q 29.390625 45.796875 24.265625 45.796875 
Q 18.21875 45.796875 15.625 43.796875 
Q 13.03125 41.796875 13.03125 39.109375 
Q 13.03125 37.40625 14.109375 36.03125 
Q 15.1875 34.625 17.484375 33.6875 
Q 18.796875 33.203125 25.25 31.453125 
Q 34.578125 28.953125 38.25 27.359375 
Q 41.9375 25.78125 44.03125 22.75 
Q 46.140625 19.734375 46.140625 15.234375 
Q 46.140625 10.84375 43.578125 6.953125 
Q 41.015625 3.078125 36.171875 0.953125 
Q 31.34375 -1.171875 25.25 -1.171875 
Q 15.140625 -1.171875 9.84375 3.03125 
Q 4.546875 7.234375 3.078125 15.484375 
" id="ArialMT-73"/>
     </defs>
     <g style="fill:#262626;" transform="translate(263.34609375 425.24375)scale(0.3 -0.3)">
      <use xlink:href="#ArialMT-41"/>
      <use x="66.69921875" xlink:href="#ArialMT-73"/>
      <use x="116.69921875" xlink:href="#ArialMT-73"/>
      <use x="166.69921875" xlink:href="#ArialMT-65"/>
      <use x="222.314453125" xlink:href="#ArialMT-74"/>
      <use x="250.09765625" xlink:href="#ArialMT-20"/>
      <use x="277.880859375" xlink:href="#ArialMT-32"/>
     </g>
    </g>
   </g>
   <g id="matplotlib.axis_2">
    <g id="ytick_1">
     <g id="line2d_11">
      <defs>
       <path d="M 0 0 
L -6 0 
" id="m36d55829d1" style="stroke:#262626;"/>
      </defs>
      <g>
       <use style="fill:#262626;stroke:#262626;" x="90.16875" xlink:href="#m36d55829d1" y="372.05234375"/>
      </g>
     </g>
     <g id="line2d_12">
      <defs>
       <path d="M 0 0 
L 6 0 
" id="m3f1da97ebc" style="stroke:#262626;"/>
      </defs>
      <g>
       <use style="fill:#262626;stroke:#262626;" x="536.56875" xlink:href="#m3f1da97ebc" y="372.05234375"/>
      </g>
     </g>
     <g id="text_7">
      <!-- 19.85 -->
      <defs>
       <path d="M 17.671875 38.8125 
Q 12.203125 40.828125 9.5625 44.53125 
Q 6.9375 48.25 6.9375 53.421875 
Q 6.9375 61.234375 12.546875 66.546875 
Q 18.171875 71.875 27.484375 71.875 
Q 36.859375 71.875 42.578125 66.421875 
Q 48.296875 60.984375 48.296875 53.171875 
Q 48.296875 48.1875 45.671875 44.5 
Q 43.0625 40.828125 37.75 38.8125 
Q 44.34375 36.671875 47.78125 31.875 
Q 51.21875 27.09375 51.21875 20.453125 
Q 51.21875 11.28125 44.71875 5.03125 
Q 38.234375 -1.21875 27.640625 -1.21875 
Q 17.046875 -1.21875 10.546875 5.046875 
Q 4.046875 11.328125 4.046875 20.703125 
Q 4.046875 27.6875 7.59375 32.390625 
Q 11.140625 37.109375 17.671875 38.8125 
M 15.921875 53.71875 
Q 15.921875 48.640625 19.1875 45.40625 
Q 22.46875 42.1875 27.6875 42.1875 
Q 32.765625 42.1875 36.015625 45.375 
Q 39.265625 48.578125 39.265625 53.21875 
Q 39.265625 58.0625 35.90625 61.359375 
Q 32.5625 64.65625 27.59375 64.65625 
Q 22.5625 64.65625 19.234375 61.421875 
Q 15.921875 58.203125 15.921875 53.71875 
M 13.09375 20.65625 
Q 13.09375 16.890625 14.875 13.375 
Q 16.65625 9.859375 20.171875 7.921875 
Q 23.6875 6 27.734375 6 
Q 34.03125 6 38.125 10.046875 
Q 42.234375 14.109375 42.234375 20.359375 
Q 42.234375 26.703125 38.015625 30.859375 
Q 33.796875 35.015625 27.4375 35.015625 
Q 21.234375 35.015625 17.15625 30.90625 
Q 13.09375 26.8125 13.09375 20.65625 
" id="ArialMT-38"/>
       <path d="M 5.46875 16.546875 
L 13.921875 17.328125 
Q 14.984375 11.375 18.015625 8.6875 
Q 21.046875 6 25.78125 6 
Q 29.828125 6 32.875 7.859375 
Q 35.9375 9.71875 37.890625 12.8125 
Q 39.84375 15.921875 41.15625 21.1875 
Q 42.484375 26.46875 42.484375 31.9375 
Q 42.484375 32.515625 42.4375 33.6875 
Q 39.796875 29.5 35.234375 26.875 
Q 30.671875 24.265625 25.34375 24.265625 
Q 16.453125 24.265625 10.296875 30.703125 
Q 4.15625 37.15625 4.15625 47.703125 
Q 4.15625 58.59375 10.578125 65.234375 
Q 17 71.875 26.65625 71.875 
Q 33.640625 71.875 39.421875 68.109375 
Q 45.21875 64.359375 48.21875 57.390625 
Q 51.21875 50.4375 51.21875 37.25 
Q 51.21875 23.53125 48.234375 15.40625 
Q 45.265625 7.28125 39.375 3.03125 
Q 33.5 -1.21875 25.59375 -1.21875 
Q 17.1875 -1.21875 11.859375 3.4375 
Q 6.546875 8.109375 5.46875 16.546875 
M 41.453125 48.140625 
Q 41.453125 55.71875 37.421875 60.15625 
Q 33.40625 64.59375 27.734375 64.59375 
Q 21.875 64.59375 17.53125 59.8125 
Q 13.1875 55.03125 13.1875 47.40625 
Q 13.1875 40.578125 17.3125 36.296875 
Q 21.4375 32.03125 27.484375 32.03125 
Q 33.59375 32.03125 37.515625 36.296875 
Q 41.453125 40.578125 41.453125 48.140625 
" id="ArialMT-39"/>
       <path d="M 9.078125 0 
L 9.078125 10.015625 
L 19.09375 10.015625 
L 19.09375 0 
z
" id="ArialMT-2e"/>
       <path d="M 4.15625 18.75 
L 13.375 19.53125 
Q 14.40625 12.796875 18.140625 9.390625 
Q 21.875 6 27.15625 6 
Q 33.5 6 37.890625 10.78125 
Q 42.28125 15.578125 42.28125 23.484375 
Q 42.28125 31 38.0625 35.34375 
Q 33.84375 39.703125 27 39.703125 
Q 22.75 39.703125 19.328125 37.765625 
Q 15.921875 35.84375 13.96875 32.765625 
L 5.71875 33.84375 
L 12.640625 70.609375 
L 48.25 70.609375 
L 48.25 62.203125 
L 19.671875 62.203125 
L 15.828125 42.96875 
Q 22.265625 47.46875 29.34375 47.46875 
Q 38.71875 47.46875 45.15625 40.96875 
Q 51.609375 34.46875 51.609375 24.265625 
Q 51.609375 14.546875 45.953125 7.46875 
Q 39.0625 -1.21875 27.15625 -1.21875 
Q 17.390625 -1.21875 11.203125 4.25 
Q 5.03125 9.71875 4.15625 18.75 
" id="ArialMT-35"/>
      </defs>
      <g style="fill:#262626;" transform="translate(39.6359375 375.930078125)scale(0.15 -0.15)">
       <use xlink:href="#ArialMT-31"/>
       <use x="55.615234375" xlink:href="#ArialMT-39"/>
       <use x="111.23046875" xlink:href="#ArialMT-2e"/>
       <use x="139.013671875" xlink:href="#ArialMT-38"/>
       <use x="194.62890625" xlink:href="#ArialMT-35"/>
      </g>
     </g>
    </g>
    <g id="ytick_2">
     <g id="line2d_13">
      <g>
       <use style="fill:#262626;stroke:#262626;" x="90.16875" xlink:href="#m36d55829d1" y="324.223772321"/>
      </g>
     </g>
     <g id="line2d_14">
      <g>
       <use style="fill:#262626;stroke:#262626;" x="536.56875" xlink:href="#m3f1da97ebc" y="324.223772321"/>
      </g>
     </g>
     <g id="text_8">
      <!-- 19.90 -->
      <g style="fill:#262626;" transform="translate(39.6359375 328.101506696)scale(0.15 -0.15)">
       <use xlink:href="#ArialMT-31"/>
       <use x="55.615234375" xlink:href="#ArialMT-39"/>
       <use x="111.23046875" xlink:href="#ArialMT-2e"/>
       <use x="139.013671875" xlink:href="#ArialMT-39"/>
       <use x="194.62890625" xlink:href="#ArialMT-30"/>
      </g>
     </g>
    </g>
    <g id="ytick_3">
     <g id="line2d_15">
      <g>
       <use style="fill:#262626;stroke:#262626;" x="90.16875" xlink:href="#m36d55829d1" y="276.395200893"/>
      </g>
     </g>
     <g id="line2d_16">
      <g>
       <use style="fill:#262626;stroke:#262626;" x="536.56875" xlink:href="#m3f1da97ebc" y="276.395200893"/>
      </g>
     </g>
     <g id="text_9">
      <!-- 19.95 -->
      <g style="fill:#262626;" transform="translate(39.6359375 280.272935268)scale(0.15 -0.15)">
       <use xlink:href="#ArialMT-31"/>
       <use x="55.615234375" xlink:href="#ArialMT-39"/>
       <use x="111.23046875" xlink:href="#ArialMT-2e"/>
       <use x="139.013671875" xlink:href="#ArialMT-39"/>
       <use x="194.62890625" xlink:href="#ArialMT-35"/>
      </g>
     </g>
    </g>
    <g id="ytick_4">
     <g id="line2d_17">
      <g>
       <use style="fill:#262626;stroke:#262626;" x="90.16875" xlink:href="#m36d55829d1" y="228.566629464"/>
      </g>
     </g>
     <g id="line2d_18">
      <g>
       <use style="fill:#262626;stroke:#262626;" x="536.56875" xlink:href="#m3f1da97ebc" y="228.566629464"/>
      </g>
     </g>
     <g id="text_10">
      <!-- 20.00 -->
      <g style="fill:#262626;" transform="translate(39.6359375 232.444363839)scale(0.15 -0.15)">
       <use xlink:href="#ArialMT-32"/>
       <use x="55.615234375" xlink:href="#ArialMT-30"/>
       <use x="111.23046875" xlink:href="#ArialMT-2e"/>
       <use x="139.013671875" xlink:href="#ArialMT-30"/>
       <use x="194.62890625" xlink:href="#ArialMT-30"/>
      </g>
     </g>
    </g>
    <g id="ytick_5">
     <g id="line2d_19">
      <g>
       <use style="fill:#262626;stroke:#262626;" x="90.16875" xlink:href="#m36d55829d1" y="180.738058036"/>
      </g>
     </g>
     <g id="line2d_20">
      <g>
       <use style="fill:#262626;stroke:#262626;" x="536.56875" xlink:href="#m3f1da97ebc" y="180.738058036"/>
      </g>
     </g>
     <g id="text_11">
      <!-- 20.05 -->
      <g style="fill:#262626;" transform="translate(39.6359375 184.615792411)scale(0.15 -0.15)">
       <use xlink:href="#ArialMT-32"/>
       <use x="55.615234375" xlink:href="#ArialMT-30"/>
       <use x="111.23046875" xlink:href="#ArialMT-2e"/>
       <use x="139.013671875" xlink:href="#ArialMT-30"/>
       <use x="194.62890625" xlink:href="#ArialMT-35"/>
      </g>
     </g>
    </g>
    <g id="ytick_6">
     <g id="line2d_21">
      <g>
       <use style="fill:#262626;stroke:#262626;" x="90.16875" xlink:href="#m36d55829d1" y="132.909486607"/>
      </g>
     </g>
     <g id="line2d_22">
      <g>
       <use style="fill:#262626;stroke:#262626;" x="536.56875" xlink:href="#m3f1da97ebc" y="132.909486607"/>
      </g>
     </g>
     <g id="text_12">
      <!-- 20.10 -->
      <g style="fill:#262626;" transform="translate(39.6359375 136.787220982)scale(0.15 -0.15)">
       <use xlink:href="#ArialMT-32"/>
       <use x="55.615234375" xlink:href="#ArialMT-30"/>
       <use x="111.23046875" xlink:href="#ArialMT-2e"/>
       <use x="139.013671875" xlink:href="#ArialMT-31"/>
       <use x="194.62890625" xlink:href="#ArialMT-30"/>
      </g>
     </g>
    </g>
    <g id="ytick_7">
     <g id="line2d_23">
      <g>
       <use style="fill:#262626;stroke:#262626;" x="90.16875" xlink:href="#m36d55829d1" y="85.0809151786"/>
      </g>
     </g>
     <g id="line2d_24">
      <g>
       <use style="fill:#262626;stroke:#262626;" x="536.56875" xlink:href="#m3f1da97ebc" y="85.0809151786"/>
      </g>
     </g>
     <g id="text_13">
      <!-- 20.15 -->
      <g style="fill:#262626;" transform="translate(39.6359375 88.9586495536)scale(0.15 -0.15)">
       <use xlink:href="#ArialMT-32"/>
       <use x="55.615234375" xlink:href="#ArialMT-30"/>
       <use x="111.23046875" xlink:href="#ArialMT-2e"/>
       <use x="139.013671875" xlink:href="#ArialMT-31"/>
       <use x="194.62890625" xlink:href="#ArialMT-35"/>
      </g>
     </g>
    </g>
    <g id="ytick_8">
     <g id="line2d_25">
      <g>
       <use style="fill:#262626;stroke:#262626;" x="90.16875" xlink:href="#m36d55829d1" y="37.25234375"/>
      </g>
     </g>
     <g id="line2d_26">
      <g>
       <use style="fill:#262626;stroke:#262626;" x="536.56875" xlink:href="#m3f1da97ebc" y="37.25234375"/>
      </g>
     </g>
     <g id="text_14">
      <!-- 20.20 -->
      <g style="fill:#262626;" transform="translate(39.6359375 41.130078125)scale(0.15 -0.15)">
       <use xlink:href="#ArialMT-32"/>
       <use x="55.615234375" xlink:href="#ArialMT-30"/>
       <use x="111.23046875" xlink:href="#ArialMT-2e"/>
       <use x="139.013671875" xlink:href="#ArialMT-32"/>
       <use x="194.62890625" xlink:href="#ArialMT-30"/>
      </g>
     </g>
    </g>
    <g id="text_15">
     <!-- Asset 1 -->
     <g style="fill:#262626;" transform="translate(28.6734375 254.675)rotate(-90.0)scale(0.3 -0.3)">
      <use xlink:href="#ArialMT-41"/>
      <use x="66.69921875" xlink:href="#ArialMT-73"/>
      <use x="116.69921875" xlink:href="#ArialMT-73"/>
      <use x="166.69921875" xlink:href="#ArialMT-65"/>
      <use x="222.314453125" xlink:href="#ArialMT-74"/>
      <use x="250.09765625" xlink:href="#ArialMT-20"/>
      <use x="277.880859375" xlink:href="#ArialMT-31"/>
     </g>
    </g>
   </g>
   <g id="PathCollection_1">
    <defs>
     <path d="M 0 5 
C 1.326016 5 2.597899 4.473168 3.535534 3.535534 
C 4.473168 2.597899 5 1.326016 5 0 
C 5 -1.326016 4.473168 -2.597899 3.535534 -3.535534 
C 2.597899 -4.473168 1.326016 -5 0 -5 
C -1.326016 -5 -2.597899 -4.473168 -3.535534 -3.535534 
C -4.473168 -2.597899 -5 -1.326016 -5 0 
C -5 1.326016 -4.473168 2.597899 -3.535534 3.535534 
C -2.597899 4.473168 -1.326016 5 0 5 
z
" id="m1c313a18f6" style="stroke:#000000;stroke-width:0.3;"/>
    </defs>
    <g clip-path="url(#p8b356f3400)">
     <use style="fill:#0000ff;stroke:#000000;stroke-width:0.3;" x="212.038802654" xlink:href="#m1c313a18f6" y="211.22376065"/>
     <use style="fill:#0000ff;stroke:#000000;stroke-width:0.3;" x="229.417978829" xlink:href="#m1c313a18f6" y="232.552784989"/>
     <use style="fill:#0000ff;stroke:#000000;stroke-width:0.3;" x="340.798484159" xlink:href="#m1c313a18f6" y="69.3885125154"/>
     <use style="fill:#0000ff;stroke:#000000;stroke-width:0.3;" x="255.166361153" xlink:href="#m1c313a18f6" y="209.707254862"/>
     <use style="fill:#0000ff;stroke:#000000;stroke-width:0.3;" x="205.012948808" xlink:href="#m1c313a18f6" y="235.007613806"/>
     <use style="fill:#0000ff;stroke:#000000;stroke-width:0.3;" x="223.457167554" xlink:href="#m1c313a18f6" y="184.747875548"/>
     <use style="fill:#0000ff;stroke:#000000;stroke-width:0.3;" x="193.074885056" xlink:href="#m1c313a18f6" y="239.93067089"/>
     <use style="fill:#0000ff;stroke:#000000;stroke-width:0.3;" x="274.096873679" xlink:href="#m1c313a18f6" y="201.443113337"/>
     <use style="fill:#0000ff;stroke:#000000;stroke-width:0.3;" x="242.133817908" xlink:href="#m1c313a18f6" y="183.535418761"/>
     <use style="fill:#0000ff;stroke:#000000;stroke-width:0.3;" x="281.575946238" xlink:href="#m1c313a18f6" y="185.701744401"/>
     <use style="fill:#0000ff;stroke:#000000;stroke-width:0.3;" x="256.03961078" xlink:href="#m1c313a18f6" y="253.848904176"/>
     <use style="fill:#0000ff;stroke:#000000;stroke-width:0.3;" x="433.662614944" xlink:href="#m1c313a18f6" y="76.4701117566"/>
     <use style="fill:#0000ff;stroke:#000000;stroke-width:0.3;" x="251.091867022" xlink:href="#m1c313a18f6" y="205.536560842"/>
     <use style="fill:#0000ff;stroke:#000000;stroke-width:0.3;" x="233.828570857" xlink:href="#m1c313a18f6" y="234.697794182"/>
     <use style="fill:#0000ff;stroke:#000000;stroke-width:0.3;" x="306.357302402" xlink:href="#m1c313a18f6" y="164.269733189"/>
     <use style="fill:#0000ff;stroke:#000000;stroke-width:0.3;" x="264.12567653" xlink:href="#m1c313a18f6" y="197.293866363"/>
     <use style="fill:#0000ff;stroke:#000000;stroke-width:0.3;" x="299.781979465" xlink:href="#m1c313a18f6" y="137.637831358"/>
     <use style="fill:#0000ff;stroke:#000000;stroke-width:0.3;" x="282.722137868" xlink:href="#m1c313a18f6" y="165.168006512"/>
     <use style="fill:#0000ff;stroke:#000000;stroke-width:0.3;" x="222.281903626" xlink:href="#m1c313a18f6" y="220.933289355"/>
     <use style="fill:#0000ff;stroke:#000000;stroke-width:0.3;" x="237.437483902" xlink:href="#m1c313a18f6" y="199.838408462"/>
     <use style="fill:#0000ff;stroke:#000000;stroke-width:0.3;" x="279.500541287" xlink:href="#m1c313a18f6" y="157.643152758"/>
     <use style="fill:#0000ff;stroke:#000000;stroke-width:0.3;" x="273.024579275" xlink:href="#m1c313a18f6" y="173.799198465"/>
     <use style="fill:#0000ff;stroke:#000000;stroke-width:0.3;" x="243.990327925" xlink:href="#m1c313a18f6" y="191.203935268"/>
     <use style="fill:#0000ff;stroke:#000000;stroke-width:0.3;" x="251.986158785" xlink:href="#m1c313a18f6" y="179.609147579"/>
     <use style="fill:#0000ff;stroke:#000000;stroke-width:0.3;" x="258.013165547" xlink:href="#m1c313a18f6" y="281.414595434"/>
     <use style="fill:#0000ff;stroke:#000000;stroke-width:0.3;" x="280.733539272" xlink:href="#m1c313a18f6" y="152.273773335"/>
     <use style="fill:#0000ff;stroke:#000000;stroke-width:0.3;" x="387.341114874" xlink:href="#m1c313a18f6" y="90.9911991549"/>
     <use style="fill:#0000ff;stroke:#000000;stroke-width:0.3;" x="269.108384565" xlink:href="#m1c313a18f6" y="177.128965059"/>
     <use style="fill:#0000ff;stroke:#000000;stroke-width:0.3;" x="245.522729997" xlink:href="#m1c313a18f6" y="231.732748475"/>
     <use style="fill:#0000ff;stroke:#000000;stroke-width:0.3;" x="269.636721728" xlink:href="#m1c313a18f6" y="158.097547721"/>
     <use style="fill:#0000ff;stroke:#000000;stroke-width:0.3;" x="252.16476147" xlink:href="#m1c313a18f6" y="140.599666451"/>
     <use style="fill:#0000ff;stroke:#000000;stroke-width:0.3;" x="250.783702141" xlink:href="#m1c313a18f6" y="180.660125386"/>
     <use style="fill:#0000ff;stroke:#000000;stroke-width:0.3;" x="304.015833386" xlink:href="#m1c313a18f6" y="169.78846696"/>
     <use style="fill:#0000ff;stroke:#000000;stroke-width:0.3;" x="232.111323092" xlink:href="#m1c313a18f6" y="244.328572323"/>
     <use style="fill:#0000ff;stroke:#000000;stroke-width:0.3;" x="271.164920318" xlink:href="#m1c313a18f6" y="169.050060445"/>
     <use style="fill:#0000ff;stroke:#000000;stroke-width:0.3;" x="310.978477266" xlink:href="#m1c313a18f6" y="159.298341471"/>
     <use style="fill:#0000ff;stroke:#000000;stroke-width:0.3;" x="203.00640903" xlink:href="#m1c313a18f6" y="282.125876785"/>
     <use style="fill:#0000ff;stroke:#000000;stroke-width:0.3;" x="359.942828068" xlink:href="#m1c313a18f6" y="80.6186936681"/>
     <use style="fill:#0000ff;stroke:#000000;stroke-width:0.3;" x="208.581643208" xlink:href="#m1c313a18f6" y="196.665380218"/>
     <use style="fill:#0000ff;stroke:#000000;stroke-width:0.3;" x="224.235840219" xlink:href="#m1c313a18f6" y="160.721462078"/>
     <use style="fill:#0000ff;stroke:#000000;stroke-width:0.3;" x="264.885911783" xlink:href="#m1c313a18f6" y="237.863981426"/>
     <use style="fill:#0000ff;stroke:#000000;stroke-width:0.3;" x="248.089709069" xlink:href="#m1c313a18f6" y="178.357161674"/>
     <use style="fill:#0000ff;stroke:#000000;stroke-width:0.3;" x="283.592893726" xlink:href="#m1c313a18f6" y="190.301080629"/>
     <use style="fill:#0000ff;stroke:#000000;stroke-width:0.3;" x="292.822797853" xlink:href="#m1c313a18f6" y="98.4901416342"/>
     <use style="fill:#0000ff;stroke:#000000;stroke-width:0.3;" x="233.709665811" xlink:href="#m1c313a18f6" y="277.248426004"/>
     <use style="fill:#0000ff;stroke:#000000;stroke-width:0.3;" x="255.203530684" xlink:href="#m1c313a18f6" y="232.116554711"/>
     <use style="fill:#0000ff;stroke:#000000;stroke-width:0.3;" x="245.170537903" xlink:href="#m1c313a18f6" y="191.846890404"/>
     <use style="fill:#0000ff;stroke:#000000;stroke-width:0.3;" x="250.999068212" xlink:href="#m1c313a18f6" y="185.462736978"/>
     <use style="fill:#0000ff;stroke:#000000;stroke-width:0.3;" x="233.281571413" xlink:href="#m1c313a18f6" y="203.900359706"/>
     <use style="fill:#0000ff;stroke:#000000;stroke-width:0.3;" x="231.984406915" xlink:href="#m1c313a18f6" y="171.789222227"/>
     <use style="fill:#0000ff;stroke:#000000;stroke-width:0.3;" x="291.010927288" xlink:href="#m1c313a18f6" y="124.105365478"/>
     <use style="fill:#0000ff;stroke:#000000;stroke-width:0.3;" x="254.851046513" xlink:href="#m1c313a18f6" y="151.380785026"/>
     <use style="fill:#0000ff;stroke:#000000;stroke-width:0.3;" x="301.534057972" xlink:href="#m1c313a18f6" y="140.155950401"/>
     <use style="fill:#0000ff;stroke:#000000;stroke-width:0.3;" x="236.495633205" xlink:href="#m1c313a18f6" y="265.081890884"/>
     <use style="fill:#0000ff;stroke:#000000;stroke-width:0.3;" x="224.582920977" xlink:href="#m1c313a18f6" y="267.549392989"/>
     <use style="fill:#0000ff;stroke:#000000;stroke-width:0.3;" x="222.95558934" xlink:href="#m1c313a18f6" y="226.597561092"/>
     <use style="fill:#0000ff;stroke:#000000;stroke-width:0.3;" x="268.924906611" xlink:href="#m1c313a18f6" y="104.168386239"/>
     <use style="fill:#0000ff;stroke:#000000;stroke-width:0.3;" x="241.625712259" xlink:href="#m1c313a18f6" y="184.167552349"/>
     <use style="fill:#0000ff;stroke:#000000;stroke-width:0.3;" x="227.523946256" xlink:href="#m1c313a18f6" y="242.084788019"/>
     <use style="fill:#0000ff;stroke:#000000;stroke-width:0.3;" x="209.968042158" xlink:href="#m1c313a18f6" y="305.263945045"/>
     <use style="fill:#0000ff;stroke:#000000;stroke-width:0.3;" x="268.844850698" xlink:href="#m1c313a18f6" y="150.244806589"/>
     <use style="fill:#0000ff;stroke:#000000;stroke-width:0.3;" x="276.509148771" xlink:href="#m1c313a18f6" y="156.201785938"/>
     <use style="fill:#0000ff;stroke:#000000;stroke-width:0.3;" x="303.138891506" xlink:href="#m1c313a18f6" y="134.962003054"/>
     <use style="fill:#0000ff;stroke:#000000;stroke-width:0.3;" x="301.137912455" xlink:href="#m1c313a18f6" y="120.322281612"/>
     <use style="fill:#0000ff;stroke:#000000;stroke-width:0.3;" x="245.624796904" xlink:href="#m1c313a18f6" y="202.657097413"/>
     <use style="fill:#0000ff;stroke:#000000;stroke-width:0.3;" x="282.51508253" xlink:href="#m1c313a18f6" y="150.494248243"/>
     <use style="fill:#0000ff;stroke:#000000;stroke-width:0.3;" x="218.795344746" xlink:href="#m1c313a18f6" y="226.991357025"/>
     <use style="fill:#0000ff;stroke:#000000;stroke-width:0.3;" x="215.919026922" xlink:href="#m1c313a18f6" y="203.386565238"/>
     <use style="fill:#0000ff;stroke:#000000;stroke-width:0.3;" x="320.846324145" xlink:href="#m1c313a18f6" y="156.037719351"/>
     <use style="fill:#0000ff;stroke:#000000;stroke-width:0.3;" x="244.994777633" xlink:href="#m1c313a18f6" y="236.512308241"/>
     <use style="fill:#0000ff;stroke:#000000;stroke-width:0.3;" x="210.10606772" xlink:href="#m1c313a18f6" y="201.019763055"/>
     <use style="fill:#0000ff;stroke:#000000;stroke-width:0.3;" x="212.201749034" xlink:href="#m1c313a18f6" y="288.736715924"/>
     <use style="fill:#0000ff;stroke:#000000;stroke-width:0.3;" x="216.970711388" xlink:href="#m1c313a18f6" y="262.153542205"/>
     <use style="fill:#0000ff;stroke:#000000;stroke-width:0.3;" x="249.416104431" xlink:href="#m1c313a18f6" y="178.954717551"/>
     <use style="fill:#0000ff;stroke:#000000;stroke-width:0.3;" x="270.769619495" xlink:href="#m1c313a18f6" y="176.875688194"/>
     <use style="fill:#0000ff;stroke:#000000;stroke-width:0.3;" x="230.438053734" xlink:href="#m1c313a18f6" y="180.460776053"/>
     <use style="fill:#0000ff;stroke:#000000;stroke-width:0.3;" x="326.336258507" xlink:href="#m1c313a18f6" y="152.034067789"/>
     <use style="fill:#0000ff;stroke:#000000;stroke-width:0.3;" x="252.788699645" xlink:href="#m1c313a18f6" y="165.583600028"/>
     <use style="fill:#0000ff;stroke:#000000;stroke-width:0.3;" x="262.358814126" xlink:href="#m1c313a18f6" y="255.718519516"/>
     <use style="fill:#0000ff;stroke:#000000;stroke-width:0.3;" x="341.862731903" xlink:href="#m1c313a18f6" y="79.5476026856"/>
     <use style="fill:#0000ff;stroke:#000000;stroke-width:0.3;" x="231.601203213" xlink:href="#m1c313a18f6" y="232.379867361"/>
     <use style="fill:#0000ff;stroke:#000000;stroke-width:0.3;" x="336.584916665" xlink:href="#m1c313a18f6" y="128.623410381"/>
    </g>
   </g>
   <g id="patch_3">
    <path d="M 90.16875 37.252344 
L 536.56875 37.252344 
" style="fill:none;stroke:#262626;stroke-linecap:square;stroke-linejoin:miter;stroke-width:1.25;"/>
   </g>
   <g id="patch_4">
    <path d="M 536.56875 372.052344 
L 536.56875 37.252344 
" style="fill:none;stroke:#262626;stroke-linecap:square;stroke-linejoin:miter;stroke-width:1.25;"/>
   </g>
   <g id="patch_5">
    <path d="M 90.16875 372.052344 
L 536.56875 372.052344 
" style="fill:none;stroke:#262626;stroke-linecap:square;stroke-linejoin:miter;stroke-width:1.25;"/>
   </g>
   <g id="patch_6">
    <path d="M 90.16875 372.052344 
L 90.16875 37.252344 
" style="fill:none;stroke:#262626;stroke-linecap:square;stroke-linejoin:miter;stroke-width:1.25;"/>
   </g>
   <g id="text_16">
    <!-- Asset Values -->
    <defs>
     <path d="M 6.390625 0 
L 6.390625 71.578125 
L 15.1875 71.578125 
L 15.1875 0 
z
" id="ArialMT-6c"/>
     <path d="M 40.578125 0 
L 40.578125 7.625 
Q 34.515625 -1.171875 24.125 -1.171875 
Q 19.53125 -1.171875 15.546875 0.578125 
Q 11.578125 2.34375 9.640625 5 
Q 7.71875 7.671875 6.9375 11.53125 
Q 6.390625 14.109375 6.390625 19.734375 
L 6.390625 51.859375 
L 15.1875 51.859375 
L 15.1875 23.09375 
Q 15.1875 16.21875 15.71875 13.8125 
Q 16.546875 10.359375 19.234375 8.375 
Q 21.921875 6.390625 25.875 6.390625 
Q 29.828125 6.390625 33.296875 8.421875 
Q 36.765625 10.453125 38.203125 13.9375 
Q 39.65625 17.4375 39.65625 24.078125 
L 39.65625 51.859375 
L 48.4375 51.859375 
L 48.4375 0 
z
" id="ArialMT-75"/>
     <path d="M 40.4375 6.390625 
Q 35.546875 2.25 31.03125 0.53125 
Q 26.515625 -1.171875 21.34375 -1.171875 
Q 12.796875 -1.171875 8.203125 3 
Q 3.609375 7.171875 3.609375 13.671875 
Q 3.609375 17.484375 5.34375 20.625 
Q 7.078125 23.78125 9.890625 25.6875 
Q 12.703125 27.59375 16.21875 28.5625 
Q 18.796875 29.25 24.03125 29.890625 
Q 34.671875 31.15625 39.703125 32.90625 
Q 39.75 34.71875 39.75 35.203125 
Q 39.75 40.578125 37.25 42.78125 
Q 33.890625 45.75 27.25 45.75 
Q 21.046875 45.75 18.09375 43.578125 
Q 15.140625 41.40625 13.71875 35.890625 
L 5.125 37.0625 
Q 6.296875 42.578125 8.984375 45.96875 
Q 11.671875 49.359375 16.75 51.1875 
Q 21.828125 53.03125 28.515625 53.03125 
Q 35.15625 53.03125 39.296875 51.46875 
Q 43.453125 49.90625 45.40625 47.53125 
Q 47.359375 45.171875 48.140625 41.546875 
Q 48.578125 39.3125 48.578125 33.453125 
L 48.578125 21.734375 
Q 48.578125 9.46875 49.140625 6.21875 
Q 49.703125 2.984375 51.375 0 
L 42.1875 0 
Q 40.828125 2.734375 40.4375 6.390625 
M 39.703125 26.03125 
Q 34.90625 24.078125 25.34375 22.703125 
Q 19.921875 21.921875 17.671875 20.9375 
Q 15.4375 19.96875 14.203125 18.09375 
Q 12.984375 16.21875 12.984375 13.921875 
Q 12.984375 10.40625 15.640625 8.0625 
Q 18.3125 5.71875 23.4375 5.71875 
Q 28.515625 5.71875 32.46875 7.9375 
Q 36.421875 10.15625 38.28125 14.015625 
Q 39.703125 17 39.703125 22.796875 
z
" id="ArialMT-61"/>
     <path d="M 28.171875 0 
L 0.4375 71.578125 
L 10.6875 71.578125 
L 29.296875 19.578125 
Q 31.546875 13.328125 33.0625 7.859375 
Q 34.71875 13.71875 36.921875 19.578125 
L 56.25 71.578125 
L 65.921875 71.578125 
L 37.890625 0 
z
" id="ArialMT-56"/>
    </defs>
    <g style="fill:#262626;" transform="translate(211.253515625 32.25234375)scale(0.35 -0.35)">
     <use xlink:href="#ArialMT-41"/>
     <use x="66.69921875" xlink:href="#ArialMT-73"/>
     <use x="116.69921875" xlink:href="#ArialMT-73"/>
     <use x="166.69921875" xlink:href="#ArialMT-65"/>
     <use x="222.314453125" xlink:href="#ArialMT-74"/>
     <use x="250.09765625" xlink:href="#ArialMT-20"/>
     <use x="277.880859375" xlink:href="#ArialMT-56"/>
     <use x="344.470703125" xlink:href="#ArialMT-61"/>
     <use x="400.0859375" xlink:href="#ArialMT-6c"/>
     <use x="422.302734375" xlink:href="#ArialMT-75"/>
     <use x="477.91796875" xlink:href="#ArialMT-65"/>
     <use x="533.533203125" xlink:href="#ArialMT-73"/>
    </g>
   </g>
  </g>
 </g>
 <defs>
  <clipPath id="p8b356f3400">
   <rect height="334.8" width="446.4" x="90.16875" y="37.25234375"/>
  </clipPath>
 </defs>
</svg>
