<?xml version="1.0" encoding="utf-8" standalone="no"?>
<!DOCTYPE svg PUBLIC "-//W3C//DTD SVG 1.1//EN"
  "http://www.w3.org/Graphics/SVG/1.1/DTD/svg11.dtd">
<!-- Created with matplotlib (http://matplotlib.org/) -->
<svg height="438pt" version="1.1" viewBox="0 0 522 438" width="522pt" xmlns="http://www.w3.org/2000/svg" xmlns:xlink="http://www.w3.org/1999/xlink">
 <defs>
  <style type="text/css">
*{stroke-linecap:butt;stroke-linejoin:round;stroke-miterlimit:100000;}
  </style>
 </defs>
 <g id="figure_1">
  <g id="patch_1">
   <path d="M 0 438.40625 
L 522.91875 438.40625 
L 522.91875 0 
L 0 0 
z
" style="fill:#ffffff;"/>
  </g>
  <g id="axes_1">
   <g id="patch_2">
    <path d="M 69.31875 372.052344 
L 515.71875 372.052344 
L 515.71875 37.252344 
L 69.31875 37.252344 
z
" style="fill:#ffffff;"/>
   </g>
   <g id="matplotlib.axis_1">
    <g id="xtick_1">
     <g id="line2d_1">
      <defs>
       <path d="M 0 0 
L 0 6 
" id="m6f76e06a64" style="stroke:#262626;"/>
      </defs>
      <g>
       <use style="fill:#262626;stroke:#262626;" x="123.118981313" xlink:href="#m6f76e06a64" y="372.05234375"/>
      </g>
     </g>
     <g id="line2d_2">
      <defs>
       <path d="M 0 0 
L 0 -6 
" id="mbc4e915e5a" style="stroke:#262626;"/>
      </defs>
      <g>
       <use style="fill:#262626;stroke:#262626;" x="123.118981313" xlink:href="#mbc4e915e5a" y="37.25234375"/>
      </g>
     </g>
     <g id="text_1">
      <!-- −1 -->
      <defs>
       <path d="M 37.25 0 
L 28.46875 0 
L 28.46875 56 
Q 25.296875 52.984375 20.140625 49.953125 
Q 14.984375 46.921875 10.890625 45.40625 
L 10.890625 53.90625 
Q 18.265625 57.375 23.78125 62.296875 
Q 29.296875 67.234375 31.59375 71.875 
L 37.25 71.875 
z
" id="ArialMT-31"/>
       <path d="M 52.828125 31.203125 
L 5.5625 31.203125 
L 5.5625 39.40625 
L 52.828125 39.40625 
z
" id="ArialMT-2212"/>
      </defs>
      <g style="fill:#262626;" transform="translate(114.567809438 395.7890625)scale(0.15 -0.15)">
       <use xlink:href="#ArialMT-2212"/>
       <use x="58.3984375" xlink:href="#ArialMT-31"/>
      </g>
     </g>
    </g>
    <g id="xtick_2">
     <g id="line2d_3">
      <g>
       <use style="fill:#262626;stroke:#262626;" x="179.521291794" xlink:href="#m6f76e06a64" y="372.05234375"/>
      </g>
     </g>
     <g id="line2d_4">
      <g>
       <use style="fill:#262626;stroke:#262626;" x="179.521291794" xlink:href="#mbc4e915e5a" y="37.25234375"/>
      </g>
     </g>
     <g id="text_2">
      <!-- 0 -->
      <defs>
       <path d="M 4.15625 35.296875 
Q 4.15625 48 6.765625 55.734375 
Q 9.375 63.484375 14.515625 67.671875 
Q 19.671875 71.875 27.484375 71.875 
Q 33.25 71.875 37.59375 69.546875 
Q 41.9375 67.234375 44.765625 62.859375 
Q 47.609375 58.5 49.21875 52.21875 
Q 50.828125 45.953125 50.828125 35.296875 
Q 50.828125 22.703125 48.234375 14.96875 
Q 45.65625 7.234375 40.5 3 
Q 35.359375 -1.21875 27.484375 -1.21875 
Q 17.140625 -1.21875 11.234375 6.203125 
Q 4.15625 15.140625 4.15625 35.296875 
M 13.1875 35.296875 
Q 13.1875 17.671875 17.3125 11.828125 
Q 21.4375 6 27.484375 6 
Q 33.546875 6 37.671875 11.859375 
Q 41.796875 17.71875 41.796875 35.296875 
Q 41.796875 52.984375 37.671875 58.78125 
Q 33.546875 64.59375 27.390625 64.59375 
Q 21.34375 64.59375 17.71875 59.46875 
Q 13.1875 52.9375 13.1875 35.296875 
" id="ArialMT-30"/>
      </defs>
      <g style="fill:#262626;" transform="translate(175.350588669 395.7890625)scale(0.15 -0.15)">
       <use xlink:href="#ArialMT-30"/>
      </g>
     </g>
    </g>
    <g id="xtick_3">
     <g id="line2d_5">
      <g>
       <use style="fill:#262626;stroke:#262626;" x="235.923602274" xlink:href="#m6f76e06a64" y="372.05234375"/>
      </g>
     </g>
     <g id="line2d_6">
      <g>
       <use style="fill:#262626;stroke:#262626;" x="235.923602274" xlink:href="#mbc4e915e5a" y="37.25234375"/>
      </g>
     </g>
     <g id="text_3">
      <!-- 1 -->
      <g style="fill:#262626;" transform="translate(231.752899149 395.7890625)scale(0.15 -0.15)">
       <use xlink:href="#ArialMT-31"/>
      </g>
     </g>
    </g>
    <g id="xtick_4">
     <g id="line2d_7">
      <g>
       <use style="fill:#262626;stroke:#262626;" x="292.325912755" xlink:href="#m6f76e06a64" y="372.05234375"/>
      </g>
     </g>
     <g id="line2d_8">
      <g>
       <use style="fill:#262626;stroke:#262626;" x="292.325912755" xlink:href="#mbc4e915e5a" y="37.25234375"/>
      </g>
     </g>
     <g id="text_4">
      <!-- 2 -->
      <defs>
       <path d="M 50.34375 8.453125 
L 50.34375 0 
L 3.03125 0 
Q 2.9375 3.171875 4.046875 6.109375 
Q 5.859375 10.9375 9.828125 15.625 
Q 13.8125 20.3125 21.34375 26.46875 
Q 33.015625 36.03125 37.109375 41.625 
Q 41.21875 47.21875 41.21875 52.203125 
Q 41.21875 57.421875 37.46875 61 
Q 33.734375 64.59375 27.734375 64.59375 
Q 21.390625 64.59375 17.578125 60.78125 
Q 13.765625 56.984375 13.71875 50.25 
L 4.6875 51.171875 
Q 5.609375 61.28125 11.65625 66.578125 
Q 17.71875 71.875 27.9375 71.875 
Q 38.234375 71.875 44.234375 66.15625 
Q 50.25 60.453125 50.25 52 
Q 50.25 47.703125 48.484375 43.546875 
Q 46.734375 39.40625 42.65625 34.8125 
Q 38.578125 30.21875 29.109375 22.21875 
Q 21.1875 15.578125 18.9375 13.203125 
Q 16.703125 10.84375 15.234375 8.453125 
z
" id="ArialMT-32"/>
      </defs>
      <g style="fill:#262626;" transform="translate(288.15520963 395.7890625)scale(0.15 -0.15)">
       <use xlink:href="#ArialMT-32"/>
      </g>
     </g>
    </g>
    <g id="xtick_5">
     <g id="line2d_9">
      <g>
       <use style="fill:#262626;stroke:#262626;" x="348.728223235" xlink:href="#m6f76e06a64" y="372.05234375"/>
      </g>
     </g>
     <g id="line2d_10">
      <g>
       <use style="fill:#262626;stroke:#262626;" x="348.728223235" xlink:href="#mbc4e915e5a" y="37.25234375"/>
      </g>
     </g>
     <g id="text_5">
      <!-- 3 -->
      <defs>
       <path d="M 4.203125 18.890625 
L 12.984375 20.0625 
Q 14.5 12.59375 18.140625 9.296875 
Q 21.78125 6 27 6 
Q 33.203125 6 37.46875 10.296875 
Q 41.75 14.59375 41.75 20.953125 
Q 41.75 27 37.796875 30.921875 
Q 33.84375 34.859375 27.734375 34.859375 
Q 25.25 34.859375 21.53125 33.890625 
L 22.515625 41.609375 
Q 23.390625 41.5 23.921875 41.5 
Q 29.546875 41.5 34.03125 44.421875 
Q 38.53125 47.359375 38.53125 53.46875 
Q 38.53125 58.296875 35.25 61.46875 
Q 31.984375 64.65625 26.8125 64.65625 
Q 21.6875 64.65625 18.265625 61.421875 
Q 14.84375 58.203125 13.875 51.765625 
L 5.078125 53.328125 
Q 6.6875 62.15625 12.390625 67.015625 
Q 18.109375 71.875 26.609375 71.875 
Q 32.46875 71.875 37.390625 69.359375 
Q 42.328125 66.84375 44.9375 62.5 
Q 47.5625 58.15625 47.5625 53.265625 
Q 47.5625 48.640625 45.0625 44.828125 
Q 42.578125 41.015625 37.703125 38.765625 
Q 44.046875 37.3125 47.5625 32.6875 
Q 51.078125 28.078125 51.078125 21.140625 
Q 51.078125 11.765625 44.234375 5.25 
Q 37.40625 -1.265625 26.953125 -1.265625 
Q 17.53125 -1.265625 11.296875 4.34375 
Q 5.078125 9.96875 4.203125 18.890625 
" id="ArialMT-33"/>
      </defs>
      <g style="fill:#262626;" transform="translate(344.55752011 395.7890625)scale(0.15 -0.15)">
       <use xlink:href="#ArialMT-33"/>
      </g>
     </g>
    </g>
    <g id="xtick_6">
     <g id="line2d_11">
      <g>
       <use style="fill:#262626;stroke:#262626;" x="405.130533716" xlink:href="#m6f76e06a64" y="372.05234375"/>
      </g>
     </g>
     <g id="line2d_12">
      <g>
       <use style="fill:#262626;stroke:#262626;" x="405.130533716" xlink:href="#mbc4e915e5a" y="37.25234375"/>
      </g>
     </g>
     <g id="text_6">
      <!-- 4 -->
      <defs>
       <path d="M 32.328125 0 
L 32.328125 17.140625 
L 1.265625 17.140625 
L 1.265625 25.203125 
L 33.9375 71.578125 
L 41.109375 71.578125 
L 41.109375 25.203125 
L 50.78125 25.203125 
L 50.78125 17.140625 
L 41.109375 17.140625 
L 41.109375 0 
z
M 32.328125 25.203125 
L 32.328125 57.46875 
L 9.90625 25.203125 
z
" id="ArialMT-34"/>
      </defs>
      <g style="fill:#262626;" transform="translate(400.959830591 395.7890625)scale(0.15 -0.15)">
       <use xlink:href="#ArialMT-34"/>
      </g>
     </g>
    </g>
    <g id="xtick_7">
     <g id="line2d_13">
      <g>
       <use style="fill:#262626;stroke:#262626;" x="461.532844196" xlink:href="#m6f76e06a64" y="372.05234375"/>
      </g>
     </g>
     <g id="line2d_14">
      <g>
       <use style="fill:#262626;stroke:#262626;" x="461.532844196" xlink:href="#mbc4e915e5a" y="37.25234375"/>
      </g>
     </g>
     <g id="text_7">
      <!-- 5 -->
      <defs>
       <path d="M 4.15625 18.75 
L 13.375 19.53125 
Q 14.40625 12.796875 18.140625 9.390625 
Q 21.875 6 27.15625 6 
Q 33.5 6 37.890625 10.78125 
Q 42.28125 15.578125 42.28125 23.484375 
Q 42.28125 31 38.0625 35.34375 
Q 33.84375 39.703125 27 39.703125 
Q 22.75 39.703125 19.328125 37.765625 
Q 15.921875 35.84375 13.96875 32.765625 
L 5.71875 33.84375 
L 12.640625 70.609375 
L 48.25 70.609375 
L 48.25 62.203125 
L 19.671875 62.203125 
L 15.828125 42.96875 
Q 22.265625 47.46875 29.34375 47.46875 
Q 38.71875 47.46875 45.15625 40.96875 
Q 51.609375 34.46875 51.609375 24.265625 
Q 51.609375 14.546875 45.953125 7.46875 
Q 39.0625 -1.21875 27.15625 -1.21875 
Q 17.390625 -1.21875 11.203125 4.25 
Q 5.03125 9.71875 4.15625 18.75 
" id="ArialMT-35"/>
      </defs>
      <g style="fill:#262626;" transform="translate(457.362141071 395.7890625)scale(0.15 -0.15)">
       <use xlink:href="#ArialMT-35"/>
      </g>
     </g>
    </g>
    <g id="text_8">
     <!-- Asset 2 -->
     <defs>
      <path d="M -0.140625 0 
L 27.34375 71.578125 
L 37.546875 71.578125 
L 66.84375 0 
L 56.0625 0 
L 47.703125 21.6875 
L 17.78125 21.6875 
L 9.90625 0 
z
M 20.515625 29.390625 
L 44.78125 29.390625 
L 37.3125 49.21875 
Q 33.890625 58.25 32.234375 64.0625 
Q 30.859375 57.171875 28.375 50.390625 
z
" id="ArialMT-41"/>
      <path d="M 25.78125 7.859375 
L 27.046875 0.09375 
Q 23.34375 -0.6875 20.40625 -0.6875 
Q 15.625 -0.6875 12.984375 0.828125 
Q 10.359375 2.34375 9.28125 4.8125 
Q 8.203125 7.28125 8.203125 15.1875 
L 8.203125 45.015625 
L 1.765625 45.015625 
L 1.765625 51.859375 
L 8.203125 51.859375 
L 8.203125 64.703125 
L 16.9375 69.96875 
L 16.9375 51.859375 
L 25.78125 51.859375 
L 25.78125 45.015625 
L 16.9375 45.015625 
L 16.9375 14.703125 
Q 16.9375 10.9375 17.40625 9.859375 
Q 17.875 8.796875 18.921875 8.15625 
Q 19.96875 7.515625 21.921875 7.515625 
Q 23.390625 7.515625 25.78125 7.859375 
" id="ArialMT-74"/>
      <path id="ArialMT-20"/>
      <path d="M 42.09375 16.703125 
L 51.171875 15.578125 
Q 49.03125 7.625 43.21875 3.21875 
Q 37.40625 -1.171875 28.375 -1.171875 
Q 17 -1.171875 10.328125 5.828125 
Q 3.65625 12.84375 3.65625 25.484375 
Q 3.65625 38.578125 10.390625 45.796875 
Q 17.140625 53.03125 27.875 53.03125 
Q 38.28125 53.03125 44.875 45.953125 
Q 51.46875 38.875 51.46875 26.03125 
Q 51.46875 25.25 51.421875 23.6875 
L 12.75 23.6875 
Q 13.234375 15.140625 17.578125 10.59375 
Q 21.921875 6.0625 28.421875 6.0625 
Q 33.25 6.0625 36.671875 8.59375 
Q 40.09375 11.140625 42.09375 16.703125 
M 13.234375 30.90625 
L 42.1875 30.90625 
Q 41.609375 37.453125 38.875 40.71875 
Q 34.671875 45.796875 27.984375 45.796875 
Q 21.921875 45.796875 17.796875 41.75 
Q 13.671875 37.703125 13.234375 30.90625 
" id="ArialMT-65"/>
      <path d="M 3.078125 15.484375 
L 11.765625 16.84375 
Q 12.5 11.625 15.84375 8.84375 
Q 19.1875 6.0625 25.203125 6.0625 
Q 31.25 6.0625 34.171875 8.515625 
Q 37.109375 10.984375 37.109375 14.3125 
Q 37.109375 17.28125 34.515625 19 
Q 32.71875 20.171875 25.53125 21.96875 
Q 15.875 24.421875 12.140625 26.203125 
Q 8.40625 27.984375 6.46875 31.125 
Q 4.546875 34.28125 4.546875 38.09375 
Q 4.546875 41.546875 6.125 44.5 
Q 7.71875 47.46875 10.453125 49.421875 
Q 12.5 50.921875 16.03125 51.96875 
Q 19.578125 53.03125 23.640625 53.03125 
Q 29.734375 53.03125 34.34375 51.265625 
Q 38.96875 49.515625 41.15625 46.5 
Q 43.359375 43.5 44.1875 38.484375 
L 35.59375 37.3125 
Q 35.015625 41.3125 32.203125 43.546875 
Q 29.390625 45.796875 24.265625 45.796875 
Q 18.21875 45.796875 15.625 43.796875 
Q 13.03125 41.796875 13.03125 39.109375 
Q 13.03125 37.40625 14.109375 36.03125 
Q 15.1875 34.625 17.484375 33.6875 
Q 18.796875 33.203125 25.25 31.453125 
Q 34.578125 28.953125 38.25 27.359375 
Q 41.9375 25.78125 44.03125 22.75 
Q 46.140625 19.734375 46.140625 15.234375 
Q 46.140625 10.84375 43.578125 6.953125 
Q 41.015625 3.078125 36.171875 0.953125 
Q 31.34375 -1.171875 25.25 -1.171875 
Q 15.140625 -1.171875 9.84375 3.03125 
Q 4.546875 7.234375 3.078125 15.484375 
" id="ArialMT-73"/>
     </defs>
     <g style="fill:#262626;" transform="translate(242.49609375 425.24375)scale(0.3 -0.3)">
      <use xlink:href="#ArialMT-41"/>
      <use x="66.69921875" xlink:href="#ArialMT-73"/>
      <use x="116.69921875" xlink:href="#ArialMT-73"/>
      <use x="166.69921875" xlink:href="#ArialMT-65"/>
      <use x="222.314453125" xlink:href="#ArialMT-74"/>
      <use x="250.09765625" xlink:href="#ArialMT-20"/>
      <use x="277.880859375" xlink:href="#ArialMT-32"/>
     </g>
    </g>
   </g>
   <g id="matplotlib.axis_2">
    <g id="ytick_1">
     <g id="line2d_15">
      <defs>
       <path d="M 0 0 
L -6 0 
" id="m0c5668b524" style="stroke:#262626;"/>
      </defs>
      <g>
       <use style="fill:#262626;stroke:#262626;" x="69.31875" xlink:href="#m0c5668b524" y="372.05234375"/>
      </g>
     </g>
     <g id="line2d_16">
      <defs>
       <path d="M 0 0 
L 6 0 
" id="m0889317f71" style="stroke:#262626;"/>
      </defs>
      <g>
       <use style="fill:#262626;stroke:#262626;" x="515.71875" xlink:href="#m0889317f71" y="372.05234375"/>
      </g>
     </g>
     <g id="text_9">
      <!-- 0 -->
      <g style="fill:#262626;" transform="translate(47.97734375 375.930078125)scale(0.15 -0.15)">
       <use xlink:href="#ArialMT-30"/>
      </g>
     </g>
    </g>
    <g id="ytick_2">
     <g id="line2d_17">
      <g>
       <use style="fill:#262626;stroke:#262626;" x="69.31875" xlink:href="#m0c5668b524" y="316.25234375"/>
      </g>
     </g>
     <g id="line2d_18">
      <g>
       <use style="fill:#262626;stroke:#262626;" x="515.71875" xlink:href="#m0889317f71" y="316.25234375"/>
      </g>
     </g>
     <g id="text_10">
      <!-- 5 -->
      <g style="fill:#262626;" transform="translate(47.97734375 320.130078125)scale(0.15 -0.15)">
       <use xlink:href="#ArialMT-35"/>
      </g>
     </g>
    </g>
    <g id="ytick_3">
     <g id="line2d_19">
      <g>
       <use style="fill:#262626;stroke:#262626;" x="69.31875" xlink:href="#m0c5668b524" y="260.45234375"/>
      </g>
     </g>
     <g id="line2d_20">
      <g>
       <use style="fill:#262626;stroke:#262626;" x="515.71875" xlink:href="#m0889317f71" y="260.45234375"/>
      </g>
     </g>
     <g id="text_11">
      <!-- 10 -->
      <g style="fill:#262626;" transform="translate(39.6359375 264.330078125)scale(0.15 -0.15)">
       <use xlink:href="#ArialMT-31"/>
       <use x="55.615234375" xlink:href="#ArialMT-30"/>
      </g>
     </g>
    </g>
    <g id="ytick_4">
     <g id="line2d_21">
      <g>
       <use style="fill:#262626;stroke:#262626;" x="69.31875" xlink:href="#m0c5668b524" y="204.65234375"/>
      </g>
     </g>
     <g id="line2d_22">
      <g>
       <use style="fill:#262626;stroke:#262626;" x="515.71875" xlink:href="#m0889317f71" y="204.65234375"/>
      </g>
     </g>
     <g id="text_12">
      <!-- 15 -->
      <g style="fill:#262626;" transform="translate(39.6359375 208.530078125)scale(0.15 -0.15)">
       <use xlink:href="#ArialMT-31"/>
       <use x="55.615234375" xlink:href="#ArialMT-35"/>
      </g>
     </g>
    </g>
    <g id="ytick_5">
     <g id="line2d_23">
      <g>
       <use style="fill:#262626;stroke:#262626;" x="69.31875" xlink:href="#m0c5668b524" y="148.85234375"/>
      </g>
     </g>
     <g id="line2d_24">
      <g>
       <use style="fill:#262626;stroke:#262626;" x="515.71875" xlink:href="#m0889317f71" y="148.85234375"/>
      </g>
     </g>
     <g id="text_13">
      <!-- 20 -->
      <g style="fill:#262626;" transform="translate(39.6359375 152.730078125)scale(0.15 -0.15)">
       <use xlink:href="#ArialMT-32"/>
       <use x="55.615234375" xlink:href="#ArialMT-30"/>
      </g>
     </g>
    </g>
    <g id="ytick_6">
     <g id="line2d_25">
      <g>
       <use style="fill:#262626;stroke:#262626;" x="69.31875" xlink:href="#m0c5668b524" y="93.05234375"/>
      </g>
     </g>
     <g id="line2d_26">
      <g>
       <use style="fill:#262626;stroke:#262626;" x="515.71875" xlink:href="#m0889317f71" y="93.05234375"/>
      </g>
     </g>
     <g id="text_14">
      <!-- 25 -->
      <g style="fill:#262626;" transform="translate(39.6359375 96.930078125)scale(0.15 -0.15)">
       <use xlink:href="#ArialMT-32"/>
       <use x="55.615234375" xlink:href="#ArialMT-35"/>
      </g>
     </g>
    </g>
    <g id="ytick_7">
     <g id="line2d_27">
      <g>
       <use style="fill:#262626;stroke:#262626;" x="69.31875" xlink:href="#m0c5668b524" y="37.25234375"/>
      </g>
     </g>
     <g id="line2d_28">
      <g>
       <use style="fill:#262626;stroke:#262626;" x="515.71875" xlink:href="#m0889317f71" y="37.25234375"/>
      </g>
     </g>
     <g id="text_15">
      <!-- 30 -->
      <g style="fill:#262626;" transform="translate(39.6359375 41.130078125)scale(0.15 -0.15)">
       <use xlink:href="#ArialMT-33"/>
       <use x="55.615234375" xlink:href="#ArialMT-30"/>
      </g>
     </g>
    </g>
    <g id="text_16">
     <!-- Asset 1 -->
     <g style="fill:#262626;" transform="translate(28.6734375 254.675)rotate(-90.0)scale(0.3 -0.3)">
      <use xlink:href="#ArialMT-41"/>
      <use x="66.69921875" xlink:href="#ArialMT-73"/>
      <use x="116.69921875" xlink:href="#ArialMT-73"/>
      <use x="166.69921875" xlink:href="#ArialMT-65"/>
      <use x="222.314453125" xlink:href="#ArialMT-74"/>
      <use x="250.09765625" xlink:href="#ArialMT-20"/>
      <use x="277.880859375" xlink:href="#ArialMT-31"/>
     </g>
    </g>
   </g>
   <g id="PathCollection_1">
    <defs>
     <path d="M 0 5 
C 1.326016 5 2.597899 4.473168 3.535534 3.535534 
C 4.473168 2.597899 5 1.326016 5 0 
C 5 -1.326016 4.473168 -2.597899 3.535534 -3.535534 
C 2.597899 -4.473168 1.326016 -5 0 -5 
C -1.326016 -5 -2.597899 -4.473168 -3.535534 -3.535534 
C -4.473168 -2.597899 -5 -1.326016 -5 0 
C -5 1.326016 -4.473168 2.597899 -3.535534 3.535534 
C -2.597899 4.473168 -1.326016 5 0 5 
z
" id="mdb8469df97" style="stroke:#000000;stroke-width:0.3;"/>
    </defs>
    <g clip-path="url(#pbc6fbeee80)">
     <use style="fill:#0000ff;stroke:#000000;stroke-width:0.3;" x="193.685150559" xlink:href="#mdb8469df97" y="160.412707744"/>
     <use style="fill:#0000ff;stroke:#000000;stroke-width:0.3;" x="183.915174515" xlink:href="#mdb8469df97" y="175.587557578"/>
     <use style="fill:#0000ff;stroke:#000000;stroke-width:0.3;" x="202.643619378" xlink:href="#mdb8469df97" y="147.847336654"/>
     <use style="fill:#0000ff;stroke:#000000;stroke-width:0.3;" x="459.31643952" xlink:href="#mdb8469df97" y="336.041701541"/>
     <use style="fill:#0000ff;stroke:#000000;stroke-width:0.3;" x="269.966574632" xlink:href="#mdb8469df97" y="94.7108586722"/>
     <use style="fill:#0000ff;stroke:#000000;stroke-width:0.3;" x="181.237105708" xlink:href="#mdb8469df97" y="180.015214652"/>
     <use style="fill:#0000ff;stroke:#000000;stroke-width:0.3;" x="224.595154871" xlink:href="#mdb8469df97" y="122.513284359"/>
     <use style="fill:#0000ff;stroke:#000000;stroke-width:0.3;" x="235.425479504" xlink:href="#mdb8469df97" y="112.868828911"/>
     <use style="fill:#0000ff;stroke:#000000;stroke-width:0.3;" x="282.067864107" xlink:href="#mdb8469df97" y="92.8876839922"/>
     <use style="fill:#0000ff;stroke:#000000;stroke-width:0.3;" x="202.356318507" xlink:href="#mdb8469df97" y="148.230281009"/>
     <use style="fill:#0000ff;stroke:#000000;stroke-width:0.3;" x="297.548826282" xlink:href="#mdb8469df97" y="93.988659335"/>
     <use style="fill:#0000ff;stroke:#000000;stroke-width:0.3;" x="276.055493016" xlink:href="#mdb8469df97" y="93.4991484227"/>
     <use style="fill:#0000ff;stroke:#000000;stroke-width:0.3;" x="215.382547714" xlink:href="#mdb8469df97" y="132.201830685"/>
     <use style="fill:#0000ff;stroke:#000000;stroke-width:0.3;" x="300.806123637" xlink:href="#mdb8469df97" y="94.7110779394"/>
     <use style="fill:#0000ff;stroke:#000000;stroke-width:0.3;" x="235.227991343" xlink:href="#mdb8469df97" y="113.027808949"/>
     <use style="fill:#0000ff;stroke:#000000;stroke-width:0.3;" x="272.889508589" xlink:href="#mdb8469df97" y="94.05478006"/>
     <use style="fill:#0000ff;stroke:#000000;stroke-width:0.3;" x="223.346877519" xlink:href="#mdb8469df97" y="123.746112806"/>
     <use style="fill:#0000ff;stroke:#000000;stroke-width:0.3;" x="179.322253751" xlink:href="#mdb8469df97" y="183.251758703"/>
     <use style="fill:#0000ff;stroke:#000000;stroke-width:0.3;" x="153.604746881" xlink:href="#mdb8469df97" y="232.434238907"/>
     <use style="fill:#0000ff;stroke:#000000;stroke-width:0.3;" x="432.429091021" xlink:href="#mdb8469df97" y="266.650353701"/>
     <use style="fill:#0000ff;stroke:#000000;stroke-width:0.3;" x="125.72106048" xlink:href="#mdb8469df97" y="297.776803334"/>
     <use style="fill:#0000ff;stroke:#000000;stroke-width:0.3;" x="206.430579455" xlink:href="#mdb8469df97" y="142.923742839"/>
     <use style="fill:#0000ff;stroke:#000000;stroke-width:0.3;" x="302.11301199" xlink:href="#mdb8469df97" y="95.0488868949"/>
     <use style="fill:#0000ff;stroke:#000000;stroke-width:0.3;" x="278.57784215" xlink:href="#mdb8469df97" y="93.1718411366"/>
     <use style="fill:#0000ff;stroke:#000000;stroke-width:0.3;" x="413.554835409" xlink:href="#mdb8469df97" y="224.88412597"/>
     <use style="fill:#0000ff;stroke:#000000;stroke-width:0.3;" x="226.369234439" xlink:href="#mdb8469df97" y="120.804273969"/>
     <use style="fill:#0000ff;stroke:#000000;stroke-width:0.3;" x="356.263712904" xlink:href="#mdb8469df97" y="133.192375449"/>
     <use style="fill:#0000ff;stroke:#000000;stroke-width:0.3;" x="380.285163217" xlink:href="#mdb8469df97" y="165.211653796"/>
     <use style="fill:#0000ff;stroke:#000000;stroke-width:0.3;" x="298.398966173" xlink:href="#mdb8469df97" y="94.1607528991"/>
     <use style="fill:#0000ff;stroke:#000000;stroke-width:0.3;" x="191.623530466" xlink:href="#mdb8469df97" y="163.487063392"/>
     <use style="fill:#0000ff;stroke:#000000;stroke-width:0.3;" x="323.88108955" xlink:href="#mdb8469df97" y="104.714342826"/>
     <use style="fill:#0000ff;stroke:#000000;stroke-width:0.3;" x="193.493380902" xlink:href="#mdb8469df97" y="160.69579776"/>
     <use style="fill:#0000ff;stroke:#000000;stroke-width:0.3;" x="327.067606243" xlink:href="#mdb8469df97" y="106.768592543"/>
     <use style="fill:#0000ff;stroke:#000000;stroke-width:0.3;" x="249.567709879" xlink:href="#mdb8469df97" y="103.114781504"/>
     <use style="fill:#0000ff;stroke:#000000;stroke-width:0.3;" x="253.537130994" xlink:href="#mdb8469df97" y="100.955089593"/>
     <use style="fill:#0000ff;stroke:#000000;stroke-width:0.3;" x="288.929885877" xlink:href="#mdb8469df97" y="92.9001499413"/>
     <use style="fill:#0000ff;stroke:#000000;stroke-width:0.3;" x="233.892428198" xlink:href="#mdb8469df97" y="114.119414268"/>
     <use style="fill:#0000ff;stroke:#000000;stroke-width:0.3;" x="294.726188034" xlink:href="#mdb8469df97" y="93.5006296959"/>
     <use style="fill:#0000ff;stroke:#000000;stroke-width:0.3;" x="280.331806305" xlink:href="#mdb8469df97" y="93.0045501391"/>
     <use style="fill:#0000ff;stroke:#000000;stroke-width:0.3;" x="213.514899123" xlink:href="#mdb8469df97" y="134.332357369"/>
     <use style="fill:#0000ff;stroke:#000000;stroke-width:0.3;" x="158.815471197" xlink:href="#mdb8469df97" y="221.610006181"/>
     <use style="fill:#0000ff;stroke:#000000;stroke-width:0.3;" x="249.287292906" xlink:href="#mdb8469df97" y="103.276933611"/>
     <use style="fill:#0000ff;stroke:#000000;stroke-width:0.3;" x="187.374828005" xlink:href="#mdb8469df97" y="170.038441846"/>
     <use style="fill:#0000ff;stroke:#000000;stroke-width:0.3;" x="165.512900789" xlink:href="#mdb8469df97" y="208.338711314"/>
     <use style="fill:#0000ff;stroke:#000000;stroke-width:0.3;" x="275.275184333" xlink:href="#mdb8469df97" y="93.6211248669"/>
     <use style="fill:#0000ff;stroke:#000000;stroke-width:0.3;" x="260.264620613" xlink:href="#mdb8469df97" y="97.8734091129"/>
     <use style="fill:#0000ff;stroke:#000000;stroke-width:0.3;" x="127.369222657" xlink:href="#mdb8469df97" y="293.566825722"/>
     <use style="fill:#0000ff;stroke:#000000;stroke-width:0.3;" x="394.766959066" xlink:href="#mdb8469df97" y="188.998496539"/>
     <use style="fill:#0000ff;stroke:#000000;stroke-width:0.3;" x="320.441861332" xlink:href="#mdb8469df97" y="102.680402245"/>
     <use style="fill:#0000ff;stroke:#000000;stroke-width:0.3;" x="230.781078953" xlink:href="#mdb8469df97" y="116.773684229"/>
     <use style="fill:#0000ff;stroke:#000000;stroke-width:0.3;" x="162.018587963" xlink:href="#mdb8469df97" y="215.172872757"/>
     <use style="fill:#0000ff;stroke:#000000;stroke-width:0.3;" x="212.649076482" xlink:href="#mdb8469df97" y="135.339077257"/>
     <use style="fill:#0000ff;stroke:#000000;stroke-width:0.3;" x="268.329484307" xlink:href="#mdb8469df97" y="95.1383425843"/>
     <use style="fill:#0000ff;stroke:#000000;stroke-width:0.3;" x="243.253640786" xlink:href="#mdb8469df97" y="107.072235791"/>
     <use style="fill:#0000ff;stroke:#000000;stroke-width:0.3;" x="197.295647872" xlink:href="#mdb8469df97" y="155.193280023"/>
     <use style="fill:#0000ff;stroke:#000000;stroke-width:0.3;" x="399.048137006" xlink:href="#mdb8469df97" y="196.676358541"/>
     <use style="fill:#0000ff;stroke:#000000;stroke-width:0.3;" x="235.748712915" xlink:href="#mdb8469df97" y="112.609975979"/>
     <use style="fill:#0000ff;stroke:#000000;stroke-width:0.3;" x="302.603100338" xlink:href="#mdb8469df97" y="95.182647766"/>
     <use style="fill:#0000ff;stroke:#000000;stroke-width:0.3;" x="189.795474065" xlink:href="#mdb8469df97" y="166.270294181"/>
     <use style="fill:#0000ff;stroke:#000000;stroke-width:0.3;" x="172.453283349" xlink:href="#mdb8469df97" y="195.347047784"/>
     <use style="fill:#0000ff;stroke:#000000;stroke-width:0.3;" x="443.121241911" xlink:href="#mdb8469df97" y="292.852526669"/>
     <use style="fill:#0000ff;stroke:#000000;stroke-width:0.3;" x="236.799738091" xlink:href="#mdb8469df97" y="111.779903922"/>
     <use style="fill:#0000ff;stroke:#000000;stroke-width:0.3;" x="309.47108335" xlink:href="#mdb8469df97" y="97.4634732553"/>
     <use style="fill:#0000ff;stroke:#000000;stroke-width:0.3;" x="231.330474006" xlink:href="#mdb8469df97" y="116.293681878"/>
     <use style="fill:#0000ff;stroke:#000000;stroke-width:0.3;" x="156.403238396" xlink:href="#mdb8469df97" y="226.566656205"/>
     <use style="fill:#0000ff;stroke:#000000;stroke-width:0.3;" x="359.041760775" xlink:href="#mdb8469df97" y="136.4208443"/>
     <use style="fill:#0000ff;stroke:#000000;stroke-width:0.3;" x="198.454938255" xlink:href="#mdb8469df97" y="153.56184104"/>
     <use style="fill:#0000ff;stroke:#000000;stroke-width:0.3;" x="180.371590202" xlink:href="#mdb8469df97" y="181.470834057"/>
    </g>
   </g>
   <g id="patch_3">
    <path d="M 69.31875 37.252344 
L 515.71875 37.252344 
" style="fill:none;stroke:#262626;stroke-linecap:square;stroke-linejoin:miter;stroke-width:1.25;"/>
   </g>
   <g id="patch_4">
    <path d="M 515.71875 372.052344 
L 515.71875 37.252344 
" style="fill:none;stroke:#262626;stroke-linecap:square;stroke-linejoin:miter;stroke-width:1.25;"/>
   </g>
   <g id="patch_5">
    <path d="M 69.31875 372.052344 
L 515.71875 372.052344 
" style="fill:none;stroke:#262626;stroke-linecap:square;stroke-linejoin:miter;stroke-width:1.25;"/>
   </g>
   <g id="patch_6">
    <path d="M 69.31875 372.052344 
L 69.31875 37.252344 
" style="fill:none;stroke:#262626;stroke-linecap:square;stroke-linejoin:miter;stroke-width:1.25;"/>
   </g>
   <g id="text_17">
    <!-- Asset Values -->
    <defs>
     <path d="M 6.390625 0 
L 6.390625 71.578125 
L 15.1875 71.578125 
L 15.1875 0 
z
" id="ArialMT-6c"/>
     <path d="M 40.578125 0 
L 40.578125 7.625 
Q 34.515625 -1.171875 24.125 -1.171875 
Q 19.53125 -1.171875 15.546875 0.578125 
Q 11.578125 2.34375 9.640625 5 
Q 7.71875 7.671875 6.9375 11.53125 
Q 6.390625 14.109375 6.390625 19.734375 
L 6.390625 51.859375 
L 15.1875 51.859375 
L 15.1875 23.09375 
Q 15.1875 16.21875 15.71875 13.8125 
Q 16.546875 10.359375 19.234375 8.375 
Q 21.921875 6.390625 25.875 6.390625 
Q 29.828125 6.390625 33.296875 8.421875 
Q 36.765625 10.453125 38.203125 13.9375 
Q 39.65625 17.4375 39.65625 24.078125 
L 39.65625 51.859375 
L 48.4375 51.859375 
L 48.4375 0 
z
" id="ArialMT-75"/>
     <path d="M 40.4375 6.390625 
Q 35.546875 2.25 31.03125 0.53125 
Q 26.515625 -1.171875 21.34375 -1.171875 
Q 12.796875 -1.171875 8.203125 3 
Q 3.609375 7.171875 3.609375 13.671875 
Q 3.609375 17.484375 5.34375 20.625 
Q 7.078125 23.78125 9.890625 25.6875 
Q 12.703125 27.59375 16.21875 28.5625 
Q 18.796875 29.25 24.03125 29.890625 
Q 34.671875 31.15625 39.703125 32.90625 
Q 39.75 34.71875 39.75 35.203125 
Q 39.75 40.578125 37.25 42.78125 
Q 33.890625 45.75 27.25 45.75 
Q 21.046875 45.75 18.09375 43.578125 
Q 15.140625 41.40625 13.71875 35.890625 
L 5.125 37.0625 
Q 6.296875 42.578125 8.984375 45.96875 
Q 11.671875 49.359375 16.75 51.1875 
Q 21.828125 53.03125 28.515625 53.03125 
Q 35.15625 53.03125 39.296875 51.46875 
Q 43.453125 49.90625 45.40625 47.53125 
Q 47.359375 45.171875 48.140625 41.546875 
Q 48.578125 39.3125 48.578125 33.453125 
L 48.578125 21.734375 
Q 48.578125 9.46875 49.140625 6.21875 
Q 49.703125 2.984375 51.375 0 
L 42.1875 0 
Q 40.828125 2.734375 40.4375 6.390625 
M 39.703125 26.03125 
Q 34.90625 24.078125 25.34375 22.703125 
Q 19.921875 21.921875 17.671875 20.9375 
Q 15.4375 19.96875 14.203125 18.09375 
Q 12.984375 16.21875 12.984375 13.921875 
Q 12.984375 10.40625 15.640625 8.0625 
Q 18.3125 5.71875 23.4375 5.71875 
Q 28.515625 5.71875 32.46875 7.9375 
Q 36.421875 10.15625 38.28125 14.015625 
Q 39.703125 17 39.703125 22.796875 
z
" id="ArialMT-61"/>
     <path d="M 28.171875 0 
L 0.4375 71.578125 
L 10.6875 71.578125 
L 29.296875 19.578125 
Q 31.546875 13.328125 33.0625 7.859375 
Q 34.71875 13.71875 36.921875 19.578125 
L 56.25 71.578125 
L 65.921875 71.578125 
L 37.890625 0 
z
" id="ArialMT-56"/>
    </defs>
    <g style="fill:#262626;" transform="translate(190.403515625 32.25234375)scale(0.35 -0.35)">
     <use xlink:href="#ArialMT-41"/>
     <use x="66.69921875" xlink:href="#ArialMT-73"/>
     <use x="116.69921875" xlink:href="#ArialMT-73"/>
     <use x="166.69921875" xlink:href="#ArialMT-65"/>
     <use x="222.314453125" xlink:href="#ArialMT-74"/>
     <use x="250.09765625" xlink:href="#ArialMT-20"/>
     <use x="277.880859375" xlink:href="#ArialMT-56"/>
     <use x="344.470703125" xlink:href="#ArialMT-61"/>
     <use x="400.0859375" xlink:href="#ArialMT-6c"/>
     <use x="422.302734375" xlink:href="#ArialMT-75"/>
     <use x="477.91796875" xlink:href="#ArialMT-65"/>
     <use x="533.533203125" xlink:href="#ArialMT-73"/>
    </g>
   </g>
  </g>
 </g>
 <defs>
  <clipPath id="pbc6fbeee80">
   <rect height="334.8" width="446.4" x="69.31875" y="37.25234375"/>
  </clipPath>
 </defs>
</svg>
