<?xml version="1.0" encoding="utf-8" standalone="no"?>
<!DOCTYPE svg PUBLIC "-//W3C//DTD SVG 1.1//EN"
  "http://www.w3.org/Graphics/SVG/1.1/DTD/svg11.dtd">
<!-- Created with matplotlib (http://matplotlib.org/) -->
<svg height="438pt" version="1.1" viewBox="0 0 543 438" width="543pt" xmlns="http://www.w3.org/2000/svg" xmlns:xlink="http://www.w3.org/1999/xlink">
 <defs>
  <style type="text/css">
*{stroke-linecap:butt;stroke-linejoin:round;stroke-miterlimit:100000;}
  </style>
 </defs>
 <g id="figure_1">
  <g id="patch_1">
   <path d="M 0 438.40625 
L 543.76875 438.40625 
L 543.76875 0 
L 0 0 
z
" style="fill:#ffffff;"/>
  </g>
  <g id="axes_1">
   <g id="patch_2">
    <path d="M 90.16875 372.052344 
L 536.56875 372.052344 
L 536.56875 37.252344 
L 90.16875 37.252344 
z
" style="fill:#ffffff;"/>
   </g>
   <g id="matplotlib.axis_1">
    <g id="xtick_1">
     <g id="line2d_1">
      <defs>
       <path d="M 0 0 
L 0 6 
" id="m2035d29e47" style="stroke:#262626;"/>
      </defs>
      <g>
       <use style="fill:#262626;stroke:#262626;" x="128.455232302" xlink:href="#m2035d29e47" y="372.05234375"/>
      </g>
     </g>
     <g id="line2d_2">
      <defs>
       <path d="M 0 0 
L 0 -6 
" id="m38891e2e81" style="stroke:#262626;"/>
      </defs>
      <g>
       <use style="fill:#262626;stroke:#262626;" x="128.455232302" xlink:href="#m38891e2e81" y="37.25234375"/>
      </g>
     </g>
     <g id="text_1">
      <!-- −1 -->
      <defs>
       <path d="M 37.25 0 
L 28.46875 0 
L 28.46875 56 
Q 25.296875 52.984375 20.140625 49.953125 
Q 14.984375 46.921875 10.890625 45.40625 
L 10.890625 53.90625 
Q 18.265625 57.375 23.78125 62.296875 
Q 29.296875 67.234375 31.59375 71.875 
L 37.25 71.875 
z
" id="ArialMT-31"/>
       <path d="M 52.828125 31.203125 
L 5.5625 31.203125 
L 5.5625 39.40625 
L 52.828125 39.40625 
z
" id="ArialMT-2212"/>
      </defs>
      <g style="fill:#262626;" transform="translate(119.904060427 395.7890625)scale(0.15 -0.15)">
       <use xlink:href="#ArialMT-2212"/>
       <use x="58.3984375" xlink:href="#ArialMT-31"/>
      </g>
     </g>
    </g>
    <g id="xtick_2">
     <g id="line2d_3">
      <g>
       <use style="fill:#262626;stroke:#262626;" x="219.297451157" xlink:href="#m2035d29e47" y="372.05234375"/>
      </g>
     </g>
     <g id="line2d_4">
      <g>
       <use style="fill:#262626;stroke:#262626;" x="219.297451157" xlink:href="#m38891e2e81" y="37.25234375"/>
      </g>
     </g>
     <g id="text_2">
      <!-- 0 -->
      <defs>
       <path d="M 4.15625 35.296875 
Q 4.15625 48 6.765625 55.734375 
Q 9.375 63.484375 14.515625 67.671875 
Q 19.671875 71.875 27.484375 71.875 
Q 33.25 71.875 37.59375 69.546875 
Q 41.9375 67.234375 44.765625 62.859375 
Q 47.609375 58.5 49.21875 52.21875 
Q 50.828125 45.953125 50.828125 35.296875 
Q 50.828125 22.703125 48.234375 14.96875 
Q 45.65625 7.234375 40.5 3 
Q 35.359375 -1.21875 27.484375 -1.21875 
Q 17.140625 -1.21875 11.234375 6.203125 
Q 4.15625 15.140625 4.15625 35.296875 
M 13.1875 35.296875 
Q 13.1875 17.671875 17.3125 11.828125 
Q 21.4375 6 27.484375 6 
Q 33.546875 6 37.671875 11.859375 
Q 41.796875 17.71875 41.796875 35.296875 
Q 41.796875 52.984375 37.671875 58.78125 
Q 33.546875 64.59375 27.390625 64.59375 
Q 21.34375 64.59375 17.71875 59.46875 
Q 13.1875 52.9375 13.1875 35.296875 
" id="ArialMT-30"/>
      </defs>
      <g style="fill:#262626;" transform="translate(215.126748032 395.7890625)scale(0.15 -0.15)">
       <use xlink:href="#ArialMT-30"/>
      </g>
     </g>
    </g>
    <g id="xtick_3">
     <g id="line2d_5">
      <g>
       <use style="fill:#262626;stroke:#262626;" x="310.139670011" xlink:href="#m2035d29e47" y="372.05234375"/>
      </g>
     </g>
     <g id="line2d_6">
      <g>
       <use style="fill:#262626;stroke:#262626;" x="310.139670011" xlink:href="#m38891e2e81" y="37.25234375"/>
      </g>
     </g>
     <g id="text_3">
      <!-- 1 -->
      <g style="fill:#262626;" transform="translate(305.968966886 395.7890625)scale(0.15 -0.15)">
       <use xlink:href="#ArialMT-31"/>
      </g>
     </g>
    </g>
    <g id="xtick_4">
     <g id="line2d_7">
      <g>
       <use style="fill:#262626;stroke:#262626;" x="400.981888865" xlink:href="#m2035d29e47" y="372.05234375"/>
      </g>
     </g>
     <g id="line2d_8">
      <g>
       <use style="fill:#262626;stroke:#262626;" x="400.981888865" xlink:href="#m38891e2e81" y="37.25234375"/>
      </g>
     </g>
     <g id="text_4">
      <!-- 2 -->
      <defs>
       <path d="M 50.34375 8.453125 
L 50.34375 0 
L 3.03125 0 
Q 2.9375 3.171875 4.046875 6.109375 
Q 5.859375 10.9375 9.828125 15.625 
Q 13.8125 20.3125 21.34375 26.46875 
Q 33.015625 36.03125 37.109375 41.625 
Q 41.21875 47.21875 41.21875 52.203125 
Q 41.21875 57.421875 37.46875 61 
Q 33.734375 64.59375 27.734375 64.59375 
Q 21.390625 64.59375 17.578125 60.78125 
Q 13.765625 56.984375 13.71875 50.25 
L 4.6875 51.171875 
Q 5.609375 61.28125 11.65625 66.578125 
Q 17.71875 71.875 27.9375 71.875 
Q 38.234375 71.875 44.234375 66.15625 
Q 50.25 60.453125 50.25 52 
Q 50.25 47.703125 48.484375 43.546875 
Q 46.734375 39.40625 42.65625 34.8125 
Q 38.578125 30.21875 29.109375 22.21875 
Q 21.1875 15.578125 18.9375 13.203125 
Q 16.703125 10.84375 15.234375 8.453125 
z
" id="ArialMT-32"/>
      </defs>
      <g style="fill:#262626;" transform="translate(396.81118574 395.7890625)scale(0.15 -0.15)">
       <use xlink:href="#ArialMT-32"/>
      </g>
     </g>
    </g>
    <g id="xtick_5">
     <g id="line2d_9">
      <g>
       <use style="fill:#262626;stroke:#262626;" x="491.82410772" xlink:href="#m2035d29e47" y="372.05234375"/>
      </g>
     </g>
     <g id="line2d_10">
      <g>
       <use style="fill:#262626;stroke:#262626;" x="491.82410772" xlink:href="#m38891e2e81" y="37.25234375"/>
      </g>
     </g>
     <g id="text_5">
      <!-- 3 -->
      <defs>
       <path d="M 4.203125 18.890625 
L 12.984375 20.0625 
Q 14.5 12.59375 18.140625 9.296875 
Q 21.78125 6 27 6 
Q 33.203125 6 37.46875 10.296875 
Q 41.75 14.59375 41.75 20.953125 
Q 41.75 27 37.796875 30.921875 
Q 33.84375 34.859375 27.734375 34.859375 
Q 25.25 34.859375 21.53125 33.890625 
L 22.515625 41.609375 
Q 23.390625 41.5 23.921875 41.5 
Q 29.546875 41.5 34.03125 44.421875 
Q 38.53125 47.359375 38.53125 53.46875 
Q 38.53125 58.296875 35.25 61.46875 
Q 31.984375 64.65625 26.8125 64.65625 
Q 21.6875 64.65625 18.265625 61.421875 
Q 14.84375 58.203125 13.875 51.765625 
L 5.078125 53.328125 
Q 6.6875 62.15625 12.390625 67.015625 
Q 18.109375 71.875 26.609375 71.875 
Q 32.46875 71.875 37.390625 69.359375 
Q 42.328125 66.84375 44.9375 62.5 
Q 47.5625 58.15625 47.5625 53.265625 
Q 47.5625 48.640625 45.0625 44.828125 
Q 42.578125 41.015625 37.703125 38.765625 
Q 44.046875 37.3125 47.5625 32.6875 
Q 51.078125 28.078125 51.078125 21.140625 
Q 51.078125 11.765625 44.234375 5.25 
Q 37.40625 -1.265625 26.953125 -1.265625 
Q 17.53125 -1.265625 11.296875 4.34375 
Q 5.078125 9.96875 4.203125 18.890625 
" id="ArialMT-33"/>
      </defs>
      <g style="fill:#262626;" transform="translate(487.653404595 395.7890625)scale(0.15 -0.15)">
       <use xlink:href="#ArialMT-33"/>
      </g>
     </g>
    </g>
    <g id="text_6">
     <!-- Asset 2 -->
     <defs>
      <path d="M -0.140625 0 
L 27.34375 71.578125 
L 37.546875 71.578125 
L 66.84375 0 
L 56.0625 0 
L 47.703125 21.6875 
L 17.78125 21.6875 
L 9.90625 0 
z
M 20.515625 29.390625 
L 44.78125 29.390625 
L 37.3125 49.21875 
Q 33.890625 58.25 32.234375 64.0625 
Q 30.859375 57.171875 28.375 50.390625 
z
" id="ArialMT-41"/>
      <path d="M 25.78125 7.859375 
L 27.046875 0.09375 
Q 23.34375 -0.6875 20.40625 -0.6875 
Q 15.625 -0.6875 12.984375 0.828125 
Q 10.359375 2.34375 9.28125 4.8125 
Q 8.203125 7.28125 8.203125 15.1875 
L 8.203125 45.015625 
L 1.765625 45.015625 
L 1.765625 51.859375 
L 8.203125 51.859375 
L 8.203125 64.703125 
L 16.9375 69.96875 
L 16.9375 51.859375 
L 25.78125 51.859375 
L 25.78125 45.015625 
L 16.9375 45.015625 
L 16.9375 14.703125 
Q 16.9375 10.9375 17.40625 9.859375 
Q 17.875 8.796875 18.921875 8.15625 
Q 19.96875 7.515625 21.921875 7.515625 
Q 23.390625 7.515625 25.78125 7.859375 
" id="ArialMT-74"/>
      <path id="ArialMT-20"/>
      <path d="M 42.09375 16.703125 
L 51.171875 15.578125 
Q 49.03125 7.625 43.21875 3.21875 
Q 37.40625 -1.171875 28.375 -1.171875 
Q 17 -1.171875 10.328125 5.828125 
Q 3.65625 12.84375 3.65625 25.484375 
Q 3.65625 38.578125 10.390625 45.796875 
Q 17.140625 53.03125 27.875 53.03125 
Q 38.28125 53.03125 44.875 45.953125 
Q 51.46875 38.875 51.46875 26.03125 
Q 51.46875 25.25 51.421875 23.6875 
L 12.75 23.6875 
Q 13.234375 15.140625 17.578125 10.59375 
Q 21.921875 6.0625 28.421875 6.0625 
Q 33.25 6.0625 36.671875 8.59375 
Q 40.09375 11.140625 42.09375 16.703125 
M 13.234375 30.90625 
L 42.1875 30.90625 
Q 41.609375 37.453125 38.875 40.71875 
Q 34.671875 45.796875 27.984375 45.796875 
Q 21.921875 45.796875 17.796875 41.75 
Q 13.671875 37.703125 13.234375 30.90625 
" id="ArialMT-65"/>
      <path d="M 3.078125 15.484375 
L 11.765625 16.84375 
Q 12.5 11.625 15.84375 8.84375 
Q 19.1875 6.0625 25.203125 6.0625 
Q 31.25 6.0625 34.171875 8.515625 
Q 37.109375 10.984375 37.109375 14.3125 
Q 37.109375 17.28125 34.515625 19 
Q 32.71875 20.171875 25.53125 21.96875 
Q 15.875 24.421875 12.140625 26.203125 
Q 8.40625 27.984375 6.46875 31.125 
Q 4.546875 34.28125 4.546875 38.09375 
Q 4.546875 41.546875 6.125 44.5 
Q 7.71875 47.46875 10.453125 49.421875 
Q 12.5 50.921875 16.03125 51.96875 
Q 19.578125 53.03125 23.640625 53.03125 
Q 29.734375 53.03125 34.34375 51.265625 
Q 38.96875 49.515625 41.15625 46.5 
Q 43.359375 43.5 44.1875 38.484375 
L 35.59375 37.3125 
Q 35.015625 41.3125 32.203125 43.546875 
Q 29.390625 45.796875 24.265625 45.796875 
Q 18.21875 45.796875 15.625 43.796875 
Q 13.03125 41.796875 13.03125 39.109375 
Q 13.03125 37.40625 14.109375 36.03125 
Q 15.1875 34.625 17.484375 33.6875 
Q 18.796875 33.203125 25.25 31.453125 
Q 34.578125 28.953125 38.25 27.359375 
Q 41.9375 25.78125 44.03125 22.75 
Q 46.140625 19.734375 46.140625 15.234375 
Q 46.140625 10.84375 43.578125 6.953125 
Q 41.015625 3.078125 36.171875 0.953125 
Q 31.34375 -1.171875 25.25 -1.171875 
Q 15.140625 -1.171875 9.84375 3.03125 
Q 4.546875 7.234375 3.078125 15.484375 
" id="ArialMT-73"/>
     </defs>
     <g style="fill:#262626;" transform="translate(263.34609375 425.24375)scale(0.3 -0.3)">
      <use xlink:href="#ArialMT-41"/>
      <use x="66.69921875" xlink:href="#ArialMT-73"/>
      <use x="116.69921875" xlink:href="#ArialMT-73"/>
      <use x="166.69921875" xlink:href="#ArialMT-65"/>
      <use x="222.314453125" xlink:href="#ArialMT-74"/>
      <use x="250.09765625" xlink:href="#ArialMT-20"/>
      <use x="277.880859375" xlink:href="#ArialMT-32"/>
     </g>
    </g>
   </g>
   <g id="matplotlib.axis_2">
    <g id="ytick_1">
     <g id="line2d_11">
      <defs>
       <path d="M 0 0 
L -6 0 
" id="m074f6156ba" style="stroke:#262626;"/>
      </defs>
      <g>
       <use style="fill:#262626;stroke:#262626;" x="90.16875" xlink:href="#m074f6156ba" y="372.05234375"/>
      </g>
     </g>
     <g id="line2d_12">
      <defs>
       <path d="M 0 0 
L 6 0 
" id="m25d1bcd9ed" style="stroke:#262626;"/>
      </defs>
      <g>
       <use style="fill:#262626;stroke:#262626;" x="536.56875" xlink:href="#m25d1bcd9ed" y="372.05234375"/>
      </g>
     </g>
     <g id="text_7">
      <!-- 19.85 -->
      <defs>
       <path d="M 17.671875 38.8125 
Q 12.203125 40.828125 9.5625 44.53125 
Q 6.9375 48.25 6.9375 53.421875 
Q 6.9375 61.234375 12.546875 66.546875 
Q 18.171875 71.875 27.484375 71.875 
Q 36.859375 71.875 42.578125 66.421875 
Q 48.296875 60.984375 48.296875 53.171875 
Q 48.296875 48.1875 45.671875 44.5 
Q 43.0625 40.828125 37.75 38.8125 
Q 44.34375 36.671875 47.78125 31.875 
Q 51.21875 27.09375 51.21875 20.453125 
Q 51.21875 11.28125 44.71875 5.03125 
Q 38.234375 -1.21875 27.640625 -1.21875 
Q 17.046875 -1.21875 10.546875 5.046875 
Q 4.046875 11.328125 4.046875 20.703125 
Q 4.046875 27.6875 7.59375 32.390625 
Q 11.140625 37.109375 17.671875 38.8125 
M 15.921875 53.71875 
Q 15.921875 48.640625 19.1875 45.40625 
Q 22.46875 42.1875 27.6875 42.1875 
Q 32.765625 42.1875 36.015625 45.375 
Q 39.265625 48.578125 39.265625 53.21875 
Q 39.265625 58.0625 35.90625 61.359375 
Q 32.5625 64.65625 27.59375 64.65625 
Q 22.5625 64.65625 19.234375 61.421875 
Q 15.921875 58.203125 15.921875 53.71875 
M 13.09375 20.65625 
Q 13.09375 16.890625 14.875 13.375 
Q 16.65625 9.859375 20.171875 7.921875 
Q 23.6875 6 27.734375 6 
Q 34.03125 6 38.125 10.046875 
Q 42.234375 14.109375 42.234375 20.359375 
Q 42.234375 26.703125 38.015625 30.859375 
Q 33.796875 35.015625 27.4375 35.015625 
Q 21.234375 35.015625 17.15625 30.90625 
Q 13.09375 26.8125 13.09375 20.65625 
" id="ArialMT-38"/>
       <path d="M 5.46875 16.546875 
L 13.921875 17.328125 
Q 14.984375 11.375 18.015625 8.6875 
Q 21.046875 6 25.78125 6 
Q 29.828125 6 32.875 7.859375 
Q 35.9375 9.71875 37.890625 12.8125 
Q 39.84375 15.921875 41.15625 21.1875 
Q 42.484375 26.46875 42.484375 31.9375 
Q 42.484375 32.515625 42.4375 33.6875 
Q 39.796875 29.5 35.234375 26.875 
Q 30.671875 24.265625 25.34375 24.265625 
Q 16.453125 24.265625 10.296875 30.703125 
Q 4.15625 37.15625 4.15625 47.703125 
Q 4.15625 58.59375 10.578125 65.234375 
Q 17 71.875 26.65625 71.875 
Q 33.640625 71.875 39.421875 68.109375 
Q 45.21875 64.359375 48.21875 57.390625 
Q 51.21875 50.4375 51.21875 37.25 
Q 51.21875 23.53125 48.234375 15.40625 
Q 45.265625 7.28125 39.375 3.03125 
Q 33.5 -1.21875 25.59375 -1.21875 
Q 17.1875 -1.21875 11.859375 3.4375 
Q 6.546875 8.109375 5.46875 16.546875 
M 41.453125 48.140625 
Q 41.453125 55.71875 37.421875 60.15625 
Q 33.40625 64.59375 27.734375 64.59375 
Q 21.875 64.59375 17.53125 59.8125 
Q 13.1875 55.03125 13.1875 47.40625 
Q 13.1875 40.578125 17.3125 36.296875 
Q 21.4375 32.03125 27.484375 32.03125 
Q 33.59375 32.03125 37.515625 36.296875 
Q 41.453125 40.578125 41.453125 48.140625 
" id="ArialMT-39"/>
       <path d="M 9.078125 0 
L 9.078125 10.015625 
L 19.09375 10.015625 
L 19.09375 0 
z
" id="ArialMT-2e"/>
       <path d="M 4.15625 18.75 
L 13.375 19.53125 
Q 14.40625 12.796875 18.140625 9.390625 
Q 21.875 6 27.15625 6 
Q 33.5 6 37.890625 10.78125 
Q 42.28125 15.578125 42.28125 23.484375 
Q 42.28125 31 38.0625 35.34375 
Q 33.84375 39.703125 27 39.703125 
Q 22.75 39.703125 19.328125 37.765625 
Q 15.921875 35.84375 13.96875 32.765625 
L 5.71875 33.84375 
L 12.640625 70.609375 
L 48.25 70.609375 
L 48.25 62.203125 
L 19.671875 62.203125 
L 15.828125 42.96875 
Q 22.265625 47.46875 29.34375 47.46875 
Q 38.71875 47.46875 45.15625 40.96875 
Q 51.609375 34.46875 51.609375 24.265625 
Q 51.609375 14.546875 45.953125 7.46875 
Q 39.0625 -1.21875 27.15625 -1.21875 
Q 17.390625 -1.21875 11.203125 4.25 
Q 5.03125 9.71875 4.15625 18.75 
" id="ArialMT-35"/>
      </defs>
      <g style="fill:#262626;" transform="translate(39.6359375 375.930078125)scale(0.15 -0.15)">
       <use xlink:href="#ArialMT-31"/>
       <use x="55.615234375" xlink:href="#ArialMT-39"/>
       <use x="111.23046875" xlink:href="#ArialMT-2e"/>
       <use x="139.013671875" xlink:href="#ArialMT-38"/>
       <use x="194.62890625" xlink:href="#ArialMT-35"/>
      </g>
     </g>
    </g>
    <g id="ytick_2">
     <g id="line2d_13">
      <g>
       <use style="fill:#262626;stroke:#262626;" x="90.16875" xlink:href="#m074f6156ba" y="334.85234375"/>
      </g>
     </g>
     <g id="line2d_14">
      <g>
       <use style="fill:#262626;stroke:#262626;" x="536.56875" xlink:href="#m25d1bcd9ed" y="334.85234375"/>
      </g>
     </g>
     <g id="text_8">
      <!-- 19.90 -->
      <g style="fill:#262626;" transform="translate(39.6359375 338.730078125)scale(0.15 -0.15)">
       <use xlink:href="#ArialMT-31"/>
       <use x="55.615234375" xlink:href="#ArialMT-39"/>
       <use x="111.23046875" xlink:href="#ArialMT-2e"/>
       <use x="139.013671875" xlink:href="#ArialMT-39"/>
       <use x="194.62890625" xlink:href="#ArialMT-30"/>
      </g>
     </g>
    </g>
    <g id="ytick_3">
     <g id="line2d_15">
      <g>
       <use style="fill:#262626;stroke:#262626;" x="90.16875" xlink:href="#m074f6156ba" y="297.65234375"/>
      </g>
     </g>
     <g id="line2d_16">
      <g>
       <use style="fill:#262626;stroke:#262626;" x="536.56875" xlink:href="#m25d1bcd9ed" y="297.65234375"/>
      </g>
     </g>
     <g id="text_9">
      <!-- 19.95 -->
      <g style="fill:#262626;" transform="translate(39.6359375 301.530078125)scale(0.15 -0.15)">
       <use xlink:href="#ArialMT-31"/>
       <use x="55.615234375" xlink:href="#ArialMT-39"/>
       <use x="111.23046875" xlink:href="#ArialMT-2e"/>
       <use x="139.013671875" xlink:href="#ArialMT-39"/>
       <use x="194.62890625" xlink:href="#ArialMT-35"/>
      </g>
     </g>
    </g>
    <g id="ytick_4">
     <g id="line2d_17">
      <g>
       <use style="fill:#262626;stroke:#262626;" x="90.16875" xlink:href="#m074f6156ba" y="260.45234375"/>
      </g>
     </g>
     <g id="line2d_18">
      <g>
       <use style="fill:#262626;stroke:#262626;" x="536.56875" xlink:href="#m25d1bcd9ed" y="260.45234375"/>
      </g>
     </g>
     <g id="text_10">
      <!-- 20.00 -->
      <g style="fill:#262626;" transform="translate(39.6359375 264.330078125)scale(0.15 -0.15)">
       <use xlink:href="#ArialMT-32"/>
       <use x="55.615234375" xlink:href="#ArialMT-30"/>
       <use x="111.23046875" xlink:href="#ArialMT-2e"/>
       <use x="139.013671875" xlink:href="#ArialMT-30"/>
       <use x="194.62890625" xlink:href="#ArialMT-30"/>
      </g>
     </g>
    </g>
    <g id="ytick_5">
     <g id="line2d_19">
      <g>
       <use style="fill:#262626;stroke:#262626;" x="90.16875" xlink:href="#m074f6156ba" y="223.25234375"/>
      </g>
     </g>
     <g id="line2d_20">
      <g>
       <use style="fill:#262626;stroke:#262626;" x="536.56875" xlink:href="#m25d1bcd9ed" y="223.25234375"/>
      </g>
     </g>
     <g id="text_11">
      <!-- 20.05 -->
      <g style="fill:#262626;" transform="translate(39.6359375 227.130078125)scale(0.15 -0.15)">
       <use xlink:href="#ArialMT-32"/>
       <use x="55.615234375" xlink:href="#ArialMT-30"/>
       <use x="111.23046875" xlink:href="#ArialMT-2e"/>
       <use x="139.013671875" xlink:href="#ArialMT-30"/>
       <use x="194.62890625" xlink:href="#ArialMT-35"/>
      </g>
     </g>
    </g>
    <g id="ytick_6">
     <g id="line2d_21">
      <g>
       <use style="fill:#262626;stroke:#262626;" x="90.16875" xlink:href="#m074f6156ba" y="186.05234375"/>
      </g>
     </g>
     <g id="line2d_22">
      <g>
       <use style="fill:#262626;stroke:#262626;" x="536.56875" xlink:href="#m25d1bcd9ed" y="186.05234375"/>
      </g>
     </g>
     <g id="text_12">
      <!-- 20.10 -->
      <g style="fill:#262626;" transform="translate(39.6359375 189.930078125)scale(0.15 -0.15)">
       <use xlink:href="#ArialMT-32"/>
       <use x="55.615234375" xlink:href="#ArialMT-30"/>
       <use x="111.23046875" xlink:href="#ArialMT-2e"/>
       <use x="139.013671875" xlink:href="#ArialMT-31"/>
       <use x="194.62890625" xlink:href="#ArialMT-30"/>
      </g>
     </g>
    </g>
    <g id="ytick_7">
     <g id="line2d_23">
      <g>
       <use style="fill:#262626;stroke:#262626;" x="90.16875" xlink:href="#m074f6156ba" y="148.85234375"/>
      </g>
     </g>
     <g id="line2d_24">
      <g>
       <use style="fill:#262626;stroke:#262626;" x="536.56875" xlink:href="#m25d1bcd9ed" y="148.85234375"/>
      </g>
     </g>
     <g id="text_13">
      <!-- 20.15 -->
      <g style="fill:#262626;" transform="translate(39.6359375 152.730078125)scale(0.15 -0.15)">
       <use xlink:href="#ArialMT-32"/>
       <use x="55.615234375" xlink:href="#ArialMT-30"/>
       <use x="111.23046875" xlink:href="#ArialMT-2e"/>
       <use x="139.013671875" xlink:href="#ArialMT-31"/>
       <use x="194.62890625" xlink:href="#ArialMT-35"/>
      </g>
     </g>
    </g>
    <g id="ytick_8">
     <g id="line2d_25">
      <g>
       <use style="fill:#262626;stroke:#262626;" x="90.16875" xlink:href="#m074f6156ba" y="111.65234375"/>
      </g>
     </g>
     <g id="line2d_26">
      <g>
       <use style="fill:#262626;stroke:#262626;" x="536.56875" xlink:href="#m25d1bcd9ed" y="111.65234375"/>
      </g>
     </g>
     <g id="text_14">
      <!-- 20.20 -->
      <g style="fill:#262626;" transform="translate(39.6359375 115.530078125)scale(0.15 -0.15)">
       <use xlink:href="#ArialMT-32"/>
       <use x="55.615234375" xlink:href="#ArialMT-30"/>
       <use x="111.23046875" xlink:href="#ArialMT-2e"/>
       <use x="139.013671875" xlink:href="#ArialMT-32"/>
       <use x="194.62890625" xlink:href="#ArialMT-30"/>
      </g>
     </g>
    </g>
    <g id="ytick_9">
     <g id="line2d_27">
      <g>
       <use style="fill:#262626;stroke:#262626;" x="90.16875" xlink:href="#m074f6156ba" y="74.45234375"/>
      </g>
     </g>
     <g id="line2d_28">
      <g>
       <use style="fill:#262626;stroke:#262626;" x="536.56875" xlink:href="#m25d1bcd9ed" y="74.45234375"/>
      </g>
     </g>
     <g id="text_15">
      <!-- 20.25 -->
      <g style="fill:#262626;" transform="translate(39.6359375 78.330078125)scale(0.15 -0.15)">
       <use xlink:href="#ArialMT-32"/>
       <use x="55.615234375" xlink:href="#ArialMT-30"/>
       <use x="111.23046875" xlink:href="#ArialMT-2e"/>
       <use x="139.013671875" xlink:href="#ArialMT-32"/>
       <use x="194.62890625" xlink:href="#ArialMT-35"/>
      </g>
     </g>
    </g>
    <g id="ytick_10">
     <g id="line2d_29">
      <g>
       <use style="fill:#262626;stroke:#262626;" x="90.16875" xlink:href="#m074f6156ba" y="37.25234375"/>
      </g>
     </g>
     <g id="line2d_30">
      <g>
       <use style="fill:#262626;stroke:#262626;" x="536.56875" xlink:href="#m25d1bcd9ed" y="37.25234375"/>
      </g>
     </g>
     <g id="text_16">
      <!-- 20.30 -->
      <g style="fill:#262626;" transform="translate(39.6359375 41.130078125)scale(0.15 -0.15)">
       <use xlink:href="#ArialMT-32"/>
       <use x="55.615234375" xlink:href="#ArialMT-30"/>
       <use x="111.23046875" xlink:href="#ArialMT-2e"/>
       <use x="139.013671875" xlink:href="#ArialMT-33"/>
       <use x="194.62890625" xlink:href="#ArialMT-30"/>
      </g>
     </g>
    </g>
    <g id="text_17">
     <!-- Asset 1 -->
     <g style="fill:#262626;" transform="translate(28.6734375 254.675)rotate(-90.0)scale(0.3 -0.3)">
      <use xlink:href="#ArialMT-41"/>
      <use x="66.69921875" xlink:href="#ArialMT-73"/>
      <use x="116.69921875" xlink:href="#ArialMT-73"/>
      <use x="166.69921875" xlink:href="#ArialMT-65"/>
      <use x="222.314453125" xlink:href="#ArialMT-74"/>
      <use x="250.09765625" xlink:href="#ArialMT-20"/>
      <use x="277.880859375" xlink:href="#ArialMT-31"/>
     </g>
    </g>
   </g>
   <g id="PathCollection_1">
    <defs>
     <path d="M 0 5 
C 1.326016 5 2.597899 4.473168 3.535534 3.535534 
C 4.473168 2.597899 5 1.326016 5 0 
C 5 -1.326016 4.473168 -2.597899 3.535534 -3.535534 
C 2.597899 -4.473168 1.326016 -5 0 -5 
C -1.326016 -5 -2.597899 -4.473168 -3.535534 -3.535534 
C -4.473168 -2.597899 -5 -1.326016 -5 0 
C -5 1.326016 -4.473168 2.597899 -3.535534 3.535534 
C -2.597899 4.473168 -1.326016 5 0 5 
z
" id="m4a20d39e44" style="stroke:#000000;stroke-width:0.3;"/>
    </defs>
    <g clip-path="url(#pde1ef5475c)">
     <use style="fill:#0000ff;stroke:#000000;stroke-width:0.3;" x="229.831538319" xlink:href="#m4a20d39e44" y="318.155857631"/>
     <use style="fill:#0000ff;stroke:#000000;stroke-width:0.3;" x="199.192118285" xlink:href="#m4a20d39e44" y="286.05002866"/>
     <use style="fill:#0000ff;stroke:#000000;stroke-width:0.3;" x="292.748493626" xlink:href="#m4a20d39e44" y="183.908625434"/>
     <use style="fill:#0000ff;stroke:#000000;stroke-width:0.3;" x="207.995365088" xlink:href="#m4a20d39e44" y="333.882786311"/>
     <use style="fill:#0000ff;stroke:#000000;stroke-width:0.3;" x="222.59703737" xlink:href="#m4a20d39e44" y="256.949952039"/>
     <use style="fill:#0000ff;stroke:#000000;stroke-width:0.3;" x="284.110777925" xlink:href="#m4a20d39e44" y="148.39648992"/>
     <use style="fill:#0000ff;stroke:#000000;stroke-width:0.3;" x="339.181341322" xlink:href="#m4a20d39e44" y="171.84618661"/>
     <use style="fill:#0000ff;stroke:#000000;stroke-width:0.3;" x="236.428092176" xlink:href="#m4a20d39e44" y="221.356730138"/>
     <use style="fill:#0000ff;stroke:#000000;stroke-width:0.3;" x="198.897310935" xlink:href="#m4a20d39e44" y="210.488703101"/>
     <use style="fill:#0000ff;stroke:#000000;stroke-width:0.3;" x="215.01894927" xlink:href="#m4a20d39e44" y="194.111323617"/>
     <use style="fill:#0000ff;stroke:#000000;stroke-width:0.3;" x="269.14450055" xlink:href="#m4a20d39e44" y="213.540551218"/>
     <use style="fill:#0000ff;stroke:#000000;stroke-width:0.3;" x="241.336806618" xlink:href="#m4a20d39e44" y="279.750790159"/>
     <use style="fill:#0000ff;stroke:#000000;stroke-width:0.3;" x="233.510311523" xlink:href="#m4a20d39e44" y="240.505942474"/>
     <use style="fill:#0000ff;stroke:#000000;stroke-width:0.3;" x="263.23648418" xlink:href="#m4a20d39e44" y="201.995785507"/>
     <use style="fill:#0000ff;stroke:#000000;stroke-width:0.3;" x="269.330721328" xlink:href="#m4a20d39e44" y="234.074219136"/>
     <use style="fill:#0000ff;stroke:#000000;stroke-width:0.3;" x="251.523625126" xlink:href="#m4a20d39e44" y="262.295989548"/>
     <use style="fill:#0000ff;stroke:#000000;stroke-width:0.3;" x="189.657097464" xlink:href="#m4a20d39e44" y="231.553497818"/>
     <use style="fill:#0000ff;stroke:#000000;stroke-width:0.3;" x="242.190418159" xlink:href="#m4a20d39e44" y="249.190855331"/>
     <use style="fill:#0000ff;stroke:#000000;stroke-width:0.3;" x="241.603046286" xlink:href="#m4a20d39e44" y="268.27848026"/>
     <use style="fill:#0000ff;stroke:#000000;stroke-width:0.3;" x="252.143940955" xlink:href="#m4a20d39e44" y="159.359232693"/>
     <use style="fill:#0000ff;stroke:#000000;stroke-width:0.3;" x="271.047103558" xlink:href="#m4a20d39e44" y="165.849560957"/>
     <use style="fill:#0000ff;stroke:#000000;stroke-width:0.3;" x="251.285740918" xlink:href="#m4a20d39e44" y="225.696030871"/>
     <use style="fill:#0000ff;stroke:#000000;stroke-width:0.3;" x="303.922901753" xlink:href="#m4a20d39e44" y="165.036208423"/>
     <use style="fill:#0000ff;stroke:#000000;stroke-width:0.3;" x="235.35634815" xlink:href="#m4a20d39e44" y="299.797246308"/>
     <use style="fill:#0000ff;stroke:#000000;stroke-width:0.3;" x="241.508913777" xlink:href="#m4a20d39e44" y="224.507163914"/>
     <use style="fill:#0000ff;stroke:#000000;stroke-width:0.3;" x="245.919415898" xlink:href="#m4a20d39e44" y="245.870283892"/>
     <use style="fill:#0000ff;stroke:#000000;stroke-width:0.3;" x="207.241503018" xlink:href="#m4a20d39e44" y="300.894397806"/>
     <use style="fill:#0000ff;stroke:#000000;stroke-width:0.3;" x="213.472471594" xlink:href="#m4a20d39e44" y="268.585690066"/>
     <use style="fill:#0000ff;stroke:#000000;stroke-width:0.3;" x="248.709019709" xlink:href="#m4a20d39e44" y="231.250674057"/>
     <use style="fill:#0000ff;stroke:#000000;stroke-width:0.3;" x="200.710384368" xlink:href="#m4a20d39e44" y="303.302479224"/>
     <use style="fill:#0000ff;stroke:#000000;stroke-width:0.3;" x="270.202256106" xlink:href="#m4a20d39e44" y="197.174723899"/>
     <use style="fill:#0000ff;stroke:#000000;stroke-width:0.3;" x="223.08219481" xlink:href="#m4a20d39e44" y="243.519596014"/>
     <use style="fill:#0000ff;stroke:#000000;stroke-width:0.3;" x="246.741929789" xlink:href="#m4a20d39e44" y="230.61212807"/>
     <use style="fill:#0000ff;stroke:#000000;stroke-width:0.3;" x="211.594116073" xlink:href="#m4a20d39e44" y="307.381385592"/>
     <use style="fill:#0000ff;stroke:#000000;stroke-width:0.3;" x="236.179066828" xlink:href="#m4a20d39e44" y="173.374810473"/>
     <use style="fill:#0000ff;stroke:#000000;stroke-width:0.3;" x="235.209180361" xlink:href="#m4a20d39e44" y="293.638877495"/>
     <use style="fill:#0000ff;stroke:#000000;stroke-width:0.3;" x="256.680835083" xlink:href="#m4a20d39e44" y="237.297854522"/>
     <use style="fill:#0000ff;stroke:#000000;stroke-width:0.3;" x="256.097997359" xlink:href="#m4a20d39e44" y="223.591550338"/>
     <use style="fill:#0000ff;stroke:#000000;stroke-width:0.3;" x="330.839891712" xlink:href="#m4a20d39e44" y="203.17267728"/>
     <use style="fill:#0000ff;stroke:#000000;stroke-width:0.3;" x="266.556188125" xlink:href="#m4a20d39e44" y="199.12989247"/>
     <use style="fill:#0000ff;stroke:#000000;stroke-width:0.3;" x="283.075461122" xlink:href="#m4a20d39e44" y="277.574104545"/>
     <use style="fill:#0000ff;stroke:#000000;stroke-width:0.3;" x="204.94729929" xlink:href="#m4a20d39e44" y="259.107102064"/>
     <use style="fill:#0000ff;stroke:#000000;stroke-width:0.3;" x="330.961455321" xlink:href="#m4a20d39e44" y="176.958161605"/>
     <use style="fill:#0000ff;stroke:#000000;stroke-width:0.3;" x="211.614965052" xlink:href="#m4a20d39e44" y="313.590092403"/>
     <use style="fill:#0000ff;stroke:#000000;stroke-width:0.3;" x="239.5779456" xlink:href="#m4a20d39e44" y="236.353851281"/>
     <use style="fill:#0000ff;stroke:#000000;stroke-width:0.3;" x="254.961289759" xlink:href="#m4a20d39e44" y="208.503242181"/>
     <use style="fill:#0000ff;stroke:#000000;stroke-width:0.3;" x="221.176581018" xlink:href="#m4a20d39e44" y="317.967653275"/>
     <use style="fill:#0000ff;stroke:#000000;stroke-width:0.3;" x="221.292279245" xlink:href="#m4a20d39e44" y="295.728756269"/>
     <use style="fill:#0000ff;stroke:#000000;stroke-width:0.3;" x="247.111243479" xlink:href="#m4a20d39e44" y="277.894246586"/>
     <use style="fill:#0000ff;stroke:#000000;stroke-width:0.3;" x="331.285092985" xlink:href="#m4a20d39e44" y="127.422846414"/>
     <use style="fill:#0000ff;stroke:#000000;stroke-width:0.3;" x="300.944071444" xlink:href="#m4a20d39e44" y="149.150958933"/>
     <use style="fill:#0000ff;stroke:#000000;stroke-width:0.3;" x="219.355528016" xlink:href="#m4a20d39e44" y="219.92480635"/>
     <use style="fill:#0000ff;stroke:#000000;stroke-width:0.3;" x="245.437949188" xlink:href="#m4a20d39e44" y="219.811439725"/>
     <use style="fill:#0000ff;stroke:#000000;stroke-width:0.3;" x="224.040288836" xlink:href="#m4a20d39e44" y="270.946223763"/>
     <use style="fill:#0000ff;stroke:#000000;stroke-width:0.3;" x="237.947455315" xlink:href="#m4a20d39e44" y="276.300445769"/>
     <use style="fill:#0000ff;stroke:#000000;stroke-width:0.3;" x="228.906587558" xlink:href="#m4a20d39e44" y="223.447094171"/>
     <use style="fill:#0000ff;stroke:#000000;stroke-width:0.3;" x="244.89527466" xlink:href="#m4a20d39e44" y="214.456400343"/>
     <use style="fill:#0000ff;stroke:#000000;stroke-width:0.3;" x="312.429653268" xlink:href="#m4a20d39e44" y="192.680876626"/>
     <use style="fill:#0000ff;stroke:#000000;stroke-width:0.3;" x="278.618988585" xlink:href="#m4a20d39e44" y="181.114994344"/>
     <use style="fill:#0000ff;stroke:#000000;stroke-width:0.3;" x="272.122757707" xlink:href="#m4a20d39e44" y="197.90072024"/>
     <use style="fill:#0000ff;stroke:#000000;stroke-width:0.3;" x="328.428619509" xlink:href="#m4a20d39e44" y="175.799317931"/>
     <use style="fill:#0000ff;stroke:#000000;stroke-width:0.3;" x="236.518475196" xlink:href="#m4a20d39e44" y="222.645058045"/>
     <use style="fill:#0000ff;stroke:#000000;stroke-width:0.3;" x="292.16549783" xlink:href="#m4a20d39e44" y="266.766727427"/>
     <use style="fill:#0000ff;stroke:#000000;stroke-width:0.3;" x="239.558954463" xlink:href="#m4a20d39e44" y="222.932644208"/>
     <use style="fill:#0000ff;stroke:#000000;stroke-width:0.3;" x="319.525127259" xlink:href="#m4a20d39e44" y="143.153917623"/>
     <use style="fill:#0000ff;stroke:#000000;stroke-width:0.3;" x="228.785424617" xlink:href="#m4a20d39e44" y="306.654163578"/>
     <use style="fill:#0000ff;stroke:#000000;stroke-width:0.3;" x="181.010968854" xlink:href="#m4a20d39e44" y="297.826986035"/>
     <use style="fill:#0000ff;stroke:#000000;stroke-width:0.3;" x="211.402137307" xlink:href="#m4a20d39e44" y="224.448928574"/>
     <use style="fill:#0000ff;stroke:#000000;stroke-width:0.3;" x="266.520760823" xlink:href="#m4a20d39e44" y="268.700680272"/>
     <use style="fill:#0000ff;stroke:#000000;stroke-width:0.3;" x="224.930199854" xlink:href="#m4a20d39e44" y="234.296089187"/>
     <use style="fill:#0000ff;stroke:#000000;stroke-width:0.3;" x="324.656178517" xlink:href="#m4a20d39e44" y="219.709910755"/>
     <use style="fill:#0000ff;stroke:#000000;stroke-width:0.3;" x="245.484803848" xlink:href="#m4a20d39e44" y="213.864937166"/>
     <use style="fill:#0000ff;stroke:#000000;stroke-width:0.3;" x="279.463032734" xlink:href="#m4a20d39e44" y="185.146467303"/>
     <use style="fill:#0000ff;stroke:#000000;stroke-width:0.3;" x="264.060827736" xlink:href="#m4a20d39e44" y="170.659612476"/>
     <use style="fill:#0000ff;stroke:#000000;stroke-width:0.3;" x="262.421576023" xlink:href="#m4a20d39e44" y="208.176386642"/>
     <use style="fill:#0000ff;stroke:#000000;stroke-width:0.3;" x="250.21264189" xlink:href="#m4a20d39e44" y="261.031753492"/>
     <use style="fill:#0000ff;stroke:#000000;stroke-width:0.3;" x="220.773155897" xlink:href="#m4a20d39e44" y="264.252356638"/>
     <use style="fill:#0000ff;stroke:#000000;stroke-width:0.3;" x="240.002334347" xlink:href="#m4a20d39e44" y="271.546160888"/>
     <use style="fill:#0000ff;stroke:#000000;stroke-width:0.3;" x="260.304511073" xlink:href="#m4a20d39e44" y="270.384440722"/>
     <use style="fill:#0000ff;stroke:#000000;stroke-width:0.3;" x="267.232552899" xlink:href="#m4a20d39e44" y="212.174592542"/>
     <use style="fill:#0000ff;stroke:#000000;stroke-width:0.3;" x="291.445438387" xlink:href="#m4a20d39e44" y="248.033237531"/>
     <use style="fill:#0000ff;stroke:#000000;stroke-width:0.3;" x="270.706414169" xlink:href="#m4a20d39e44" y="260.314322975"/>
     <use style="fill:#0000ff;stroke:#000000;stroke-width:0.3;" x="203.04860053" xlink:href="#m4a20d39e44" y="313.141456919"/>
     <use style="fill:#0000ff;stroke:#000000;stroke-width:0.3;" x="445.726531146" xlink:href="#m4a20d39e44" y="69.5538568389"/>
     <use style="fill:#0000ff;stroke:#000000;stroke-width:0.3;" x="223.344377587" xlink:href="#m4a20d39e44" y="219.342097645"/>
     <use style="fill:#0000ff;stroke:#000000;stroke-width:0.3;" x="296.229784207" xlink:href="#m4a20d39e44" y="202.317451804"/>
     <use style="fill:#0000ff;stroke:#000000;stroke-width:0.3;" x="219.325182567" xlink:href="#m4a20d39e44" y="251.647399384"/>
     <use style="fill:#0000ff;stroke:#000000;stroke-width:0.3;" x="235.640084984" xlink:href="#m4a20d39e44" y="263.731652312"/>
     <use style="fill:#0000ff;stroke:#000000;stroke-width:0.3;" x="309.692378127" xlink:href="#m4a20d39e44" y="217.181097658"/>
     <use style="fill:#0000ff;stroke:#000000;stroke-width:0.3;" x="321.938672497" xlink:href="#m4a20d39e44" y="199.157708363"/>
     <use style="fill:#0000ff;stroke:#000000;stroke-width:0.3;" x="256.328570203" xlink:href="#m4a20d39e44" y="192.982823482"/>
     <use style="fill:#0000ff;stroke:#000000;stroke-width:0.3;" x="189.84705216" xlink:href="#m4a20d39e44" y="289.478173686"/>
     <use style="fill:#0000ff;stroke:#000000;stroke-width:0.3;" x="255.254701672" xlink:href="#m4a20d39e44" y="229.799321009"/>
     <use style="fill:#0000ff;stroke:#000000;stroke-width:0.3;" x="246.436573767" xlink:href="#m4a20d39e44" y="195.230812419"/>
     <use style="fill:#0000ff;stroke:#000000;stroke-width:0.3;" x="261.409892863" xlink:href="#m4a20d39e44" y="188.674423646"/>
     <use style="fill:#0000ff;stroke:#000000;stroke-width:0.3;" x="268.174309974" xlink:href="#m4a20d39e44" y="254.664101406"/>
    </g>
   </g>
   <g id="patch_3">
    <path d="M 90.16875 37.252344 
L 536.56875 37.252344 
" style="fill:none;stroke:#262626;stroke-linecap:square;stroke-linejoin:miter;stroke-width:1.25;"/>
   </g>
   <g id="patch_4">
    <path d="M 536.56875 372.052344 
L 536.56875 37.252344 
" style="fill:none;stroke:#262626;stroke-linecap:square;stroke-linejoin:miter;stroke-width:1.25;"/>
   </g>
   <g id="patch_5">
    <path d="M 90.16875 372.052344 
L 536.56875 372.052344 
" style="fill:none;stroke:#262626;stroke-linecap:square;stroke-linejoin:miter;stroke-width:1.25;"/>
   </g>
   <g id="patch_6">
    <path d="M 90.16875 372.052344 
L 90.16875 37.252344 
" style="fill:none;stroke:#262626;stroke-linecap:square;stroke-linejoin:miter;stroke-width:1.25;"/>
   </g>
   <g id="text_18">
    <!-- Asset Values -->
    <defs>
     <path d="M 6.390625 0 
L 6.390625 71.578125 
L 15.1875 71.578125 
L 15.1875 0 
z
" id="ArialMT-6c"/>
     <path d="M 40.578125 0 
L 40.578125 7.625 
Q 34.515625 -1.171875 24.125 -1.171875 
Q 19.53125 -1.171875 15.546875 0.578125 
Q 11.578125 2.34375 9.640625 5 
Q 7.71875 7.671875 6.9375 11.53125 
Q 6.390625 14.109375 6.390625 19.734375 
L 6.390625 51.859375 
L 15.1875 51.859375 
L 15.1875 23.09375 
Q 15.1875 16.21875 15.71875 13.8125 
Q 16.546875 10.359375 19.234375 8.375 
Q 21.921875 6.390625 25.875 6.390625 
Q 29.828125 6.390625 33.296875 8.421875 
Q 36.765625 10.453125 38.203125 13.9375 
Q 39.65625 17.4375 39.65625 24.078125 
L 39.65625 51.859375 
L 48.4375 51.859375 
L 48.4375 0 
z
" id="ArialMT-75"/>
     <path d="M 40.4375 6.390625 
Q 35.546875 2.25 31.03125 0.53125 
Q 26.515625 -1.171875 21.34375 -1.171875 
Q 12.796875 -1.171875 8.203125 3 
Q 3.609375 7.171875 3.609375 13.671875 
Q 3.609375 17.484375 5.34375 20.625 
Q 7.078125 23.78125 9.890625 25.6875 
Q 12.703125 27.59375 16.21875 28.5625 
Q 18.796875 29.25 24.03125 29.890625 
Q 34.671875 31.15625 39.703125 32.90625 
Q 39.75 34.71875 39.75 35.203125 
Q 39.75 40.578125 37.25 42.78125 
Q 33.890625 45.75 27.25 45.75 
Q 21.046875 45.75 18.09375 43.578125 
Q 15.140625 41.40625 13.71875 35.890625 
L 5.125 37.0625 
Q 6.296875 42.578125 8.984375 45.96875 
Q 11.671875 49.359375 16.75 51.1875 
Q 21.828125 53.03125 28.515625 53.03125 
Q 35.15625 53.03125 39.296875 51.46875 
Q 43.453125 49.90625 45.40625 47.53125 
Q 47.359375 45.171875 48.140625 41.546875 
Q 48.578125 39.3125 48.578125 33.453125 
L 48.578125 21.734375 
Q 48.578125 9.46875 49.140625 6.21875 
Q 49.703125 2.984375 51.375 0 
L 42.1875 0 
Q 40.828125 2.734375 40.4375 6.390625 
M 39.703125 26.03125 
Q 34.90625 24.078125 25.34375 22.703125 
Q 19.921875 21.921875 17.671875 20.9375 
Q 15.4375 19.96875 14.203125 18.09375 
Q 12.984375 16.21875 12.984375 13.921875 
Q 12.984375 10.40625 15.640625 8.0625 
Q 18.3125 5.71875 23.4375 5.71875 
Q 28.515625 5.71875 32.46875 7.9375 
Q 36.421875 10.15625 38.28125 14.015625 
Q 39.703125 17 39.703125 22.796875 
z
" id="ArialMT-61"/>
     <path d="M 28.171875 0 
L 0.4375 71.578125 
L 10.6875 71.578125 
L 29.296875 19.578125 
Q 31.546875 13.328125 33.0625 7.859375 
Q 34.71875 13.71875 36.921875 19.578125 
L 56.25 71.578125 
L 65.921875 71.578125 
L 37.890625 0 
z
" id="ArialMT-56"/>
    </defs>
    <g style="fill:#262626;" transform="translate(211.253515625 32.25234375)scale(0.35 -0.35)">
     <use xlink:href="#ArialMT-41"/>
     <use x="66.69921875" xlink:href="#ArialMT-73"/>
     <use x="116.69921875" xlink:href="#ArialMT-73"/>
     <use x="166.69921875" xlink:href="#ArialMT-65"/>
     <use x="222.314453125" xlink:href="#ArialMT-74"/>
     <use x="250.09765625" xlink:href="#ArialMT-20"/>
     <use x="277.880859375" xlink:href="#ArialMT-56"/>
     <use x="344.470703125" xlink:href="#ArialMT-61"/>
     <use x="400.0859375" xlink:href="#ArialMT-6c"/>
     <use x="422.302734375" xlink:href="#ArialMT-75"/>
     <use x="477.91796875" xlink:href="#ArialMT-65"/>
     <use x="533.533203125" xlink:href="#ArialMT-73"/>
    </g>
   </g>
  </g>
 </g>
 <defs>
  <clipPath id="pde1ef5475c">
   <rect height="334.8" width="446.4" x="90.16875" y="37.25234375"/>
  </clipPath>
 </defs>
</svg>
